<?xml version="1.0" standalone="no"?>
<!DOCTYPE svg PUBLIC "-//W3C//DTD SVG 1.1//EN" "http://www.w3.org/Graphics/SVG/1.1/DTD/svg11.dtd" >
<svg>
<metadata>
Created by FontForge 20110222 at Sat Nov 29 19:28:57 2014
 By deploy user
(c) 2008 Microsoft Corporation. All rights reserved.
</metadata>
<defs>
<font id="IskoolaPota-Bold" horiz-adv-x="1343" >
  <font-face 
    font-family="Iskoola Pota"
    font-weight="700"
    font-stretch="normal"
    units-per-em="2048"
    panose-1="2 11 8 2 4 2 4 2 2 3"
    ascent="1638"
    descent="-410"
    x-height="923"
    cap-height="1356"
    bbox="-1203 -510 3955 1840"
    underline-thickness="90"
    underline-position="-145"
    unicode-range="U+0020-FB02"
  />
<missing-glyph horiz-adv-x="1008" 
d="M50 0v1511h907v-1511h-907zM176 126h655v1259h-655v-1259z" />
    <glyph glyph-name=".notdef" horiz-adv-x="1008" 
d="M50 0v1511h907v-1511h-907zM176 126h655v1259h-655v-1259z" />
    <glyph glyph-name="null" horiz-adv-x="0" 
 />
    <glyph glyph-name="nonmarkingreturn" horiz-adv-x="534" 
 />
    <glyph glyph-name="space" unicode=" " horiz-adv-x="534" 
 />
    <glyph glyph-name="exclam" unicode="!" horiz-adv-x="588" 
d="M317 400h-57l-93 617q-22 155 -22 188q0 83 38.5 129.5t106.5 46.5q47 0 79 -20.5t49 -59.5t17 -92q0 -48 -28 -228zM294 277q65 0 111.5 -46.5t46.5 -111.5t-46.5 -111t-111.5 -46t-111 46t-46 111t46 111.5t111 46.5z" />
    <glyph glyph-name="quotedbl" unicode="&#x22;" horiz-adv-x="1119" 
d="M778 814h-38l-92 326q-15 55 -15 114q0 35 16.5 64t45.5 46t65 17q54 0 92.5 -36.5t38.5 -86.5q0 -52 -20 -118zM371 814h-38l-91 326q-17 54 -17 114q0 52 36.5 89.5t90.5 37.5q55 0 93.5 -36.5t38.5 -86.5q0 -48 -21 -118z" />
    <glyph glyph-name="numbersign" unicode="#" horiz-adv-x="1346" 
d="M393 985l80 386h164l-81 -386h369l81 386h163l-81 -386h175v-162h-209l-66 -321h275v-164h-310l-80 -382h-164l81 382h-369l-81 -382h-163l81 382h-177v164h211l67 321h-278v162h312zM891 823h-369l-66 -321h369z" />
    <glyph glyph-name="dollar" unicode="$" horiz-adv-x="1070" 
d="M581 1292v-476q216 -121 299 -230.5t83 -239.5q0 -69 -25.5 -134t-74 -119t-119.5 -88.5t-163 -40.5v-164h-102v164q-90 0 -196.5 21.5t-157.5 48.5v303h36q29 -104 73 -164.5t103 -89t142 -41.5v527q-120 70 -190.5 125t-112 109.5t-59 108t-17.5 107.5q0 75 27 135
t75 103t118 68.5t159 30.5v163h102v-163q94 -6 181 -31.5t136 -63.5v-267h-35q-24 124 -98.5 202t-183.5 96zM479 873v417q-82 -18 -131.5 -72.5t-49.5 -129.5q0 -60 41 -111.5t140 -103.5zM581 506v-462q83 14 135 73.5t52 142.5q0 67 -43.5 123.5t-143.5 122.5z" />
    <glyph glyph-name="percent" unicode="%" horiz-adv-x="1590" 
d="M1142 346q0 -148 27.5 -225t78.5 -77t78.5 78.5t27.5 223.5q0 103 -12.5 170t-36 101t-57.5 34q-52 0 -79 -77t-27 -228zM442 -20h-100l808 1401h98zM238 1012q0 -303 104 -303q52 0 80 78.5t28 224.5q0 147 -27.5 225.5t-80.5 78.5q-104 0 -104 -304zM948 346
q0 73 23.5 140.5t65 119.5t97 80.5t114.5 28.5q62 0 116.5 -29t95.5 -79.5t64.5 -118.5t23.5 -142q0 -71 -23.5 -139t-66 -119t-97 -79.5t-113.5 -28.5t-114.5 28.5t-97.5 81.5t-65 120t-23 136zM42 1012q0 72 24 139.5t65.5 119.5t96.5 81t114 29q62 0 117 -29.5t95.5 -80
t64.5 -118.5t24 -141q0 -71 -24.5 -141t-66 -119.5t-96.5 -78t-114 -28.5q-79 0 -148.5 50t-110.5 134.5t-41 182.5z" />
    <glyph glyph-name="ampersand" unicode="&#x26;" horiz-adv-x="1661" 
d="M1453 863v-65q-76 -10 -129 -62q-30 -30 -66 -94.5t-88 -160t-97 -158.5q65 -81 145 -130.5t149 -49.5q83 0 122 72h63q-15 -72 -60 -129.5t-110.5 -90.5t-139.5 -33q-95 0 -189.5 43t-158.5 116q-170 -159 -404 -159q-110 0 -197 41t-135.5 116t-48.5 167q0 86 44.5 173
t128.5 164t199 137q-39 83 -59.5 162t-20.5 142q0 91 44 163.5t123.5 113t179.5 40.5q85 0 152 -30t106.5 -83.5t39.5 -119.5q0 -169 -296 -336q45 -86 116 -200.5t138 -214.5q66 96 95.5 165t29.5 123q0 93 -91 113v65h415zM711 896q189 112 189 241q0 64 -37.5 105.5
t-96.5 41.5q-39 0 -67.5 -16.5t-43 -47t-14.5 -74.5q0 -91 70 -250zM522 677q-74 -32 -122 -100t-48 -142q0 -84 41 -155.5t108 -115t144 -43.5q111 0 180 75q-67 82 -158 227t-145 254z" />
    <glyph glyph-name="quotesingle" unicode="'" horiz-adv-x="560" 
d="M296 814h-38l-91 326q-15 55 -15 114q0 35 16.5 64t45.5 46t64 17q55 0 93 -36.5t38 -86.5q0 -53 -20 -118z" />
    <glyph glyph-name="parenleft" unicode="(" horiz-adv-x="713" 
d="M673 -375v-64q-122 25 -231 107t-195 210.5t-132 280t-46 306.5q0 154 43.5 301.5t128 277t195.5 215t237 112.5v-63q-143 -62 -218.5 -194t-99.5 -292.5t-24 -354.5q0 -172 19 -311t60.5 -246.5t106 -178t156.5 -106.5z" />
    <glyph glyph-name="parenright" unicode=")" horiz-adv-x="713" 
d="M40 -375q93 36 158.5 107.5t105.5 176t59.5 245.5t19.5 313q0 194 -24 354.5t-100 292.5t-219 194v63q127 -27 239 -112.5t194.5 -212.5t127 -277t44.5 -304q0 -160 -47 -311.5t-130 -276.5t-193.5 -208t-234.5 -108v64z" />
    <glyph glyph-name="asterisk" unicode="*" horiz-adv-x="1070" 
d="M437 556q0 27 12 69.5t28.5 93t26.5 91.5t10 77q-53 -30 -122.5 -110t-100.5 -108t-79 -28q-38 0 -66.5 29.5t-28.5 69.5q0 65 54.5 88.5t168 44.5t154.5 50q-36 30 -113 45.5t-134.5 27.5t-95.5 36t-38 76q0 42 29.5 72.5t69.5 30.5q39 0 77 -27t92 -89.5t75.5 -85.5
t57.5 -42q0 53 -36 171t-36 162q0 46 25.5 73t66.5 27q44 0 68.5 -27t24.5 -73q0 -51 -18 -109t-35.5 -116t-17.5 -108q53 31 125.5 111.5t100 106.5t78.5 26q41 0 69 -30.5t28 -72.5q0 -52 -37.5 -76.5t-128 -41.5t-132.5 -27t-80 -40q35 -24 100 -37.5t131.5 -26.5
t104.5 -40t38 -79q0 -41 -26 -70t-64 -29q-50 0 -84.5 31.5t-105.5 110.5t-117 104q0 -45 37.5 -169t37.5 -162q0 -43 -26.5 -70.5t-70.5 -27.5q-43 0 -70 28t-27 70z" />
    <glyph glyph-name="plus" unicode="+" horiz-adv-x="1344" 
d="M129 762h452v451h181v-451h451v-181h-451v-452h-181v452h-452v181z" />
    <glyph glyph-name="comma" unicode="," horiz-adv-x="588" 
d="M113 -337v67q103 6 163.5 59.5t60.5 141.5q0 34 -12.5 42.5t-58.5 8.5q-75 0 -114 35t-39 98q0 70 47 116t118 46q60 0 104 -34t69.5 -94t25.5 -137q0 -102 -44 -178.5t-128 -121.5t-192 -49z" />
    <glyph glyph-name="hyphen" unicode="-" horiz-adv-x="713" 
d="M54 356v215h607v-215h-607z" />
    <glyph glyph-name="period" unicode="." horiz-adv-x="588" 
d="M294 277q65 0 111.5 -46.5t46.5 -111.5t-46.5 -111t-111.5 -46t-111 46t-46 111t46 111.5t111 46.5z" />
    <glyph glyph-name="slash" unicode="/" horiz-adv-x="566" 
d="M371 1381h195l-372 -1419h-194z" />
    <glyph glyph-name="zero" unicode="0" horiz-adv-x="1068" 
d="M46 671q0 119 34.5 245t98.5 231.5t155.5 169.5t201.5 64q97 0 185 -56t157.5 -155.5t107 -227.5t37.5 -271q0 -188 -66.5 -351.5t-179.5 -260.5t-241 -97q-107 0 -197 62t-156 166.5t-101.5 230.5t-35.5 250zM337 671q0 -646 199 -646q197 0 197 646q0 326 -48 486.5
t-149 160.5q-199 0 -199 -647z" />
    <glyph glyph-name="one" unicode="1" horiz-adv-x="1068" 
d="M696 1381v-1106q0 -85 16.5 -130t58 -62.5t114.5 -17.5v-65h-653v65q78 0 120.5 16t61.5 62t19 132v713q0 85 -16 117t-56 32q-53 0 -129 -45l-30 56l437 233h57z" />
    <glyph glyph-name="two" unicode="2" horiz-adv-x="1068" 
d="M152 967h-69q23 126 87 218.5t160.5 144t211.5 51.5q78 0 147 -28t119.5 -78.5t78.5 -120.5t28 -148q0 -90 -44.5 -194.5t-159 -247.5t-306.5 -324h449q32 0 47.5 14.5t41.5 64.5h71l-107 -319h-869v52l218 192q158 139 249.5 252.5t126.5 203t35 177.5
q0 127 -72.5 209.5t-187.5 82.5q-88 0 -157 -54t-98 -148z" />
    <glyph glyph-name="three" unicode="3" horiz-adv-x="1068" 
d="M229 1064h-64q30 98 86.5 169.5t133.5 109.5t169 38q85 0 157 -34.5t112 -95t40 -136.5q0 -178 -226 -327q290 -99 290 -367q0 -95 -39.5 -179t-110 -147.5t-161.5 -98t-195 -34.5q-107 0 -185.5 43.5t-78.5 103.5q0 39 30 66t73 27q32 0 62.5 -15.5t78 -45.5t74 -42
t57.5 -12q76 0 123 58.5t47 154.5q0 93 -46.5 168t-131.5 125.5t-203 69.5v58q93 23 162 67.5t107.5 105.5t38.5 127q0 53 -23 96t-65 67.5t-93 24.5q-133 0 -219 -145z" />
    <glyph glyph-name="four" unicode="4" horiz-adv-x="1068" 
d="M829 0h-254v344h-529v192l625 845h158v-858h188v-179h-188v-344zM575 523v517h-4l-381 -517h385z" />
    <glyph glyph-name="five" unicode="5" horiz-adv-x="1068" 
d="M950 1356l-73 -246h-472l-42 -114q128 -20 237.5 -71t187.5 -124.5t121 -166.5t43 -197q0 -98 -43.5 -186t-121.5 -153t-180.5 -100.5t-221.5 -35.5q-83 0 -145.5 21t-96.5 59t-34 85q0 43 28 68.5t73 25.5q40 0 70.5 -16t74 -48t78 -48.5t83.5 -16.5q66 0 124.5 36
t93 98t34.5 133q0 107 -72 190.5t-216.5 138.5t-348.5 78l240 590h579z" />
    <glyph glyph-name="six" unicode="6" horiz-adv-x="1068" 
d="M983 1381v-61q-125 -10 -234 -63t-194 -131.5t-139 -170.5t-72 -180q61 38 125 55.5t127 17.5q89 0 165 -31t134 -87.5t90 -133.5t32 -163q0 -124 -63.5 -233.5t-171 -173.5t-232.5 -64q-142 0 -257.5 68.5t-182 194t-66.5 283.5q0 193 78 354.5t213 278t304 178.5
t344 62zM333 646q-8 -116 -8 -183q0 -123 21 -220.5t72.5 -157.5t137.5 -60q94 0 147 76.5t53 217.5q0 111 -22.5 204.5t-71 147.5t-124.5 54q-28 0 -66.5 -9.5t-74 -27.5t-64.5 -42z" />
    <glyph glyph-name="seven" unicode="7" horiz-adv-x="1068" 
d="M115 996h-65l125 360h842l-501 -1394l-166 38l406 1110h-429q-67 0 -102 -8.5t-55.5 -29.5t-54.5 -76z" />
    <glyph glyph-name="eight" unicode="8" horiz-adv-x="1068" 
d="M727 760q101 -63 162 -121.5t89 -124t28 -143.5q0 -114 -61 -208t-168.5 -147.5t-236.5 -53.5q-196 0 -327.5 100.5t-131.5 254.5q0 104 74 195t216 161q-99 62 -158.5 126t-82.5 122.5t-23 114.5q0 96 57.5 175t159.5 124.5t222 45.5q114 0 208 -42.5t147.5 -118.5
t53.5 -166q0 -87 -51.5 -154t-176.5 -140zM633 821q119 77 119 233q0 121 -58.5 192.5t-159.5 71.5q-84 0 -138 -52t-54 -135t61.5 -148.5t229.5 -161.5zM477 611q-43 -39 -73.5 -87.5t-46 -101.5t-15.5 -110q0 -129 60.5 -208t159.5 -79q93 0 151 66t58 175q0 66 -23 115
t-84 101.5t-187 128.5z" />
    <glyph glyph-name="nine" unicode="9" horiz-adv-x="1068" 
d="M85 -38v61q161 12 298.5 95t225 203.5t114.5 244.5q-120 -72 -252 -72q-85 0 -163 31.5t-135.5 88.5t-90 134t-32.5 161q0 125 64.5 234.5t172 173.5t231.5 64q131 0 248 -64.5t187 -185.5t70 -289q0 -207 -82.5 -374.5t-219 -279t-302.5 -169t-334 -57.5zM736 696
q8 77 8 183q0 244 -66.5 341.5t-165.5 97.5q-95 0 -147.5 -78t-52.5 -217q0 -159 50 -282.5t170 -123.5q47 0 103.5 21.5t100.5 57.5z" />
    <glyph glyph-name="colon" unicode=":" horiz-adv-x="588" 
d="M294 963q65 0 111.5 -46t46.5 -111t-46.5 -111.5t-111.5 -46.5t-111 46.5t-46 111.5t46 111t111 46zM294 277q65 0 111.5 -46.5t46.5 -111.5t-46.5 -111t-111.5 -46t-111 46t-46 111t46 111.5t111 46.5z" />
    <glyph glyph-name="semicolon" unicode=";" horiz-adv-x="588" 
d="M113 -337v67q103 6 163.5 59.5t60.5 141.5q0 34 -12.5 42.5t-58.5 8.5q-75 0 -114 35t-39 98q0 70 47 116t118 46q60 0 104 -34t69.5 -94t25.5 -137q0 -102 -44 -178.5t-128 -121.5t-192 -49zM294 963q65 0 111.5 -46t46.5 -111t-46.5 -111.5t-111.5 -46.5t-111 46.5
t-46 111.5t46 111t111 46z" />
    <glyph glyph-name="less" unicode="&#x3c;" horiz-adv-x="1344" 
d="M1213 135l-1084 453v166l1084 453v-195l-836 -341l836 -340v-196z" />
    <glyph glyph-name="equal" unicode="=" horiz-adv-x="1344" 
d="M129 996h1084v-182h-1084v182zM129 528h1084v-182h-1084v182z" />
    <glyph glyph-name="greater" unicode="&#x3e;" horiz-adv-x="1344" 
d="M129 135v196l838 340l-838 341v195l1084 -453v-166z" />
    <glyph glyph-name="question" unicode="?" horiz-adv-x="840" 
d="M123 1381h52q0 -29 23 -51q15 -14 114 -20t179.5 -26t145.5 -85q105 -107 105 -296q0 -75 -19 -134.5t-54 -93.5q-35 -35 -111 -71t-101 -51.5t-30 -54.5l-12 -97h-63v214q0 88 21 108q10 10 108 41.5t130 64.5q32 31 32 86q0 48 -32 81q-86 84 -390 84q-58 0 -78 17
t-20 60v224zM383 277q65 0 111 -46.5t46 -111.5t-46 -111t-111 -46t-111.5 46t-46.5 111t46.5 111.5t111.5 46.5z" />
    <glyph glyph-name="at" unicode="@" horiz-adv-x="1875" 
d="M1400 923l-114 -393l-61 -211q-32 -123 -32 -164q0 -30 21 -52t51 -22q57 0 125.5 38.5t120.5 101.5q81 97 126.5 230t45.5 270q0 173 -81 312.5t-227 217t-329 77.5q-346 0 -585 -255q-83 -91 -140.5 -200.5t-88 -233.5t-30.5 -248q0 -227 97.5 -406.5t273 -279.5
t398.5 -100q178 0 331 63.5t271 187t190 294.5h56q-29 -95 -67.5 -162.5t-99.5 -139.5q-87 -100 -195.5 -167.5t-233.5 -102t-256 -34.5q-242 0 -438.5 113.5t-308 313.5t-111.5 446q0 199 71.5 375t199 309.5t298.5 206.5t362 73q158 0 286.5 -48.5t223 -139t144.5 -214.5
t50 -273q0 -106 -26.5 -209t-75 -192t-115.5 -157q-39 -41 -94 -73.5t-114.5 -48.5t-117.5 -16q-151 0 -151 135q0 52 16 141l-4 4q-85 -110 -155 -173q-57 -51 -117 -79t-111 -28q-49 0 -90 30.5t-65 83t-24 114.5q0 101 50 226.5t135 233.5q84 104 181 167.5t176 63.5
q81 0 127 -46q30 -31 42 -91h4l31 108zM1056 883q-103 0 -222 -166q-73 -103 -125 -234t-52 -215q0 -58 34.5 -98.5t79.5 -40.5q92 0 192 109q117 130 156 237q58 162 58 267q0 61 -33.5 101t-87.5 40z" />
    <glyph glyph-name="A" unicode="A" horiz-adv-x="1661" 
d="M427 363l-38 -83q-35 -76 -35 -107q0 -105 168 -108v-65h-488v65q72 2 128 52t108 163l508 1101h58l605 -1202q23 -45 47 -68.5t54.5 -33t82.5 -12.5v-65h-617v65q83 1 113.5 16.5t30.5 53.5q0 40 -37 111l-63 117h-625zM996 471l-271 537l-248 -537h519z" />
    <glyph glyph-name="B" unicode="B" horiz-adv-x="1429" 
d="M42 1356h788q141 0 251 -47.5t169.5 -128.5t59.5 -178q0 -78 -40 -142.5t-112.5 -107.5t-159.5 -54v-4q109 -10 194.5 -56.5t133 -118t47.5 -158.5q0 -89 -50.5 -171.5t-160 -136t-279.5 -53.5h-841v65h45q76 0 117 18t58.5 63.5t17.5 128.5v819q0 102 -36.5 150
t-139.5 48h-62v64zM558 1248v-490q44 -10 131 -10q101 0 176.5 30.5t114.5 86.5t39 133q0 81 -39.5 140t-114 90.5t-174.5 31.5q-60 0 -133 -12zM558 637v-508q91 -27 182 -27q101 0 174 32t112.5 92.5t39.5 140.5q0 84 -47.5 149t-135 100t-202.5 35q-71 0 -123 -14z" />
    <glyph glyph-name="C" unicode="C" horiz-adv-x="1556" 
d="M1446 387l63 -45q-206 -380 -640 -380q-182 0 -329.5 58t-250.5 159.5t-155.5 227.5t-52.5 258q0 194 106.5 358.5t291.5 261t404 96.5q88 0 158.5 -14.5t152 -38.5t102.5 -24q29 0 47.5 20.5t18.5 56.5h65l34 -452h-67q-30 81 -82.5 147t-113.5 111t-137 71t-152 26
q-148 0 -266 -77.5t-183 -218.5t-65 -317q0 -169 68.5 -302t193.5 -207.5t284 -74.5q315 0 505 300z" />
    <glyph glyph-name="D" unicode="D" horiz-adv-x="1786" 
d="M48 1356h895q194 0 341 -59.5t242 -157.5t142 -218t47 -242q0 -165 -88 -321.5t-275 -257t-465 -100.5h-839v65h63q77 0 117.5 18t58 63.5t17.5 128.5v807q0 118 -40 164t-141 46h-75v64zM583 1223v-1082q38 -14 118.5 -25.5t154.5 -11.5q140 0 244.5 45.5t170.5 123.5
t97.5 181.5t31.5 218.5q0 176 -70.5 306.5t-201 201.5t-305.5 71q-123 0 -240 -29z" />
    <glyph glyph-name="E" unicode="E" horiz-adv-x="1429" 
d="M1240 1356v-314h-61q-42 123 -97 164.5t-153 41.5h-417v-480h361q97 0 138 40.5t41 146.5h67v-492h-67q0 115 -37.5 155.5t-141.5 40.5h-361v-419q0 -58 8 -84.5t31.5 -36.5t75.5 -10h306q104 0 171.5 29.5t115 88.5t98.5 164h65l-114 -391h-1240v65q84 0 127 16
t60.5 60.5t17.5 133.5v807q0 88 -17 133t-60 61t-128 16v64h1211z" />
    <glyph glyph-name="F" unicode="F" horiz-adv-x="1429" 
d="M1340 1356l18 -331h-68q-17 68 -42.5 114.5t-58 70t-73.5 31t-102 7.5h-458v-480h351q66 0 104.5 15t57.5 57.5t19 120.5h69v-486h-69q0 107 -40 145.5t-127 38.5h-365v-384q0 -83 17 -128.5t58 -63.5t119 -18h79v-65h-797v65h55q76 0 116.5 18t57.5 63.5t17 128.5v809
q0 82 -17 127t-57.5 63t-116.5 18h-55v64h1308z" />
    <glyph glyph-name="G" unicode="G" horiz-adv-x="1786" 
d="M1433 1379h63l27 -462h-66q-49 126 -134 208.5t-187.5 120.5t-208.5 38q-113 0 -209 -40.5t-169.5 -119t-113.5 -189t-40 -244.5q0 -142 44 -259t125 -201t188.5 -128.5t230.5 -44.5q87 0 170 23.5t139 63.5v290q0 90 -22.5 136.5t-65 60t-122.5 13.5v64h662v-64
q-104 -3 -139.5 -50.5t-35.5 -159.5v-318q-65 -42 -170 -78t-226 -56.5t-232 -20.5q-235 0 -432.5 80t-312.5 239t-115 380q0 153 62.5 284.5t174.5 229.5t257.5 152t309.5 54q126 0 361 -65q39 -16 88 -16q69 0 99 79z" />
    <glyph glyph-name="H" unicode="H" horiz-adv-x="1786" 
d="M552 635v-360q0 -83 17 -128.5t59.5 -63.5t121.5 -18h44v-65h-752v65h39q77 0 118 18t58.5 63.5t17.5 128.5v825q0 97 -39 144.5t-138 47.5h-56v64h752v-64h-44q-79 0 -121.5 -18t-59.5 -63t-17 -127v-326h681v344q0 103 -42 146.5t-129 43.5h-68v64h750v-64h-61
q-97 0 -134.5 -45.5t-37.5 -162.5v-809q0 -81 17 -127.5t57.5 -64.5t117.5 -18h41v-65h-750v65h46q77 0 118 18t58 63.5t17 128.5v360h-681z" />
    <glyph glyph-name="I" unicode="I" horiz-adv-x="840" 
d="M798 0h-758v65h52q118 0 156 44.5t38 165.5v807q0 84 -16 128.5t-56.5 63t-121.5 18.5h-52v64h758v-64h-42q-77 0 -117.5 -18t-57.5 -63.5t-17 -128.5v-807q0 -83 17 -128.5t57.5 -63.5t117.5 -18h42v-65z" />
    <glyph glyph-name="J" unicode="J" horiz-adv-x="946" 
d="M900 1356v-64q-71 -2 -110 -20.5t-56 -64t-17 -125.5v-703q0 -89 -27 -163t-80 -132t-129 -90t-167 -32q-120 0 -201.5 57t-81.5 142q0 54 35 90.5t88 36.5q71 0 91.5 -32.5t54 -115t73.5 -82.5q66 0 66 115v909q0 78 -17 123.5t-53 66t-101 20.5h-36v64h668z" />
    <glyph glyph-name="K" unicode="K" horiz-adv-x="1786" 
d="M40 1356h731v-64h-29q-78 0 -120 -18t-60 -63.5t-18 -128.5v-386l439 382q62 55 85.5 87.5t23.5 61.5q0 36 -25 50.5t-88 14.5h-27v64h575v-64q-50 -2 -98.5 -18.5t-105 -53t-116.5 -89.5l-403 -347l534 -500q125 -116 212.5 -166t170.5 -53v-65h-756v65q83 0 111 11
t28 39q0 17 -16.5 37t-73.5 73l-470 436v-386q0 -83 17.5 -128.5t59.5 -63.5t121 -18h29v-65h-731v65h33q77 0 117.5 18t58 63.5t17.5 128.5v807q0 84 -18.5 129.5t-60 63t-114.5 17.5h-33v64z" />
    <glyph glyph-name="L" unicode="L" horiz-adv-x="1429" 
d="M1322 367h66l-123 -367h-1229v65h47q76 0 116.5 17.5t58 62.5t17.5 127v810q0 118 -38 164t-154 46h-35v64h744v-64h-46q-77 0 -118 -18t-58.5 -63.5t-17.5 -128.5v-834q0 -67 8 -94t33.5 -36t83.5 -9h246q102 0 167 19t118.5 73t113.5 166z" />
    <glyph glyph-name="M" unicode="M" horiz-adv-x="2144" 
d="M1538 1356h527v-64h-38q-78 0 -118.5 -18t-58.5 -63.5t-18 -128.5v-807q0 -83 17.5 -128.5t58 -63.5t119.5 -18h38v-65h-743v65h40q77 0 117 18t57.5 63.5t17.5 128.5v875h-4l-538 -1150h-62l-543 1131h-4v-856q0 -80 16 -125.5t57 -65.5t118 -20q7 0 13 0.5t16 0.5v-65
h-544v65h25q83 0 125.5 18.5t57.5 62.5t15 129v807q0 80 -14 124t-55.5 65t-121.5 21h-32v64h525l471 -985z" />
    <glyph glyph-name="N" unicode="N" horiz-adv-x="1786" 
d="M1150 1356h583v-64h-64q-65 0 -101 -20.5t-52 -67t-16 -122.5v-1094h-39l-1061 1062v-775q0 -83 17 -128.5t58 -63.5t117 -18h61v-65h-603v65h77q88 0 129.5 43.5t41.5 143.5v896q-49 64 -113.5 101t-134.5 43v64h434l914 -925v673q0 98 -39 143t-130 45h-79v64z" />
    <glyph glyph-name="O" unicode="O" horiz-adv-x="1661" 
d="M73 671q0 194 100.5 357.5t274 258t381.5 94.5t381.5 -94.5t274.5 -258t101 -357.5t-101 -357t-274.5 -257.5t-381.5 -94.5t-381.5 94.5t-274 257.5t-100.5 357zM387 671q0 -146 29 -258t86.5 -193t139 -121.5t187.5 -40.5q107 0 188 40.5t138 119.5t86.5 193t29.5 260
q0 194 -51.5 331t-152 209.5t-238.5 72.5q-140 0 -239.5 -72.5t-151 -209.5t-51.5 -331z" />
    <glyph glyph-name="P" unicode="P" horiz-adv-x="1304" 
d="M25 1356h702q99 0 190.5 -23t164.5 -72t116.5 -122t43.5 -170q0 -109 -60 -198t-164 -140.5t-230 -51.5q-157 0 -272 72v-376q0 -92 18.5 -135.5t64.5 -59t132 -15.5v-65h-706v65q88 0 133 16.5t62.5 61.5t17.5 132v825q0 103 -39.5 148t-146.5 45q-9 0 -15 -0.5
t-12 -0.5v64zM516 1227v-487q81 -36 153 -36q71 0 130.5 36t93.5 99.5t34 143.5q0 82 -35 142.5t-99 93.5t-148 33q-70 0 -129 -25z" />
    <glyph glyph-name="Q" unicode="Q" horiz-adv-x="1661" 
d="M1517 -387v-65h-110q-147 0 -272 27t-226 82t-181.5 140t-137.5 199q-116 35 -210 100.5t-163.5 157t-106.5 197t-37 220.5q0 194 100.5 357.5t274 258t381.5 94.5t381.5 -94.5t274.5 -258t101 -357.5q0 -116 -39 -226t-113 -202.5t-177.5 -158.5t-231.5 -100
q55 -185 178.5 -275.5t313.5 -95.5zM387 671q0 -146 29 -258t86.5 -193t139 -121.5t187.5 -40.5q107 0 188 40.5t138 119.5t86.5 193t29.5 260q0 194 -51.5 331t-152 209.5t-238.5 72.5q-140 0 -239.5 -72.5t-151 -209.5t-51.5 -331z" />
    <glyph glyph-name="R" unicode="R" horiz-adv-x="1661" 
d="M979 639l405 -478q41 -48 91 -69t137 -27v-65h-431l-510 604h-133v-329q0 -89 19 -133.5t65.5 -60.5t143.5 -16v-65h-730v65q97 0 142.5 16.5t63.5 60.5t18 133v831q0 108 -46.5 147.5t-145.5 39.5q-10 0 -17 -0.5t-15 -0.5v64h796q105 0 194 -19t158 -61t106.5 -108
t37.5 -158q0 -133 -97 -236t-252 -135zM538 709h164q149 0 230.5 80t81.5 199q0 62 -21.5 110t-61.5 82.5t-96.5 53t-128.5 18.5q-107 0 -168 -27v-516z" />
    <glyph glyph-name="S" unicode="S" horiz-adv-x="1199" 
d="M107 435h64q44 -111 116 -195t159 -128.5t181 -44.5q68 0 120.5 26t81.5 71t29 102q0 91 -72 163q-32 34 -92.5 69.5t-185.5 104.5t-185.5 107t-107.5 82q-104 104 -104 242q0 73 32 137.5t88 111t133 72.5t166 26q65 0 115.5 -9t106.5 -26t91 -25.5t55 -8.5q55 0 75 69
h67v-442h-63q-42 104 -108.5 182t-147 120.5t-165.5 42.5q-91 0 -145.5 -44.5t-54.5 -118.5q0 -68 55 -123q31 -29 121 -77.5t172 -91t163 -91.5t131 -99q69 -69 97 -140.5t28 -152.5q0 -107 -57 -195.5t-158 -138.5t-221 -50q-82 0 -147.5 17t-148.5 45t-111 28
q-40 0 -70 -24.5t-39 -63.5h-64v471z" />
    <glyph glyph-name="T" unicode="T" horiz-adv-x="1429" 
d="M1369 1034h-65q-12 119 -72 168.5t-192 49.5h-188v-977q0 -85 16.5 -129.5t57 -62.5t120.5 -18h40v-65h-746v65h51q96 0 140 43.5t44 166.5v977h-156q-140 0 -208 -45t-88 -173h-65l9 322h1293z" />
    <glyph glyph-name="U" unicode="U" horiz-adv-x="1786" 
d="M38 1356h754v-64h-46q-78 0 -120 -18t-59 -63.5t-17 -128.5v-601q0 -127 57 -215.5t151.5 -131t206.5 -42.5q195 0 326.5 111.5t131.5 296.5v604q0 103 -43 145.5t-128 42.5h-54v64h548v-64h-31q-77 0 -117 -18t-57.5 -63.5t-17.5 -128.5v-570q0 -184 -84.5 -308
t-225.5 -183t-306 -59q-173 0 -319 55.5t-231 167.5t-85 267v654q0 98 -41 142t-139 44h-54v64z" />
    <glyph glyph-name="V" unicode="V" horiz-adv-x="1556" 
d="M865 -38h-67l-550 1122q-44 91 -73 134t-59 58.5t-76 15.5v64h603v-64q-129 0 -129 -85q0 -24 10 -50t53 -113l338 -688l276 680q46 113 46 159q0 52 -31 74.5t-102 22.5v64h409v-64q-55 -8 -84 -28t-59.5 -77t-79.5 -179z" />
    <glyph glyph-name="W" unicode="W" horiz-adv-x="2144" 
d="M1506 -38h-57l-355 838l-332 -838h-55l-447 1065q-55 131 -82 181t-56 66t-80 18v64h583v-64q-72 -2 -102.5 -19.5t-30.5 -57.5q0 -31 44 -139l285 -685l215 540l-67 153q-36 85 -67 130.5t-68.5 61.5t-97.5 16v64h610v-64q-8 1 -23 1q-104 0 -104 -76q0 -34 18 -75
l40 -90l283 -651l217 578q41 107 54 152t13 74q0 52 -33.5 69.5t-119.5 17.5v64h409v-64q-49 -9 -76.5 -28t-49.5 -61t-68 -165z" />
    <glyph glyph-name="X" unicode="X" horiz-adv-x="1661" 
d="M38 0v65q95 10 177.5 63.5t177.5 163.5l298 341l-351 433q-72 89 -120 135.5t-89.5 67t-92.5 23.5v64h681v-64q-129 0 -129 -63q0 -33 65 -110l220 -273l211 236q70 80 87.5 104t17.5 49q0 30 -26.5 43.5t-104.5 13.5v64h498v-64q-63 -2 -107 -18t-92 -57t-117 -119
l-296 -332l423 -528q62 -79 132 -125t120 -48v-65h-675v65q72 0 99.5 14.5t27.5 47.5q0 20 -15.5 46.5t-63.5 86.5l-238 290l-226 -258q-59 -67 -81 -99.5t-22 -57.5q0 -39 31.5 -54.5t103.5 -15.5v-65h-524z" />
    <glyph glyph-name="Y" unicode="Y" horiz-adv-x="1661" 
d="M1183 0h-758v65h65q97 0 135 46.5t38 163.5v302l-405 540q-67 88 -96.5 121.5t-54 43.5t-71.5 10v64h639v-64q-129 0 -129 -59q0 -20 20.5 -54.5t76.5 -108.5l262 -357l258 335q98 130 98 175q0 38 -32 53.5t-102 15.5h-43v64h541v-64q-91 0 -154.5 -43t-138.5 -141
l-391 -518v-315q0 -83 17 -128.5t59 -63.5t120 -18h46v-65z" />
    <glyph glyph-name="Z" unicode="Z" horiz-adv-x="1429" 
d="M1320 369h68l-68 -369h-1280v65l923 1196h-449q-105 0 -171.5 -27t-98 -79t-34.5 -132h-67l32 333h1177v-34l-933 -1220h504q130 0 205 26.5t118 83.5t74 157z" />
    <glyph glyph-name="bracketleft" unicode="[" horiz-adv-x="588" 
d="M548 1356v-64h-119q-46 0 -66.5 -7.5t-27 -30t-6.5 -71.5v-1417q0 -45 7 -69t24 -32.5t51 -8.5h137v-65h-463v1765h463z" />
    <glyph glyph-name="backslash" unicode="\" horiz-adv-x="566" 
d="M0 1381h196l370 -1419h-193z" />
    <glyph glyph-name="bracketright" unicode="]" horiz-adv-x="588" 
d="M40 1356h464v-1765h-464v65h137q48 0 65.5 21.5t17.5 88.5v1417q0 73 -17.5 91t-83.5 18h-119v64z" />
    <glyph glyph-name="asciicircum" unicode="^" horiz-adv-x="1171" 
d="M145 651l399 705h85l396 -705h-158l-279 493l-280 -493h-163z" />
    <glyph glyph-name="underscore" unicode="_" horiz-adv-x="1008" 
d="M-12 -152h1031v-100h-1031v100z" />
    <glyph glyph-name="grave" unicode="`" horiz-adv-x="671" 
d="M456 1096h-73l-287 343h252z" />
    <glyph glyph-name="a" unicode="a" horiz-adv-x="1070" 
d="M1002 185l34 -46q-48 -79 -122.5 -128t-144.5 -49q-65 0 -110.5 37t-45.5 105q0 9 2 27q-194 -169 -323 -169q-66 0 -117.5 31t-80.5 87.5t-29 127.5q0 83 37.5 142.5t111.5 103.5t199 86l202 66v130q0 81 -32 114t-110 33q-141 0 -141 -105q0 -8 0.5 -13.5t0.5 -14.5
q0 -53 -26.5 -85t-77.5 -32q-44 0 -74 28t-30 72q0 67 47 119.5t132 81.5t190 29q106 0 188.5 -25.5t129 -77.5t46.5 -127v-533q0 -85 45 -85t99 70zM615 522q-166 -48 -243.5 -102t-77.5 -134q0 -61 38 -106t89 -45q40 0 98 29t96 68v290z" />
    <glyph glyph-name="b" unicode="b" horiz-adv-x="1199" 
d="M433 1381v-567q66 72 149 110.5t164 38.5q106 0 193 -59.5t137.5 -165t50.5 -230.5q0 -149 -73.5 -274.5t-199 -198.5t-273.5 -73q-105 0 -217 34.5t-174 84.5v1038q0 83 -22.5 114.5t-65.5 31.5q-34 0 -50 -7l-12 66l310 57h83zM433 706v-464q0 -62 14.5 -101.5
t57.5 -61t124 -21.5q74 0 133 44.5t92 124t33 178.5q0 105 -36 193.5t-96.5 139t-133.5 50.5q-92 0 -188 -82z" />
    <glyph glyph-name="c" unicode="c" horiz-adv-x="946" 
d="M860 308l40 -38q-35 -92 -99 -162t-145.5 -108t-167.5 -38q-92 0 -171.5 35t-140 102.5t-92.5 155.5t-32 189q0 148 63 267.5t174 185.5t253 66q70 0 130 -15t102 -40t66.5 -62t24.5 -80q0 -53 -37.5 -86.5t-96.5 -33.5q-60 0 -84 29t-40 86t-37 85.5t-80 28.5
q-67 0 -116 -37t-76.5 -106t-27.5 -157q0 -114 43.5 -206t119.5 -145t171 -53q145 0 256 137z" />
    <glyph glyph-name="d" unicode="d" horiz-adv-x="1199" 
d="M1012 1381v-1133q0 -135 70 -135q35 0 77 16v-64l-305 -103h-86v111q-49 -48 -127.5 -79.5t-148.5 -31.5q-117 0 -211.5 61t-147 168t-52.5 240q0 91 27.5 183.5t86 173t150 128t215.5 47.5q53 0 112.5 -15.5t95.5 -38.5v212q0 78 -20 112t-69 34q-35 0 -79 -11l-12 64
l349 61h75zM768 169v464q0 114 -48.5 178t-150.5 64q-77 0 -133 -44t-85.5 -126t-29.5 -189q0 -109 40 -200.5t109 -143t153 -51.5q81 0 145 48z" />
    <glyph glyph-name="e" unicode="e" horiz-adv-x="946" 
d="M852 342l51 -28q-51 -155 -162 -253.5t-260 -98.5q-123 0 -220 64t-151 178.5t-54 258.5q0 252 132.5 376t309.5 124q110 0 200 -47.5t141.5 -130.5t51.5 -185v-60h-616q9 -163 96.5 -264t216.5 -101q80 0 152.5 47t111.5 120zM275 643h354q3 20 3 39q0 82 -48.5 137.5
t-120.5 55.5q-51 0 -91.5 -29t-67 -82.5t-29.5 -120.5z" />
    <glyph glyph-name="f" unicode="f" horiz-adv-x="713" 
d="M633 0h-575v65h40q47 0 70.5 12.5t33.5 43.5t10 89v598h-154v115h154q-1 11 -1 30q0 130 64 228t168 149t218 51q63 0 113.5 -19t77.5 -53t27 -78q0 -50 -33 -81t-82 -31q-39 0 -63.5 19.5t-47 56t-43 55.5t-56.5 19q-98 0 -98 -161v-185h177v-115h-177v-598
q0 -58 9 -88.5t33.5 -43.5t70.5 -13h64v-65z" />
    <glyph glyph-name="g" unicode="g" horiz-adv-x="1070" 
d="M1000 775q-6 0 -140 31q47 -66 47 -155q0 -92 -51.5 -165.5t-143.5 -115t-208 -41.5q-72 0 -148 19q-68 -65 -68 -100q0 -36 40.5 -55.5t132.5 -25.5l252 -17q126 -8 206.5 -70t80.5 -182q0 -101 -64 -179.5t-176.5 -123.5t-255.5 -45q-141 0 -243.5 32.5t-153.5 83
t-51 105.5q0 107 165 243q-50 20 -79 56.5t-29 79.5q0 104 157 225q-91 41 -138 111t-47 159q0 96 52.5 171t148.5 117t220 42q135 0 236 -52q46 2 137 23q86 17 113 17q24 0 31 -10t7 -42v-75q0 -34 -6.5 -47.5t-23.5 -13.5zM671 613q0 115 -42.5 201t-140.5 86
q-76 0 -121.5 -58t-45.5 -153q0 -88 24 -153t67.5 -100t99.5 -35q76 0 117.5 55.5t41.5 156.5zM715 -50l-415 38q-29 -23 -48.5 -64.5t-19.5 -77.5q0 -50 41 -87.5t116.5 -58.5t181.5 -21q141 0 224.5 43.5t83.5 116.5q0 97 -164 111z" />
    <glyph glyph-name="h" unicode="h" horiz-adv-x="1199" 
d="M427 1381v-569q163 140 321 140q74 0 138 -30t105 -97t41 -177v-438q0 -63 11 -94t36.5 -41t79.5 -10v-65h-496v65q76 0 100.5 26.5t24.5 118.5v403q0 82 -32.5 130.5t-104.5 48.5q-53 0 -107 -22t-117 -68v-492q0 -58 10 -89t35.5 -44t69.5 -13q21 0 33 1v-65h-529v65
q60 0 88 11t38.5 41t10.5 93v911q0 74 -18.5 108t-70.5 34q-24 0 -48 -5l-10 66l308 57h83z" />
    <glyph glyph-name="i" unicode="i" horiz-adv-x="588" 
d="M548 0h-523v65q11 -1 31 -1q45 0 70.5 13t35 44t9.5 89v463q0 161 -90 161q-22 0 -43 -7l-13 64l304 72h86v-753q0 -64 11.5 -94t38.5 -40.5t83 -10.5v-65zM300 1381q61 0 103.5 -42.5t42.5 -103.5q0 -60 -43.5 -102.5t-102.5 -42.5q-60 0 -102.5 42.5t-42.5 102.5
q0 61 41.5 103.5t103.5 42.5z" />
    <glyph glyph-name="j" unicode="j" horiz-adv-x="588" 
d="M444 963v-1017q0 -110 -49.5 -201t-132 -143t-173.5 -52q-58 0 -102.5 17t-70 46t-25.5 66q0 39 27 64t64 25q34 0 55.5 -17t42.5 -47.5t34.5 -43t33.5 -12.5q31 0 41.5 31t10.5 131v855q0 169 -89 169q-14 0 -40 -7l-15 64l300 72h88zM300 1381q61 0 103.5 -42.5
t42.5 -103.5q0 -60 -43.5 -102.5t-102.5 -42.5q-60 0 -102.5 42.5t-42.5 102.5q0 61 41.5 103.5t103.5 42.5z" />
    <glyph glyph-name="k" unicode="k" horiz-adv-x="1199" 
d="M425 1381v-1171q0 -92 25 -118.5t98 -26.5v-65h-510v65q9 0 14.5 -0.5t11.5 -0.5q48 0 73.5 13t34.5 43t9 90v932q0 39 -10 66.5t-28 41t-45 13.5q-31 0 -46 -5l-14 64l304 59h83zM435 516l234 209q48 43 63.5 62t15.5 34q0 18 -16 27t-53 10v65h407v-65
q-43 0 -89.5 -19.5t-111.5 -70.5l-239 -187l358 -427q60 -75 153 -89v-65h-511v65q48 2 62.5 8.5t14.5 24.5q0 20 -44 81z" />
    <glyph glyph-name="l" unicode="l" horiz-adv-x="588" 
d="M415 1381v-1171q0 -57 10 -88t33 -43t70 -14v-65h-472v65q47 0 71.5 12.5t34 43.5t9.5 89v886q0 97 -22.5 133t-92.5 36l-14 63l298 53h75z" />
    <glyph glyph-name="m" unicode="m" horiz-adv-x="1786" 
d="M415 963v-140q153 140 318 140q92 0 155.5 -39t105.5 -124q170 163 344 163q82 0 147 -36t100.5 -103.5t35.5 -160.5v-453q0 -58 9.5 -89t35 -43.5t75.5 -12.5v-65h-489v65q51 0 76.5 11t37 41t11.5 93v407q0 93 -32.5 140t-111.5 47q-90 0 -216 -93v-501q0 -61 10 -91.5
t36 -42t77 -11.5h21v-65h-513v65q55 0 80.5 12.5t35 41.5t9.5 91v382q0 75 -11 119.5t-42.5 68.5t-90.5 24q-100 0 -214 -93v-501q0 -57 9.5 -87.5t33.5 -44.5t70 -14q21 0 32 1v-65h-516v65q74 0 100.5 26.5t26.5 118.5v447q0 93 -22 130.5t-70 37.5q-7 0 -25 -2v68l277 72
h84z" />
    <glyph glyph-name="n" unicode="n" horiz-adv-x="1199" 
d="M419 963v-140q156 140 319 140q70 0 135 -30t106.5 -101t41.5 -186v-436q0 -92 26.5 -118.5t102.5 -26.5v-65h-497v65q51 0 76.5 10t37 41.5t11.5 93.5v409q0 185 -145 185q-48 0 -105 -23.5t-109 -67.5v-503q0 -67 12 -97t42 -39t89 -9v-65h-514v65q54 0 80.5 11.5
t36.5 40.5t10 93v449q0 104 -24 136.5t-80 32.5q-8 0 -12.5 -0.5t-10.5 -0.5v64l287 72h84z" />
    <glyph glyph-name="o" unicode="o" horiz-adv-x="1199" 
d="M1121 469q0 -141 -71 -257t-196 -183t-275 -67q-216 0 -358 140.5t-142 351.5q0 110 39.5 202t114 162.5t171.5 107.5t209 37q110 0 202.5 -36t161 -103t106.5 -158.5t38 -196.5zM858 369q0 157 -34 271.5t-99.5 174.5t-155.5 60q-111 0 -170 -88t-59 -249
q0 -196 72.5 -342t222.5 -146q111 0 167 82t56 237z" />
    <glyph glyph-name="p" unicode="p" horiz-adv-x="1199" 
d="M427 963v-163q139 163 311 163q80 0 149.5 -35t121 -97t80 -146.5t28.5 -182.5q0 -104 -38 -204.5t-103 -175.5t-149 -117.5t-176 -42.5q-132 0 -224 103v-284q0 -61 10 -91t38 -43t85 -13q23 0 34 1v-64h-552v64q63 0 91 10.5t39 40.5t11 95v886q0 167 -91 167
q-11 0 -34 -5v63l282 71h87zM427 694v-428q0 -49 29 -100t78.5 -83.5t108.5 -32.5q106 0 170 94.5t64 255.5q0 108 -32.5 193.5t-90 133.5t-133.5 48q-46 0 -101 -23t-93 -58z" />
    <glyph glyph-name="q" unicode="q" horiz-adv-x="1199" 
d="M1042 963v-1182q0 -66 12 -95.5t42 -40t93 -10.5v-64h-544v64q11 -1 32 -1q51 0 76.5 12.5t35 42.5t9.5 92v323q-134 -142 -314 -142q-164 0 -269.5 125.5t-105.5 319.5q0 129 55.5 257.5t168 213.5t273.5 85q136 0 232 -69l119 69h85zM798 219v472q0 184 -181 184
q-96 0 -156.5 -53t-86.5 -136t-26 -178q0 -110 34 -196t95 -133.5t140 -47.5q108 0 181 88z" />
    <glyph glyph-name="r" unicode="r" horiz-adv-x="840" 
d="M429 963v-209h4q45 103 107 156t133 53q42 0 72.5 -15t47.5 -43t17 -67q0 -55 -27.5 -88t-75.5 -33q-33 0 -46.5 9.5t-46 33.5t-56.5 24q-28 0 -68 -52t-61 -99v-423q0 -65 11.5 -95t37.5 -40t79 -10h33v-65h-546v65q59 0 88.5 9t41 39.5t11.5 96.5v461q0 163 -89 163
q-12 0 -27 -5v63l277 71h83z" />
    <glyph glyph-name="s" unicode="s" horiz-adv-x="840" 
d="M707 941v-300h-66q-31 111 -102.5 175.5t-165.5 64.5q-63 0 -101 -25.5t-38 -67.5q0 -32 26 -61q17 -17 48.5 -35.5t127.5 -72t162 -94.5t93 -69q57 -57 76 -103t19 -107q0 -81 -40 -146.5t-113 -101.5t-166 -36q-51 0 -98 8.5t-109.5 23t-80.5 14.5q-27 0 -64 -20h-46
v333h66q28 -118 117 -194.5t202 -76.5q57 0 93 31t36 82t-39 89q-32 32 -79.5 60.5t-112.5 63.5t-114.5 66t-87.5 70q-83 80 -83 186q0 76 39.5 136t109 94.5t153.5 34.5q68 0 153 -15q79 -17 117 -17q19 0 32 10h36z" />
    <glyph glyph-name="t" unicode="t" horiz-adv-x="713" 
d="M665 931v-121h-274v-564q0 -59 29.5 -95t85.5 -36q98 0 133 104h46q-18 -117 -97.5 -187t-196.5 -70q-104 0 -173.5 62.5t-69.5 187.5v598h-71v65q75 46 140.5 135t113.5 209h60v-288h274z" />
    <glyph glyph-name="u" unicode="u" horiz-adv-x="1199" 
d="M1030 923v-689q0 -119 66 -119q22 0 67 12v-65l-296 -100h-81v140q-76 -67 -159 -103.5t-160 -36.5q-122 0 -203 78.5t-81 219.5v455q0 80 -21 111.5t-75 31.5v65h340v-615q0 -91 34 -139t116 -48q45 0 103.5 24.5t105.5 64.5v505q0 87 -24.5 115.5t-93.5 28.5
q-23 0 -37 -1v65h399z" />
    <glyph glyph-name="v" unicode="v" horiz-adv-x="1070" 
d="M510 -38l-360 796q-26 56 -47.5 76.5t-58.5 23.5v65h452v-65q-49 -2 -71 -15t-22 -41q0 -25 14 -52l194 -431l131 324q52 126 52 161q0 54 -92 54v65h323v-65q-39 -12 -63.5 -34t-48.5 -69.5t-65 -150.5l-254 -642h-84z" />
    <glyph glyph-name="w" unicode="w" horiz-adv-x="1556" 
d="M566 -38h-85l-333 794q-26 63 -43.5 81t-54.5 21v65h406v-65q-61 -3 -61 -48q0 -18 20 -66l179 -438l144 340l-23 58q-35 91 -70.5 122.5t-90.5 31.5v65h488v-65q-56 -2 -78.5 -15t-22.5 -43q0 -23 40 -121l144 -344l131 369q28 83 28 102q0 52 -91 52v65h314v-65
q-52 -7 -86 -51.5t-75 -160.5l-244 -684h-85l-223 542z" />
    <glyph glyph-name="x" unicode="x" horiz-adv-x="1070" 
d="M36 0v65q50 6 92.5 37t100.5 106l178 223l-240 344q-31 47 -56.5 65t-62.5 18v65h470v-65q-64 -3 -64 -44q0 -28 36 -76l74 -105l87 125q30 42 30 60q0 40 -56 40v65h344v-65q-57 0 -104 -31t-103 -106l-137 -181l200 -290q49 -71 82 -110.5t60.5 -54.5t64.5 -20v-65
h-468v65q63 0 63 37q0 25 -39 75l-117 163l-136 -177q-33 -46 -33 -61q0 -37 85 -37v-65h-351z" />
    <glyph glyph-name="y" unicode="y" horiz-adv-x="1070" 
d="M526 923v-65q-56 0 -79.5 -14t-23.5 -46q0 -26 33 -100l173 -400l133 339q56 143 56 173q0 49 -81 49q-14 0 -22 -1v65h319v-65q-38 -8 -59.5 -22.5t-41 -50t-44.5 -106.5l-314 -858q-30 -79 -80.5 -141t-118.5 -96t-147 -34q-86 0 -140.5 39.5t-54.5 102.5q0 46 31 78
t78 32q46 0 112 -36t106 -36t64 23.5t48 91.5l53 137l-359 780q-39 87 -98 96v65h457z" />
    <glyph glyph-name="z" unicode="z" horiz-adv-x="946" 
d="M911 923l-526 -806h256q71 0 106.5 12.5t54 47t34.5 111.5h60v-288h-864l539 814h-254q-55 0 -82 -10t-42 -36t-26 -83h-67l11 238h800z" />
    <glyph glyph-name="braceleft" unicode="{" horiz-adv-x="794" 
d="M242 488v-2q114 -23 185.5 -76t103 -117.5t31.5 -123.5q0 -67 -23 -181.5t-23 -154.5q0 -63 54.5 -118.5t136.5 -64.5v-45q-123 0 -216.5 48t-141 121t-47.5 145q0 37 9.5 81t19.5 85t16.5 80t6.5 85q0 52 -23 98.5t-67 77t-103 34.5v56q60 6 104 36t66.5 76.5t22.5 96.5
q0 47 -7 85.5t-16.5 79.5t-19 85.5t-9.5 80.5q0 55 25.5 109t79.5 103t130 76t170 27v-45q-82 -8 -136.5 -63.5t-54.5 -120.5q0 -40 23 -154.5t23 -181.5q0 -41 -17.5 -89.5t-54 -93.5t-97.5 -80.5t-151 -54.5z" />
    <glyph glyph-name="bar" unicode="|" horiz-adv-x="400" 
d="M109 1381h183v-1810h-183v1810z" />
    <glyph glyph-name="braceright" unicode="}" horiz-adv-x="794" 
d="M552 488v2q-164 32 -242 126.5t-78 189.5q0 41 8.5 94t19.5 106t14.5 79.5t3.5 56.5q0 67 -54.5 121.5t-136.5 62.5v45q95 0 171.5 -27t129 -75t78.5 -103t26 -110q0 -36 -6 -68t-21 -95t-20.5 -94.5t-5.5 -73.5q0 -79 51.5 -140t142.5 -69v-56q-59 -4 -103 -34
t-67.5 -77t-23.5 -99q0 -40 6 -73.5t20.5 -95.5t20.5 -93.5t6 -68.5q0 -52 -27.5 -109t-77.5 -102.5t-127.5 -74t-172.5 -28.5v45q81 8 136 63t55 120q0 30 -5.5 66t-15 83.5t-17.5 97.5t-8 89q0 59 31 123t102 118t187 78z" />
    <glyph glyph-name="asciitilde" unicode="~" horiz-adv-x="1344" 
d="M1142 840h67q0 -160 -74 -257q-76 -97 -204 -97q-96 0 -298 91q-201 88 -272 88q-70 0 -108.5 -43t-52.5 -132h-67q0 178 79.5 264t190.5 86q71 0 147.5 -24t164.5 -64q117 -52 169.5 -71.5t98.5 -19.5q69 0 110.5 48.5t48.5 130.5z" />
    <glyph glyph-name="Adieresis" unicode="&#xc4;" horiz-adv-x="1661" 
d="M427 363l-38 -83q-35 -76 -35 -107q0 -105 168 -108v-65h-488v65q72 2 128 52t108 163l508 1101h58l605 -1202q23 -45 47 -68.5t54.5 -33t82.5 -12.5v-65h-617v65q83 1 113.5 16.5t30.5 53.5q0 40 -37 111l-63 117h-625zM996 471l-271 537l-248 -537h519zM607 1754
q45 0 76.5 -31.5t31.5 -78.5q0 -44 -32 -77t-76 -33t-77.5 33.5t-33.5 76.5q0 46 33 78t78 32zM1058 1754q46 0 77.5 -31.5t31.5 -78.5q0 -44 -32 -77t-77 -33q-43 0 -76.5 33.5t-33.5 76.5q0 46 33 78t77 32z" />
    <glyph glyph-name="Aring" unicode="&#xc5;" horiz-adv-x="1661" 
d="M427 363l-38 -83q-35 -76 -35 -107q0 -105 168 -108v-65h-488v65q72 2 128 52t108 163l508 1101h58l605 -1202q23 -45 47 -68.5t54.5 -33t82.5 -12.5v-65h-617v65q83 1 113.5 16.5t30.5 53.5q0 40 -37 111l-63 117h-625zM996 471l-271 537l-248 -537h519zM833 1834
q50 0 90.5 -24t65.5 -66t25 -92q0 -76 -53.5 -128.5t-127.5 -52.5q-75 0 -128.5 53t-53.5 128q0 76 52.5 129t129.5 53zM833 1763q-46 0 -79 -32.5t-33 -78.5q0 -44 33 -77t79 -33q28 0 53.5 15t41.5 41t16 54q0 30 -16 56t-41.5 40.5t-53.5 14.5z" />
    <glyph glyph-name="Ccedilla" unicode="&#xc7;" horiz-adv-x="1556" 
d="M1446 387l63 -45q-206 -380 -640 -380q-182 0 -329.5 58t-250.5 159.5t-155.5 227.5t-52.5 258q0 194 106.5 358.5t291.5 261t404 96.5q88 0 158.5 -14.5t152 -38.5t102.5 -24q29 0 47.5 20.5t18.5 56.5h65l34 -452h-67q-30 81 -82.5 147t-113.5 111t-137 71t-152 26
q-148 0 -266 -77.5t-183 -218.5t-65 -317q0 -169 68.5 -302t193.5 -207.5t284 -74.5q315 0 505 300zM546 -442l17 69q21 -2 56 -2q167 0 167 95q0 76 -152 76l148 177h75l-42 -58q95 0 147.5 -43t52.5 -114q0 -96 -93.5 -152t-256.5 -56q-75 0 -119 8z" />
    <glyph glyph-name="Eacute" unicode="&#xc9;" horiz-adv-x="1429" 
d="M1240 1356v-314h-61q-42 123 -97 164.5t-153 41.5h-417v-480h361q97 0 138 40.5t41 146.5h67v-492h-67q0 115 -37.5 155.5t-141.5 40.5h-361v-419q0 -58 8 -84.5t31.5 -36.5t75.5 -10h306q104 0 171.5 29.5t115 88.5t98.5 164h65l-114 -391h-1240v65q84 0 127 16
t60.5 60.5t17.5 133.5v807q0 88 -17 133t-60 61t-128 16v64h1211zM594 1473l108 343h252l-287 -343h-73z" />
    <glyph glyph-name="Ntilde" unicode="&#xd1;" horiz-adv-x="1786" 
d="M1150 1356h583v-64h-64q-65 0 -101 -20.5t-52 -67t-16 -122.5v-1094h-39l-1061 1062v-775q0 -83 17 -128.5t58 -63.5t117 -18h61v-65h-603v65h77q88 0 129.5 43.5t41.5 143.5v896q-49 64 -113.5 101t-134.5 43v64h434l914 -925v673q0 98 -39 143t-130 45h-79v64z
M608 1510h-54q3 114 64 190.5t148 76.5q39 0 78 -15.5t94.5 -47t78 -41.5t53.5 -10q41 0 66.5 27.5t40.5 86.5h56q-13 -125 -70 -196t-140 -71q-35 0 -65.5 11.5t-88.5 42t-87 43t-57 12.5q-94 0 -117 -109z" />
    <glyph glyph-name="Odieresis" unicode="&#xd6;" horiz-adv-x="1661" 
d="M73 671q0 194 100.5 357.5t274 258t381.5 94.5t381.5 -94.5t274.5 -258t101 -357.5t-101 -357t-274.5 -257.5t-381.5 -94.5t-381.5 94.5t-274 257.5t-100.5 357zM387 671q0 -146 29 -258t86.5 -193t139 -121.5t187.5 -40.5q107 0 188 40.5t138 119.5t86.5 193t29.5 260
q0 194 -51.5 331t-152 209.5t-238.5 72.5q-140 0 -239.5 -72.5t-151 -209.5t-51.5 -331zM607 1754q45 0 76.5 -31.5t31.5 -78.5q0 -44 -32 -77t-76 -33t-77.5 33.5t-33.5 76.5q0 46 33 78t78 32zM1058 1754q46 0 77.5 -31.5t31.5 -78.5q0 -44 -32 -77t-77 -33
q-43 0 -76.5 33.5t-33.5 76.5q0 46 33 78t77 32z" />
    <glyph glyph-name="Udieresis" unicode="&#xdc;" horiz-adv-x="1786" 
d="M38 1356h754v-64h-46q-78 0 -120 -18t-59 -63.5t-17 -128.5v-601q0 -127 57 -215.5t151.5 -131t206.5 -42.5q195 0 326.5 111.5t131.5 296.5v604q0 103 -43 145.5t-128 42.5h-54v64h548v-64h-31q-77 0 -117 -18t-57.5 -63.5t-17.5 -128.5v-570q0 -184 -84.5 -308
t-225.5 -183t-306 -59q-173 0 -319 55.5t-231 167.5t-85 267v654q0 98 -41 142t-139 44h-54v64zM709 1754q45 0 76.5 -31.5t31.5 -78.5q0 -44 -32 -77t-76 -33t-77.5 33.5t-33.5 76.5q0 46 33 78t78 32zM1160 1754q46 0 77.5 -31.5t31.5 -78.5q0 -44 -32 -77t-77 -33
q-43 0 -76.5 33.5t-33.5 76.5q0 46 33 78t77 32z" />
    <glyph glyph-name="aacute" unicode="&#xe1;" horiz-adv-x="1070" 
d="M1002 185l34 -46q-48 -79 -122.5 -128t-144.5 -49q-65 0 -110.5 37t-45.5 105q0 9 2 27q-194 -169 -323 -169q-66 0 -117.5 31t-80.5 87.5t-29 127.5q0 83 37.5 142.5t111.5 103.5t199 86l202 66v130q0 81 -32 114t-110 33q-141 0 -141 -105q0 -8 0.5 -13.5t0.5 -14.5
q0 -53 -26.5 -85t-77.5 -32q-44 0 -74 28t-30 72q0 67 47 119.5t132 81.5t190 29q106 0 188.5 -25.5t129 -77.5t46.5 -127v-533q0 -85 45 -85t99 70zM615 522q-166 -48 -243.5 -102t-77.5 -134q0 -61 38 -106t89 -45q40 0 98 29t96 68v290zM415 1093l108 343h252l-287 -343
h-73z" />
    <glyph glyph-name="agrave" unicode="&#xe0;" horiz-adv-x="1070" 
d="M1002 185l34 -46q-48 -79 -122.5 -128t-144.5 -49q-65 0 -110.5 37t-45.5 105q0 9 2 27q-194 -169 -323 -169q-66 0 -117.5 31t-80.5 87.5t-29 127.5q0 83 37.5 142.5t111.5 103.5t199 86l202 66v130q0 81 -32 114t-110 33q-141 0 -141 -105q0 -8 0.5 -13.5t0.5 -14.5
q0 -53 -26.5 -85t-77.5 -32q-44 0 -74 28t-30 72q0 67 47 119.5t132 81.5t190 29q106 0 188.5 -25.5t129 -77.5t46.5 -127v-533q0 -85 45 -85t99 70zM615 522q-166 -48 -243.5 -102t-77.5 -134q0 -61 38 -106t89 -45q40 0 98 29t96 68v290zM656 1093h-73l-287 343h252z" />
    <glyph glyph-name="acircumflex" unicode="&#xe2;" horiz-adv-x="1070" 
d="M1002 185l34 -46q-48 -79 -122.5 -128t-144.5 -49q-65 0 -110.5 37t-45.5 105q0 9 2 27q-194 -169 -323 -169q-66 0 -117.5 31t-80.5 87.5t-29 127.5q0 83 37.5 142.5t111.5 103.5t199 86l202 66v130q0 81 -32 114t-110 33q-141 0 -141 -105q0 -8 0.5 -13.5t0.5 -14.5
q0 -53 -26.5 -85t-77.5 -32q-44 0 -74 28t-30 72q0 67 47 119.5t132 81.5t190 29q106 0 188.5 -25.5t129 -77.5t46.5 -127v-533q0 -85 45 -85t99 70zM615 522q-166 -48 -243.5 -102t-77.5 -134q0 -61 38 -106t89 -45q40 0 98 29t96 68v290zM307 1075h-61l177 377h229
l173 -377h-52l-240 218z" />
    <glyph glyph-name="adieresis" unicode="&#xe4;" horiz-adv-x="1070" 
d="M1002 185l34 -46q-48 -79 -122.5 -128t-144.5 -49q-65 0 -110.5 37t-45.5 105q0 9 2 27q-194 -169 -323 -169q-66 0 -117.5 31t-80.5 87.5t-29 127.5q0 83 37.5 142.5t111.5 103.5t199 86l202 66v130q0 81 -32 114t-110 33q-141 0 -141 -105q0 -8 0.5 -13.5t0.5 -14.5
q0 -53 -26.5 -85t-77.5 -32q-44 0 -74 28t-30 72q0 67 47 119.5t132 81.5t190 29q106 0 188.5 -25.5t129 -77.5t46.5 -127v-533q0 -85 45 -85t99 70zM615 522q-166 -48 -243.5 -102t-77.5 -134q0 -61 38 -106t89 -45q40 0 98 29t96 68v290zM311 1374q45 0 76.5 -31.5
t31.5 -78.5q0 -44 -32 -77t-76 -33t-77.5 33.5t-33.5 76.5q0 46 33 78t78 32zM762 1374q46 0 77.5 -31.5t31.5 -78.5q0 -44 -32 -77t-77 -33q-43 0 -76.5 33.5t-33.5 76.5q0 46 33 78t77 32z" />
    <glyph glyph-name="atilde" unicode="&#xe3;" horiz-adv-x="1070" 
d="M1002 185l34 -46q-48 -79 -122.5 -128t-144.5 -49q-65 0 -110.5 37t-45.5 105q0 9 2 27q-194 -169 -323 -169q-66 0 -117.5 31t-80.5 87.5t-29 127.5q0 83 37.5 142.5t111.5 103.5t199 86l202 66v130q0 81 -32 114t-110 33q-141 0 -141 -105q0 -8 0.5 -13.5t0.5 -14.5
q0 -53 -26.5 -85t-77.5 -32q-44 0 -74 28t-30 72q0 67 47 119.5t132 81.5t190 29q106 0 188.5 -25.5t129 -77.5t46.5 -127v-533q0 -85 45 -85t99 70zM615 522q-166 -48 -243.5 -102t-77.5 -134q0 -61 38 -106t89 -45q40 0 98 29t96 68v290zM250 1130h-54q3 114 64 190.5
t148 76.5q39 0 78 -15.5t94.5 -47t78 -41.5t53.5 -10q41 0 66.5 27.5t40.5 86.5h56q-13 -125 -70 -196t-140 -71q-35 0 -65.5 11.5t-88.5 42t-87 43t-57 12.5q-94 0 -117 -109z" />
    <glyph glyph-name="aring" unicode="&#xe5;" horiz-adv-x="1070" 
d="M1002 185l34 -46q-48 -79 -122.5 -128t-144.5 -49q-65 0 -110.5 37t-45.5 105q0 9 2 27q-194 -169 -323 -169q-66 0 -117.5 31t-80.5 87.5t-29 127.5q0 83 37.5 142.5t111.5 103.5t199 86l202 66v130q0 81 -32 114t-110 33q-141 0 -141 -105q0 -8 0.5 -13.5t0.5 -14.5
q0 -53 -26.5 -85t-77.5 -32q-44 0 -74 28t-30 72q0 67 47 119.5t132 81.5t190 29q106 0 188.5 -25.5t129 -77.5t46.5 -127v-533q0 -85 45 -85t99 70zM615 522q-166 -48 -243.5 -102t-77.5 -134q0 -61 38 -106t89 -45q40 0 98 29t96 68v290zM536 1454q50 0 90.5 -24t65.5 -66
t25 -92q0 -76 -53.5 -128.5t-127.5 -52.5q-75 0 -128.5 53t-53.5 128q0 76 52.5 129t129.5 53zM536 1383q-46 0 -79 -32.5t-33 -78.5q0 -44 33 -77t79 -33q28 0 53.5 15t41.5 41t16 54q0 30 -16 56t-41.5 40.5t-53.5 14.5z" />
    <glyph glyph-name="ccedilla" unicode="&#xe7;" horiz-adv-x="946" 
d="M860 308l40 -38q-35 -92 -99 -162t-145.5 -108t-167.5 -38q-92 0 -171.5 35t-140 102.5t-92.5 155.5t-32 189q0 148 63 267.5t174 185.5t253 66q70 0 130 -15t102 -40t66.5 -62t24.5 -80q0 -53 -37.5 -86.5t-96.5 -33.5q-60 0 -84 29t-40 86t-37 85.5t-80 28.5
q-67 0 -116 -37t-76.5 -106t-27.5 -157q0 -114 43.5 -206t119.5 -145t171 -53q145 0 256 137zM238 -445l17 69q21 -2 56 -2q167 0 167 95q0 76 -152 76l148 177h75l-42 -58q95 0 147.5 -43t52.5 -114q0 -96 -93.5 -152t-256.5 -56q-75 0 -119 8z" />
    <glyph glyph-name="eacute" unicode="&#xe9;" horiz-adv-x="946" 
d="M852 342l51 -28q-51 -155 -162 -253.5t-260 -98.5q-123 0 -220 64t-151 178.5t-54 258.5q0 252 132.5 376t309.5 124q110 0 200 -47.5t141.5 -130.5t51.5 -185v-60h-616q9 -163 96.5 -264t216.5 -101q80 0 152.5 47t111.5 120zM275 643h354q3 20 3 39q0 82 -48.5 137.5
t-120.5 55.5q-51 0 -91.5 -29t-67 -82.5t-29.5 -120.5zM352 1093l108 343h252l-287 -343h-73z" />
    <glyph glyph-name="egrave" unicode="&#xe8;" horiz-adv-x="946" 
d="M852 342l51 -28q-51 -155 -162 -253.5t-260 -98.5q-123 0 -220 64t-151 178.5t-54 258.5q0 252 132.5 376t309.5 124q110 0 200 -47.5t141.5 -130.5t51.5 -185v-60h-616q9 -163 96.5 -264t216.5 -101q80 0 152.5 47t111.5 120zM275 643h354q3 20 3 39q0 82 -48.5 137.5
t-120.5 55.5q-51 0 -91.5 -29t-67 -82.5t-29.5 -120.5zM623 1093h-73l-287 343h252z" />
    <glyph glyph-name="ecircumflex" unicode="&#xea;" horiz-adv-x="946" 
d="M852 342l51 -28q-51 -155 -162 -253.5t-260 -98.5q-123 0 -220 64t-151 178.5t-54 258.5q0 252 132.5 376t309.5 124q110 0 200 -47.5t141.5 -130.5t51.5 -185v-60h-616q9 -163 96.5 -264t216.5 -101q80 0 152.5 47t111.5 120zM275 643h354q3 20 3 39q0 82 -48.5 137.5
t-120.5 55.5q-51 0 -91.5 -29t-67 -82.5t-29.5 -120.5zM244 1075h-61l177 377h229l173 -377h-52l-240 218z" />
    <glyph glyph-name="edieresis" unicode="&#xeb;" horiz-adv-x="946" 
d="M852 342l51 -28q-51 -155 -162 -253.5t-260 -98.5q-123 0 -220 64t-151 178.5t-54 258.5q0 252 132.5 376t309.5 124q110 0 200 -47.5t141.5 -130.5t51.5 -185v-60h-616q9 -163 96.5 -264t216.5 -101q80 0 152.5 47t111.5 120zM275 643h354q3 20 3 39q0 82 -48.5 137.5
t-120.5 55.5q-51 0 -91.5 -29t-67 -82.5t-29.5 -120.5zM248 1374q45 0 76.5 -31.5t31.5 -78.5q0 -44 -32 -77t-76 -33t-77.5 33.5t-33.5 76.5q0 46 33 78t78 32zM699 1374q46 0 77.5 -31.5t31.5 -78.5q0 -44 -32 -77t-77 -33q-43 0 -76.5 33.5t-33.5 76.5q0 46 33 78t77 32z
" />
    <glyph glyph-name="iacute" unicode="&#xed;" horiz-adv-x="588" 
d="M548 0h-523v65q11 -1 31 -1q45 0 70.5 13t35 44t9.5 89v463q0 161 -90 161q-22 0 -43 -7l-13 64l304 72h86v-753q0 -64 11.5 -94t38.5 -40.5t83 -10.5v-65zM176 1093l108 343h252l-287 -343h-73z" />
    <glyph glyph-name="igrave" unicode="&#xec;" horiz-adv-x="588" 
d="M548 0h-523v65q11 -1 31 -1q45 0 70.5 13t35 44t9.5 89v463q0 161 -90 161q-22 0 -43 -7l-13 64l304 72h86v-753q0 -64 11.5 -94t38.5 -40.5t83 -10.5v-65zM417 1093h-73l-287 343h252z" />
    <glyph glyph-name="icircumflex" unicode="&#xee;" horiz-adv-x="588" 
d="M548 0h-523v65q11 -1 31 -1q45 0 70.5 13t35 44t9.5 89v463q0 161 -90 161q-22 0 -43 -7l-13 64l304 72h86v-753q0 -64 11.5 -94t38.5 -40.5t83 -10.5v-65zM68 1075h-61l177 377h229l173 -377h-52l-240 218z" />
    <glyph glyph-name="idieresis" unicode="&#xef;" horiz-adv-x="588" 
d="M548 0h-523v65q11 -1 31 -1q45 0 70.5 13t35 44t9.5 89v463q0 161 -90 161q-22 0 -43 -7l-13 64l304 72h86v-753q0 -64 11.5 -94t38.5 -40.5t83 -10.5v-65zM72 1374q45 0 76.5 -31.5t31.5 -78.5q0 -44 -32 -77t-76 -33t-77.5 33.5t-33.5 76.5q0 46 33 78t78 32zM523 1374
q46 0 77.5 -31.5t31.5 -78.5q0 -44 -32 -77t-77 -33q-43 0 -76.5 33.5t-33.5 76.5q0 46 33 78t77 32z" />
    <glyph glyph-name="ntilde" unicode="&#xf1;" horiz-adv-x="1199" 
d="M419 963v-140q156 140 319 140q70 0 135 -30t106.5 -101t41.5 -186v-436q0 -92 26.5 -118.5t102.5 -26.5v-65h-497v65q51 0 76.5 10t37 41.5t11.5 93.5v409q0 185 -145 185q-48 0 -105 -23.5t-109 -67.5v-503q0 -67 12 -97t42 -39t89 -9v-65h-514v65q54 0 80.5 11.5
t36.5 40.5t10 93v449q0 104 -24 136.5t-80 32.5q-8 0 -12.5 -0.5t-10.5 -0.5v64l287 72h84zM314 1130h-54q3 114 64 190.5t148 76.5q39 0 78 -15.5t94.5 -47t78 -41.5t53.5 -10q41 0 66.5 27.5t40.5 86.5h56q-13 -125 -70 -196t-140 -71q-35 0 -65.5 11.5t-88.5 42t-87 43
t-57 12.5q-94 0 -117 -109z" />
    <glyph glyph-name="oacute" unicode="&#xf3;" horiz-adv-x="1199" 
d="M1121 469q0 -141 -71 -257t-196 -183t-275 -67q-216 0 -358 140.5t-142 351.5q0 110 39.5 202t114 162.5t171.5 107.5t209 37q110 0 202.5 -36t161 -103t106.5 -158.5t38 -196.5zM858 369q0 157 -34 271.5t-99.5 174.5t-155.5 60q-111 0 -170 -88t-59 -249
q0 -196 72.5 -342t222.5 -146q111 0 167 82t56 237zM479 1093l108 343h252l-287 -343h-73z" />
    <glyph glyph-name="ograve" unicode="&#xf2;" horiz-adv-x="1199" 
d="M1121 469q0 -141 -71 -257t-196 -183t-275 -67q-216 0 -358 140.5t-142 351.5q0 110 39.5 202t114 162.5t171.5 107.5t209 37q110 0 202.5 -36t161 -103t106.5 -158.5t38 -196.5zM858 369q0 157 -34 271.5t-99.5 174.5t-155.5 60q-111 0 -170 -88t-59 -249
q0 -196 72.5 -342t222.5 -146q111 0 167 82t56 237zM721 1093h-73l-287 343h252z" />
    <glyph glyph-name="ocircumflex" unicode="&#xf4;" horiz-adv-x="1199" 
d="M1121 469q0 -141 -71 -257t-196 -183t-275 -67q-216 0 -358 140.5t-142 351.5q0 110 39.5 202t114 162.5t171.5 107.5t209 37q110 0 202.5 -36t161 -103t106.5 -158.5t38 -196.5zM858 369q0 157 -34 271.5t-99.5 174.5t-155.5 60q-111 0 -170 -88t-59 -249
q0 -196 72.5 -342t222.5 -146q111 0 167 82t56 237zM371 1075h-61l177 377h229l173 -377h-52l-240 218z" />
    <glyph glyph-name="odieresis" unicode="&#xf6;" horiz-adv-x="1199" 
d="M1121 469q0 -141 -71 -257t-196 -183t-275 -67q-216 0 -358 140.5t-142 351.5q0 110 39.5 202t114 162.5t171.5 107.5t209 37q110 0 202.5 -36t161 -103t106.5 -158.5t38 -196.5zM858 369q0 157 -34 271.5t-99.5 174.5t-155.5 60q-111 0 -170 -88t-59 -249
q0 -196 72.5 -342t222.5 -146q111 0 167 82t56 237zM375 1374q45 0 76.5 -31.5t31.5 -78.5q0 -44 -32 -77t-76 -33t-77.5 33.5t-33.5 76.5q0 46 33 78t78 32zM826 1374q46 0 77.5 -31.5t31.5 -78.5q0 -44 -32 -77t-77 -33q-43 0 -76.5 33.5t-33.5 76.5q0 46 33 78t77 32z
" />
    <glyph glyph-name="otilde" unicode="&#xf5;" horiz-adv-x="1199" 
d="M1121 469q0 -141 -71 -257t-196 -183t-275 -67q-216 0 -358 140.5t-142 351.5q0 110 39.5 202t114 162.5t171.5 107.5t209 37q110 0 202.5 -36t161 -103t106.5 -158.5t38 -196.5zM858 369q0 157 -34 271.5t-99.5 174.5t-155.5 60q-111 0 -170 -88t-59 -249
q0 -196 72.5 -342t222.5 -146q111 0 167 82t56 237zM314 1130h-54q3 114 64 190.5t148 76.5q39 0 78 -15.5t94.5 -47t78 -41.5t53.5 -10q41 0 66.5 27.5t40.5 86.5h56q-13 -125 -70 -196t-140 -71q-35 0 -65.5 11.5t-88.5 42t-87 43t-57 12.5q-94 0 -117 -109z" />
    <glyph glyph-name="uacute" unicode="&#xfa;" horiz-adv-x="1199" 
d="M1030 923v-689q0 -119 66 -119q22 0 67 12v-65l-296 -100h-81v140q-76 -67 -159 -103.5t-160 -36.5q-122 0 -203 78.5t-81 219.5v455q0 80 -21 111.5t-75 31.5v65h340v-615q0 -91 34 -139t116 -48q45 0 103.5 24.5t105.5 64.5v505q0 87 -24.5 115.5t-93.5 28.5
q-23 0 -37 -1v65h399zM479 1093l108 343h252l-287 -343h-73z" />
    <glyph glyph-name="ugrave" unicode="&#xf9;" horiz-adv-x="1199" 
d="M1030 923v-689q0 -119 66 -119q22 0 67 12v-65l-296 -100h-81v140q-76 -67 -159 -103.5t-160 -36.5q-122 0 -203 78.5t-81 219.5v455q0 80 -21 111.5t-75 31.5v65h340v-615q0 -91 34 -139t116 -48q45 0 103.5 24.5t105.5 64.5v505q0 87 -24.5 115.5t-93.5 28.5
q-23 0 -37 -1v65h399zM721 1093h-73l-287 343h252z" />
    <glyph glyph-name="ucircumflex" unicode="&#xfb;" horiz-adv-x="1199" 
d="M1030 923v-689q0 -119 66 -119q22 0 67 12v-65l-296 -100h-81v140q-76 -67 -159 -103.5t-160 -36.5q-122 0 -203 78.5t-81 219.5v455q0 80 -21 111.5t-75 31.5v65h340v-615q0 -91 34 -139t116 -48q45 0 103.5 24.5t105.5 64.5v505q0 87 -24.5 115.5t-93.5 28.5
q-23 0 -37 -1v65h399zM371 1075h-61l177 377h229l173 -377h-52l-240 218z" />
    <glyph glyph-name="udieresis" unicode="&#xfc;" horiz-adv-x="1199" 
d="M1030 923v-689q0 -119 66 -119q22 0 67 12v-65l-296 -100h-81v140q-76 -67 -159 -103.5t-160 -36.5q-122 0 -203 78.5t-81 219.5v455q0 80 -21 111.5t-75 31.5v65h340v-615q0 -91 34 -139t116 -48q45 0 103.5 24.5t105.5 64.5v505q0 87 -24.5 115.5t-93.5 28.5
q-23 0 -37 -1v65h399zM375 1374q45 0 76.5 -31.5t31.5 -78.5q0 -44 -32 -77t-76 -33t-77.5 33.5t-33.5 76.5q0 46 33 78t78 32zM826 1374q46 0 77.5 -31.5t31.5 -78.5q0 -44 -32 -77t-77 -33q-43 0 -76.5 33.5t-33.5 76.5q0 46 33 78t77 32z" />
    <glyph glyph-name="dagger" unicode="&#x2020;" horiz-adv-x="1070" 
d="M504 -429v24q0 217 -12 395.5t-31 300.5t-41 202.5t-45 121.5q115 88 121 203q-46 0 -87.5 -13.5t-96.5 -39t-80.5 -36t-58.5 -10.5q-56 0 -89.5 36t-33.5 97q0 59 33 97.5t82 38.5q33 0 65 -12.5t81 -35t93.5 -36t91.5 -13.5q0 50 -15 94t-34 81t-39.5 84.5t-20.5 84.5
q0 68 39.5 107t107.5 39t107.5 -38.5t39.5 -105.5q0 -39 -13 -72.5t-41 -88.5t-41 -93.5t-13 -91.5q62 0 98 13t115 48.5t114 35.5q53 0 85 -38t32 -98t-33.5 -96.5t-89.5 -36.5q-32 0 -53 8.5t-79 35.5t-100.5 41t-88.5 14q6 -114 118 -203q-23 -51 -44 -131.5t-39.5 -196
t-31 -296t-12.5 -396.5v-24h-60z" />
    <glyph glyph-name="degree" unicode="&#xb0;" horiz-adv-x="806" 
d="M403 1269q-75 0 -129.5 -53t-54.5 -130q0 -75 55 -129t129 -54q76 0 129.5 54t53.5 129q0 51 -24.5 92.5t-66 66t-92.5 24.5zM403 1381q79 0 147.5 -40t108 -107t39.5 -148q0 -80 -39.5 -147t-108 -107t-147.5 -40t-147 39.5t-107.5 107.5t-39.5 147q0 80 39.5 148
t107.5 107.5t147 39.5z" />
    <glyph glyph-name="cent" unicode="&#xa2;" horiz-adv-x="946" 
d="M177 -389l119 397q-118 60 -181 172.5t-63 263.5q0 146 62 266t174 186.5t250 66.5h41l110 379h86l-114 -390q92 -20 148 -71t56 -115q0 -53 -37.5 -86.5t-96.5 -33.5q-101 0 -123 118h-4l-158 -547q48 -26 81.5 -36t74.5 -10q147 0 258 137l40 -38q-35 -92 -99 -162
t-145.5 -108t-167.5 -38q-54 0 -113 15l-109 -366h-89zM375 277l173 586q-25 12 -56 12q-100 0 -161 -82t-61 -218q0 -175 105 -298z" />
    <glyph glyph-name="sterling" unicode="&#xa3;" horiz-adv-x="1070" 
d="M806 769v-130h-256q4 -20 4 -55q0 -63 -16.5 -155.5t-35.5 -138.5q39 -15 89.5 -35t104 -32.5t116.5 -12.5q83 0 127 32t57 100h60q-3 -79 -25.5 -151.5t-62 -123.5t-91 -78t-111.5 -27q-52 0 -96 13.5t-96.5 48t-136.5 105.5q-29 -53 -65 -90.5t-77 -57t-81 -19.5
q-65 0 -109.5 49.5t-44.5 123.5q0 92 57.5 149.5t150.5 57.5q37 0 76 -11q-3 44 -10 85t-25 119.5t-21 103.5h-175v130h159v118q0 144 53.5 257t148.5 175t213 62q129 0 206.5 -59t77.5 -153q0 -53 -31 -85t-82 -32q-60 0 -89 46.5t-29 114.5q0 87 -79 87q-65 0 -104 -59.5
t-39 -158.5q0 -39 3.5 -73t14.5 -115.5t14 -124.5h256zM335 208q-48 38 -93 38t-76 -32t-31 -79q0 -39 24.5 -65t57.5 -26q49 0 80.5 45t37.5 119z" />
    <glyph glyph-name="section" unicode="&#xa7;" horiz-adv-x="840" 
d="M379 992q26 -27 126 -102.5t150 -125.5q77 -77 107 -159t30 -147q0 -62 -24 -126t-67.5 -117t-100.5 -86q115 -121 115 -256q0 -79 -34.5 -147.5t-106.5 -111.5t-173 -43q-128 0 -208 59t-80 155q0 49 31 82t79 33q45 0 73.5 -26.5t28.5 -67.5q0 -18 -8.5 -48t-8.5 -42
q0 -31 31.5 -51.5t75.5 -20.5q59 0 97 43t38 111q0 44 -13.5 77t-59.5 79q-16 16 -61 51t-102.5 80t-83.5 67t-63 58q-119 119 -119 269q0 104 52.5 193t147.5 149q-43 46 -71.5 90t-41 86t-12.5 91q0 62 23.5 117t67 94t103 60.5t133.5 21.5q82 0 146 -28t99.5 -77.5
t35.5 -110.5q0 -53 -30 -86t-78 -33q-45 0 -77 29.5t-32 68.5q0 19 11 53t11 47q0 28 -25 45t-67 17q-66 0 -109 -40.5t-43 -102.5q0 -29 8 -56t25 -53t54 -62zM564 548q-18 18 -54 48t-105 85t-103 83q-104 -71 -104 -183q0 -92 88 -180q24 -24 63.5 -56.5t82.5 -67
t108 -85.5q51 34 82 81.5t31 95.5q0 90 -89 179z" />
    <glyph glyph-name="bullet" unicode="&#x2022;" horiz-adv-x="706" 
d="M352 898q63 0 115.5 -30.5t83 -82t30.5 -114.5t-30 -115t-82.5 -83t-116.5 -31t-115.5 31t-82.5 82.5t-31 115.5t31 115.5t83 81.5t115 30z" />
    <glyph glyph-name="paragraph" unicode="&#xb6;" horiz-adv-x="1088" 
d="M1054 1356v-38h-42q-58 0 -82.5 -19t-30 -58.5t-5.5 -130.5v-1539h-71v1729h-192v-1729h-75v1013q-135 6 -226 31t-149 76q-59 54 -86.5 130.5t-27.5 151.5q0 107 51 195.5t155 138t253 49.5h528z" />
    <glyph glyph-name="germandbls" unicode="&#xdf;" horiz-adv-x="1199" 
d="M592 740v83q98 7 137.5 55t39.5 156q0 118 -46.5 184t-134.5 66q-86 0 -123.5 -50t-37.5 -159v-865q0 -49 8.5 -81t26.5 -46.5t50 -17.5v-65h-450v65q49 0 75 11.5t36 42t10 91.5v727q0 150 58.5 250t158 147t223.5 47q115 0 209.5 -40.5t147 -113t52.5 -159.5
q0 -85 -53.5 -147t-160.5 -96v-4q95 -15 163 -67t103 -135.5t35 -193.5q0 -93 -25.5 -172t-72 -139.5t-109.5 -95t-132 -34.5q-56 0 -106 25.5t-79 70t-29 93.5q0 41 23.5 67t58.5 26q28 0 46.5 -11.5t28.5 -32.5t10 -53q0 -10 -0.5 -17.5t-1.5 -16.5q0 -54 51 -54
q91 0 91 201q0 430 -281 458z" />
    <glyph glyph-name="registered" unicode="&#xae;" horiz-adv-x="1506" 
d="M369 1078h437q87 0 152 -27t101.5 -76.5t36.5 -118.5q0 -77 -46 -130.5t-135 -79.5l139 -253q29 -52 51.5 -73.5t53.5 -27.5v-34h-244l-208 375h-48v-202q0 -60 9.5 -88t36.5 -39t77 -12v-34h-430v34q64 0 86 28t22 111v478q0 81 -16.5 105t-74.5 30v34zM659 683
q36 -4 56 -4q33 0 71 17.5t65.5 58.5t27.5 105q0 174 -181 174h-39v-351zM754 1381q194 0 359 -96.5t261.5 -262t96.5 -359.5q0 -196 -96.5 -360.5t-262 -260.5t-358.5 -96q-195 0 -360.5 96t-261.5 261t-96 360q0 193 96 359t261 262.5t361 96.5zM754 32q127 0 242.5 49.5
t202 136t135.5 201.5t49 242t-49.5 242.5t-135.5 202t-201.5 135.5t-242.5 49t-242 -48.5t-202 -135.5t-136 -202.5t-49 -242.5t48.5 -242t136 -202t202.5 -136t242 -49z" />
    <glyph glyph-name="copyright" unicode="&#xa9;" horiz-adv-x="1506" 
d="M1092 1094v-267h-38q-13 65 -47.5 115.5t-86 77t-116.5 26.5q-83 0 -141.5 -43.5t-89.5 -127t-31 -198.5q0 -103 19.5 -179.5t67.5 -124.5q73 -73 171 -73q150 0 264 137v-70q-123 -129 -322 -129q-124 0 -222 52.5t-152 147t-54 213.5q0 127 57.5 229t160.5 159t230 57
q46 0 84 -7.5t73 -19t56 -18.5t33 -7q40 0 46 50h38zM754 1381q194 0 359 -96.5t261.5 -262t96.5 -359.5q0 -196 -96.5 -360.5t-262 -260.5t-358.5 -96q-195 0 -360.5 96t-261.5 261t-96 360q0 193 96 359t261 262.5t361 96.5zM754 32q127 0 242.5 49.5t202 136t135.5 201.5
t49 242t-49.5 242.5t-135.5 202t-201.5 135.5t-242.5 49t-242 -48.5t-202 -135.5t-136 -202.5t-49 -242.5t48.5 -242t136 -202t202.5 -136t242 -49z" />
    <glyph glyph-name="trademark" unicode="&#x2122;" horiz-adv-x="2015" 
d="M165 1356h641l10 -181h-30q-9 75 -44.5 104t-120.5 29h-48v-496q0 -70 16.5 -90.5t71.5 -21.5v-31h-353v31q44 3 61 10t21.5 27t4.5 75v496h-47q-79 0 -115 -29t-48 -104h-28zM891 1356h280l213 -456l210 456h266v-32q-58 0 -74.5 -21t-16.5 -94v-397q0 -68 16.5 -88.5
t74.5 -23.5v-31h-366v31q65 2 82.5 21t17.5 91v419h-4l-262 -562h-24l-264 562h-4v-419q0 -53 8 -76.5t28 -29.5t68 -6v-31h-249v31q45 2 63.5 9t24.5 29t6 74v397q0 73 -16 94t-78 21v32z" />
    <glyph glyph-name="acute" unicode="&#xb4;" horiz-adv-x="671" 
d="M215 1096l108 343h252l-287 -343h-73z" />
    <glyph glyph-name="dieresis" unicode="&#xa8;" horiz-adv-x="671" 
d="M111 1377q45 0 76.5 -31.5t31.5 -78.5q0 -44 -32 -77t-76 -33t-77.5 33.5t-33.5 76.5q0 46 33 78t78 32zM562 1377q46 0 77.5 -31.5t31.5 -78.5q0 -44 -32 -77t-77 -33q-43 0 -76.5 33.5t-33.5 76.5q0 46 33 78t77 32z" />
    <glyph glyph-name="notequal" unicode="&#x2260;" horiz-adv-x="1106" 
d="M1070 284h-593l-160 -284h-109l163 284h-335v95h387l156 274h-543v95h595l161 286h106l-160 -286h332v-95h-385l-153 -274h538v-95z" />
    <glyph glyph-name="AE" unicode="&#xc6;" horiz-adv-x="2144" 
d="M2027 383h67l-117 -383h-1217v65h65q97 0 138 43t41 142v268h-452l-149 -240q-55 -88 -55 -121q0 -47 43 -69.5t129 -22.5v-65h-484v65q67 12 131.5 76.5t151.5 202.5l513 825q22 35 22 64q0 59 -94 59h-75v64h1265v-314h-62q-33 89 -64 130.5t-81.5 58.5t-138.5 17h-322
v-480h294q110 0 146.5 42.5t36.5 144.5h66v-492h-66q0 117 -36.5 156.5t-132.5 39.5h-308v-427q0 -53 8 -79.5t32 -35t76 -8.5h196q96 0 159.5 11.5t110.5 40.5t86.5 83.5t76.5 138.5zM1004 627v621h-4l-379 -621h383z" />
    <glyph glyph-name="Oslash" unicode="&#xd8;" horiz-adv-x="1661" 
d="M1201 1044l-701 -821q116 -165 329 -165q107 0 188 40.5t138 119.5t86.5 193t29.5 260q0 233 -70 373zM73 671q0 194 100.5 357.5t274 258t381.5 94.5q116 0 233.5 -34t198.5 -91l108 125l70 -61l-103 -121q78 -62 133 -146t86 -184t31 -198q0 -194 -101 -357
t-274.5 -257.5t-381.5 -94.5q-82 0 -162.5 16t-154 46.5t-125.5 67.5l-112 -130l-71 63l108 127q-117 104 -178 237t-61 282zM452 312l698 817q-49 70 -131.5 112.5t-189.5 42.5q-140 0 -239.5 -72.5t-151 -209.5t-51.5 -331q0 -218 65 -359z" />
    <glyph glyph-name="infinity" unicode="&#x221e;" horiz-adv-x="1437" 
d="M1384 518q0 -183 -113 -303q-49 -52 -109.5 -81.5t-121.5 -29.5q-59 0 -110 25t-100 79t-97 136l-24 43q-43 -82 -88.5 -132.5t-101.5 -74t-128 -23.5q-99 0 -175 46.5t-120 130t-44 186.5q0 100 40 183t109 130.5t153 47.5q110 0 180 -67q53 -53 109 -157q47 107 93 164
q94 108 272 108q70 0 125.5 -19t108.5 -64q142 -122 142 -328zM1328 518q0 88 -37 166.5t-102 123t-139 44.5q-102 0 -169 -83q-29 -35 -54 -90t-77 -193l-12 -28q48 -100 91.5 -154.5t96 -80t118.5 -25.5q82 0 147 40.5t101 113.5t36 166zM615 581q-37 78 -73.5 122.5
t-83.5 66.5t-106 22q-73 0 -128 -34.5t-86 -95.5t-31 -140q0 -78 30 -145t82 -105t114 -38q59 0 113 36t82 91q39 76 76 187z" />
    <glyph glyph-name="plusminus" unicode="&#xb1;" horiz-adv-x="1344" 
d="M129 990h452v451h181v-451h451v-182h-451v-452h-181v452h-452v182zM129 181h1084v-181h-1084v181z" />
    <glyph glyph-name="lessequal" unicode="&#x2264;" horiz-adv-x="1106" 
d="M1048 217l-990 490v51l990 494v-110l-829 -409l829 -410v-106zM1048 0h-990v94h990v-94z" />
    <glyph glyph-name="greaterequal" unicode="&#x2265;" horiz-adv-x="1106" 
d="M1048 711l-990 -494v110l829 409l-829 410v106l990 -490v-51zM1048 0h-990v94h990v-94z" />
    <glyph glyph-name="yen" unicode="&#xa5;" horiz-adv-x="1659" 
d="M1437 338h-498v-63q0 -82 17 -127t56 -64t111 -19h58v-65h-758v65h65q94 0 133.5 45.5t39.5 147.5v80h-498v101h498v142l-26 32h-472v100h395l-302 404q-70 91 -99 123t-52.5 42t-70.5 10v64h639v-64q-69 0 -99 -13t-30 -46q0 -24 40 -85l319 -435l274 353l26 40
q57 85 57 117q0 36 -31 52.5t-120 16.5h-27v64h541v-64q-88 -2 -145 -34t-116 -110l-330 -435h405v-100h-480l-18 -21v-153h498v-101z" />
    <glyph glyph-name="uni00B5" unicode="&#xb5;" horiz-adv-x="1121" 
d="M52 931h244v-677q0 -154 141 -154q65 0 116.5 22.5t123.5 106.5v702h221v-685q0 -70 9.5 -96.5t40.5 -26.5q38 0 51.5 31.5t21.5 113.5h47q0 -142 -59 -220.5t-161 -78.5q-71 0 -118 46t-53 126h-4q-48 -75 -122 -123.5t-203 -48.5q-56 0 -116.5 24t-86.5 51
q0 -75 9 -123t26.5 -117.5t17.5 -103.5q0 -129 -104 -129q-46 0 -73 34t-27 97q0 27 17.5 97t29 149t11.5 197v786z" />
    <glyph glyph-name="partialdiff" unicode="&#x2202;" horiz-adv-x="996" 
d="M979 905q0 -137 -27.5 -276t-80 -259.5t-125.5 -215.5q-141 -185 -349 -185q-152 0 -242 90.5t-90 240.5q0 155 75 292t200 218.5t266 81.5q104 0 186 -50q43 -26 71 -56.5t50 -79.5h4q10 144 10 183q0 115 -41 198.5t-118 128t-182 44.5q-98 0 -168.5 -37t-127.5 -121
h-44q34 73 60.5 114.5t62.5 77.5q48 50 115 78t135 28q46 0 92.5 -13t86.5 -39t69 -58q112 -128 112 -385zM896 619q-35 103 -109 162t-170 59q-80 0 -155 -48t-120 -125q-32 -56 -58.5 -130t-40.5 -144t-14 -133q0 -106 53 -169.5t141 -63.5q71 0 149.5 48.5t144.5 134.5
q69 91 110.5 185t68.5 224z" />
    <glyph glyph-name="summation" unicode="&#x2211;" horiz-adv-x="1437" 
d="M1396 209l-62 -410h-1292v37l660 817l-660 801v39h1258l26 -333h-38q-16 131 -75 191.5t-171 60.5h-728l553 -674l-619 -766h806q53 0 112.5 17t89.5 39q35 24 59 69.5t43 118.5z" />
    <glyph glyph-name="product" unicode="&#x220f;" horiz-adv-x="1659" 
d="M1614 -201h-589v37h35q85 0 123 36.5t38 116.5v1427h-784v-1427q0 -78 39 -115.5t120 -37.5h37v-37h-589v37h35q85 0 123 36.5t38 116.5v1314q0 81 -38 117t-123 36h-35v37h1570v-37h-34q-83 0 -122 -36t-39 -117v-1314q0 -80 39 -116.5t122 -36.5h34v-37z" />
    <glyph glyph-name="pi" unicode="&#x3c0;" horiz-adv-x="1106" 
d="M1032 254q-7 -60 -18 -103t-31 -78q-24 -47 -65.5 -75.5t-88.5 -28.5q-35 0 -69 16.5t-53 43.5q-31 43 -45 105.5t-14 165.5q0 61 7 156q3 26 5 51t9 97q2 18 5.5 47.5t6.5 54.5l6 52h-256l-4 -60q-17 -290 -39 -443.5t-57.5 -219.5t-92.5 -66q-33 0 -58 25t-25 58
q0 27 12 51.5t43 65.5q45 58 67 111.5t37 140.5q15 84 22 158t12 179h-44q-49 0 -72.5 -6.5t-50.5 -26.5q-45 -35 -89 -108h-38q51 157 114.5 220t171.5 63h692v-142h-238q-17 -108 -25.5 -219.5t-8.5 -211.5q0 -92 32.5 -140t90.5 -48q95 0 115 115h34z" />
    <glyph glyph-name="integral" unicode="&#x222b;" horiz-adv-x="552" 
d="M552 1727q0 -29 -12.5 -52.5t-33.5 -35.5t-46 -12q-36 0 -75 34q-20 20 -39 20q-40 0 -40 -62q0 -46 11 -144q18 -201 26.5 -365t8.5 -289l-2 -119l-13 -464q-6 -187 -49 -315q-21 -66 -66.5 -102t-104.5 -36q-53 0 -85 32.5t-32 86.5q0 43 24.5 69.5t64.5 26.5
q41 0 68 -32q13 -14 24 -22t25 -8q38 0 38 60q0 36 -10 117q-19 167 -28 389q-3 102 -6 225q-2 69 -2 152l16 544q5 188 64 312q19 39 63 68t86 29q31 0 61 -14.5t47 -40.5t17 -52z" />
    <glyph glyph-name="ordfeminine" unicode="&#xaa;" horiz-adv-x="691" 
d="M643 929l32 -40q-30 -51 -81 -82.5t-98 -31.5q-49 0 -78 22.5t-35 62.5q-75 -50 -114.5 -67.5t-81.5 -17.5q-69 0 -112.5 43t-43.5 109q0 57 32.5 96.5t108 72.5t211.5 73v85q0 66 -77 66q-43 0 -62 -15.5t-19 -48.5q0 -83 -77 -83q-35 0 -57 19.5t-22 47.5
q0 60 70.5 100.5t177.5 40.5q72 0 127.5 -17t86.5 -48.5t31 -75.5v-361q0 -41 19 -41q25 0 62 91zM383 943v159q-73 -23 -111 -40.5t-54 -37t-16 -49.5q0 -33 20.5 -58.5t47.5 -25.5q35 0 80 30z" />
    <glyph glyph-name="ordmasculine" unicode="&#xba;" horiz-adv-x="771" 
d="M731 1084q0 -130 -104 -219.5t-256 -89.5q-94 0 -168.5 39t-117.5 107t-43 152t46.5 155.5t126.5 112t178 40.5q96 0 173 -38.5t121 -107t44 -151.5zM538 1023q0 138 -45.5 214.5t-127.5 76.5q-64 0 -100 -51t-36 -142q0 -126 48.5 -202.5t129.5 -76.5q131 0 131 181z
" />
    <glyph glyph-name="ae" unicode="&#xe6;" horiz-adv-x="1429" 
d="M1334 340l49 -21q-41 -116 -99 -195t-133 -120.5t-161 -41.5q-67 0 -131 25t-116 72t-90 112q-154 -120 -231 -164.5t-132 -44.5q-62 0 -113.5 33t-81.5 89.5t-30 123.5q0 69 26 121.5t86.5 98t157 87.5t257.5 93v88q0 72 -9.5 111t-36.5 58.5t-83 19.5q-51 0 -88.5 -25
t-37.5 -72q1 -13 1 -24.5v-25.5q0 -48 -29.5 -75.5t-79.5 -27.5q-44 0 -72 27t-28 71q0 99 102 164.5t257 65.5q156 0 258 -86q65 47 120.5 66.5t121.5 19.5q106 0 193.5 -47t140.5 -142.5t53 -235.5h-539q4 -178 65.5 -270.5t176.5 -92.5q75 0 135 37t117 123zM619 246
q-27 75 -27 249v28q-158 -50 -227 -106t-69 -133q0 -57 37.5 -102t85.5 -45q25 0 50.5 9t60 33t89.5 67zM1112 641v21q0 213 -139 213q-49 0 -79.5 -25.5t-44 -77.5t-13.5 -131h276z" />
    <glyph glyph-name="oslash" unicode="&#xf8;" horiz-adv-x="1199" 
d="M821 653l-402 -472q43 -66 95.5 -98.5t120.5 -32.5q111 0 167 82t56 237q0 33 -4 91t-13 106.5t-20 86.5zM1121 469q0 -141 -71 -257t-196 -183t-275 -67q-65 0 -146 21t-135 59l-117 -138l-62 54l113 133q-69 66 -111 161.5t-42 201.5q0 142 69.5 259t191.5 183.5
t273 66.5q80 0 163.5 -23.5t128.5 -60.5l120 142l63 -54l-119 -138q74 -66 113 -159t39 -201zM381 266l403 472q-80 137 -215 137q-111 0 -170 -88t-59 -249q0 -50 6 -104.5t16 -101.5t19 -66z" />
    <glyph glyph-name="questiondown" unicode="&#xbf;" horiz-adv-x="840" 
d="M717 -456h-52q0 29 -22 51q-15 14 -114.5 20t-179.5 26t-145 84q-106 108 -106 298q0 154 73 227q36 35 111.5 71t100.5 51.5t30 54.5l12 96h63v-213q0 -88 -21 -108q-8 -9 -74.5 -31t-102 -35.5t-61.5 -39.5q-31 -31 -31 -86q0 -48 31 -81q86 -84 390 -84q58 0 78 -16.5
t20 -60.5v-224zM458 648q-65 0 -111.5 46.5t-46.5 111.5t46.5 111t111.5 46t111 -46t46 -111t-46 -111.5t-111 -46.5z" />
    <glyph glyph-name="exclamdown" unicode="&#xa1;" horiz-adv-x="588" 
d="M272 526h57l92 -618q23 -155 23 -188q0 -81 -39 -128.5t-107 -47.5q-70 0 -107 45.5t-37 126.5q0 48 27 228zM294 648q-65 0 -111 46.5t-46 111.5t46 111t111 46t111.5 -46t46.5 -111t-46.5 -111.5t-111.5 -46.5z" />
    <glyph glyph-name="logicalnot" unicode="&#xac;" horiz-adv-x="1344" 
d="M129 996h1084v-650h-181v468h-903v182z" />
    <glyph glyph-name="radical" unicode="&#x221a;" horiz-adv-x="1106" 
d="M1106 1840l-306 -1917l-488 1006l-195 -91l-34 62l296 150l396 -810h5l254 1600h72z" />
    <glyph glyph-name="florin" unicode="&#x192;" horiz-adv-x="1008" 
d="M689 764l-149 -706q-28 -135 -73.5 -231.5t-101.5 -156.5t-118.5 -90t-125.5 -30q-69 0 -114 32.5t-45 86.5q0 41 30.5 71.5t74.5 30.5q42 0 68 -22.5t26 -58.5q0 -13 -5.5 -33.5t-5.5 -23.5q0 -9 9.5 -14.5t21.5 -5.5q33 0 56 34.5t23 84.5q0 4 -4 85q-4 77 -4 133
q0 61 8 123q7 57 32 183l108 508h-146l26 125q112 0 157 46q40 40 70 110.5t60 139.5t76 115q82 81 199 81q75 0 120.5 -36t45.5 -95q0 -51 -31.5 -84t-80.5 -33q-35 0 -61.5 24.5t-26.5 59.5q0 21 16 54.5t16 40.5q0 8 -8.5 14t-19.5 6q-43 0 -69 -37t-26 -100q0 -34 4 -97
t4 -90q0 -34 -14 -119h158l-25 -125h-155z" />
    <glyph glyph-name="approxequal" unicode="&#x2248;" horiz-adv-x="1106" 
d="M1056 860q-20 -150 -92 -233t-186 -83q-55 0 -121.5 26t-177.5 89q-138 77 -207 77q-71 0 -117 -48.5t-59 -135.5h-46q20 149 92 233t179 84q47 0 121 -25q55 -20 204 -100q117 -61 190 -61q41 0 68 13t53 46q39 46 49 118h50zM1056 479q-20 -149 -92 -232.5t-186 -83.5
q-55 0 -119 25t-180 89q-70 41 -119 59t-88 18q-71 0 -117 -48t-59 -135h-46q12 97 48.5 168t93.5 109t129 38q47 0 121 -25q51 -15 204 -98q117 -61 190 -61q41 0 68 13.5t53 45.5q39 46 49 118h50z" />
    <glyph glyph-name="uni2206" unicode="&#x2206;" horiz-adv-x="1233" 
d="M1207 0h-1180l618 1364zM975 81l-392 951l-433 -951h825z" />
    <glyph glyph-name="guillemotleft" unicode="&#xab;" horiz-adv-x="1070" 
d="M590 38h-70l-418 441l418 444h70l-221 -444zM965 38h-71l-417 441l417 444h71l-221 -444z" />
    <glyph glyph-name="guillemotright" unicode="&#xbb;" horiz-adv-x="1070" 
d="M479 38l223 441l-223 444h71l417 -444l-417 -441h-71zM104 38l223 441l-223 444h71l417 -444l-417 -441h-71z" />
    <glyph glyph-name="ellipsis" unicode="&#x2026;" horiz-adv-x="2015" 
d="M337 277q64 0 110.5 -46.5t46.5 -111.5t-46.5 -111t-110.5 -46q-65 0 -111.5 46t-46.5 111t46.5 111.5t111.5 46.5zM1008 277q65 0 111 -46.5t46 -111.5t-46 -111t-111 -46t-111.5 46t-46.5 111t46.5 111.5t111.5 46.5zM1679 277q65 0 111 -46.5t46 -111.5t-46 -111
t-111 -46t-111.5 46t-46.5 111t46.5 111.5t111.5 46.5z" />
    <glyph glyph-name="uni00A0" unicode="&#xa0;" horiz-adv-x="534" 
 />
    <glyph glyph-name="Agrave" unicode="&#xc0;" horiz-adv-x="1661" 
d="M427 363l-38 -83q-35 -76 -35 -107q0 -105 168 -108v-65h-488v65q72 2 128 52t108 163l508 1101h58l605 -1202q23 -45 47 -68.5t54.5 -33t82.5 -12.5v-65h-617v65q83 1 113.5 16.5t30.5 53.5q0 40 -37 111l-63 117h-625zM996 471l-271 537l-248 -537h519zM952 1473h-73
l-287 343h252z" />
    <glyph glyph-name="Atilde" unicode="&#xc3;" horiz-adv-x="1661" 
d="M427 363l-38 -83q-35 -76 -35 -107q0 -105 168 -108v-65h-488v65q72 2 128 52t108 163l508 1101h58l605 -1202q23 -45 47 -68.5t54.5 -33t82.5 -12.5v-65h-617v65q83 1 113.5 16.5t30.5 53.5q0 40 -37 111l-63 117h-625zM996 471l-271 537l-248 -537h519zM546 1510h-54
q3 114 64 190.5t148 76.5q39 0 78 -15.5t94.5 -47t78 -41.5t53.5 -10q41 0 66.5 27.5t40.5 86.5h56q-13 -125 -70 -196t-140 -71q-35 0 -65.5 11.5t-88.5 42t-87 43t-57 12.5q-94 0 -117 -109z" />
    <glyph glyph-name="Otilde" unicode="&#xd5;" horiz-adv-x="1661" 
d="M73 671q0 194 100.5 357.5t274 258t381.5 94.5t381.5 -94.5t274.5 -258t101 -357.5t-101 -357t-274.5 -257.5t-381.5 -94.5t-381.5 94.5t-274 257.5t-100.5 357zM387 671q0 -146 29 -258t86.5 -193t139 -121.5t187.5 -40.5q107 0 188 40.5t138 119.5t86.5 193t29.5 260
q0 194 -51.5 331t-152 209.5t-238.5 72.5q-140 0 -239.5 -72.5t-151 -209.5t-51.5 -331zM546 1510h-54q3 114 64 190.5t148 76.5q39 0 78 -15.5t94.5 -47t78 -41.5t53.5 -10q41 0 66.5 27.5t40.5 86.5h56q-13 -125 -70 -196t-140 -71q-35 0 -65.5 11.5t-88.5 42t-87 43
t-57 12.5q-94 0 -117 -109z" />
    <glyph glyph-name="OE" unicode="&#x152;" horiz-adv-x="2144" 
d="M1985 0h-820q-34 0 -61.5 -1t-115.5 -5q-40 -1 -85 -3t-79 -3.5t-46 -1.5q-123 0 -250.5 49t-232.5 140t-169 221t-64 285q0 149 57.5 275t163 219.5t248.5 144.5t309 51q9 0 131 -7q108 -8 173 -8h802l9 -314h-61q-32 83 -65.5 125.5t-86.5 61.5t-146 19h-260v-480h240
q62 0 101 12t61 53t23 122h69v-492h-69q0 111 -36 153.5t-133 42.5h-256v-423q0 -58 7 -83t30.5 -34.5t77.5 -9.5h137q105 0 168.5 12t112.5 42t85 81.5t75 138.5h67zM1058 292v783q0 119 -68 176t-182 57q-142 0 -239 -86.5t-144.5 -230.5t-47.5 -312q0 -142 30 -257
t89 -200t139 -129.5t177 -44.5q246 0 246 244z" />
    <glyph glyph-name="oe" unicode="&#x153;" horiz-adv-x="1556" 
d="M1453 344l49 -25q-36 -107 -96 -189.5t-136 -125t-160 -42.5q-75 0 -145.5 34t-118.5 93q-130 -127 -306 -127q-138 0 -245.5 64t-168.5 178t-61 257t61.5 257.5t170.5 179.5t245 65q164 0 294 -113q58 58 124.5 85.5t147.5 27.5q100 0 186.5 -44t140.5 -140t54 -237
h-518q3 -162 59.5 -262.5t172.5 -100.5q66 0 127.5 40.5t122.5 124.5zM327 586q0 -213 58 -374.5t190 -161.5q165 0 165 273q0 139 -21.5 265t-74 206.5t-138.5 80.5q-84 0 -131.5 -77.5t-47.5 -211.5zM967 645h260q1 10 1 31q0 98 -32.5 148.5t-93.5 50.5q-42 0 -72.5 -27
t-46.5 -81t-16 -122z" />
    <glyph glyph-name="endash" unicode="&#x2013;" horiz-adv-x="1008" 
d="M-12 566h1031v-127h-1031v127z" />
    <glyph glyph-name="emdash" unicode="&#x2014;" horiz-adv-x="2015" 
d="M-12 566h2039v-127h-2039v127z" />
    <glyph glyph-name="quotedblleft" unicode="&#x201c;" horiz-adv-x="1070" 
d="M983 1381v-67q-105 -6 -164 -60.5t-59 -141.5q0 -32 12.5 -41t57.5 -9q76 0 114.5 -34.5t38.5 -98.5q0 -70 -46.5 -115.5t-118.5 -45.5q-59 0 -103.5 33.5t-70 93.5t-25.5 137q0 153 99 247t265 102zM450 1381v-67q-106 -6 -165.5 -60.5t-59.5 -141.5q0 -32 13.5 -41
t57.5 -9q77 0 115.5 -34.5t38.5 -98.5q0 -70 -48 -115.5t-118 -45.5q-58 0 -103 33.5t-70.5 93.5t-25.5 137q0 76 25 137.5t72.5 108t117.5 73.5t150 30z" />
    <glyph glyph-name="quotedblright" unicode="&#x201d;" horiz-adv-x="1070" 
d="M621 768v66q103 6 163 59.5t60 142.5q0 33 -12.5 41.5t-58.5 8.5q-74 0 -113 35t-39 98q0 70 46.5 116t118.5 46q88 0 143.5 -74.5t55.5 -189.5q0 -76 -25.5 -139t-74 -108t-116 -72t-148.5 -30zM87 768v66q103 6 163 59.5t60 142.5q0 33 -13 41.5t-57 8.5q-75 0 -114 35
t-39 98q0 70 46.5 116t118.5 46q58 0 103 -34t71 -94t26 -136q0 -102 -45.5 -178.5t-126.5 -121t-193 -49.5z" />
    <glyph glyph-name="quoteleft" unicode="&#x2018;" horiz-adv-x="588" 
d="M481 1381v-67q-105 -6 -164 -60.5t-59 -141.5q0 -32 12.5 -41t58.5 -9q75 0 113.5 -34.5t38.5 -98.5q0 -70 -46.5 -115.5t-117.5 -45.5q-58 0 -103.5 33.5t-71 93.5t-25.5 137q0 153 99 247t265 102z" />
    <glyph glyph-name="quoteright" unicode="&#x2019;" horiz-adv-x="588" 
d="M107 768v66q104 6 164 59.5t60 142.5q0 33 -13 41.5t-58 8.5q-75 0 -114 35t-39 98q0 69 46.5 115.5t118.5 46.5q58 0 103 -34t70.5 -94t25.5 -136t-25.5 -139t-73.5 -108t-116 -72t-149 -30z" />
    <glyph glyph-name="divide" unicode="&#xf7;" horiz-adv-x="1346" 
d="M129 762h1086v-181h-1086v181zM673 379q30 0 56.5 -15.5t41.5 -42t15 -55.5q0 -47 -33 -79.5t-80 -32.5q-45 0 -79 32.5t-34 79.5q0 48 33.5 80.5t79.5 32.5zM673 1189q47 0 80 -33t33 -80t-33 -80t-80 -33q-45 0 -79 33t-34 80t34 80t79 33z" />
    <glyph glyph-name="lozenge" unicode="&#x25ca;" horiz-adv-x="996" 
d="M952 698l-412 -698h-109l-385 698l385 702h109zM840 698l-352 606l-334 -606l334 -606z" />
    <glyph glyph-name="ydieresis" unicode="&#xff;" horiz-adv-x="1070" 
d="M526 923v-65q-56 0 -79.5 -14t-23.5 -46q0 -26 33 -100l173 -400l133 339q56 143 56 173q0 49 -81 49q-14 0 -22 -1v65h319v-65q-38 -8 -59.5 -22.5t-41 -50t-44.5 -106.5l-314 -858q-30 -79 -80.5 -141t-118.5 -96t-147 -34q-86 0 -140.5 39.5t-54.5 102.5q0 46 31 78
t78 32q46 0 112 -36t106 -36t64 23.5t48 91.5l53 137l-359 780q-39 87 -98 96v65h457zM311 1374q45 0 76.5 -31.5t31.5 -78.5q0 -44 -32 -77t-76 -33t-77.5 33.5t-33.5 76.5q0 46 33 78t78 32zM762 1374q46 0 77.5 -31.5t31.5 -78.5q0 -44 -32 -77t-77 -33q-43 0 -76.5 33.5
t-33.5 76.5q0 46 33 78t77 32z" />
    <glyph glyph-name="Ydieresis" unicode="&#x178;" horiz-adv-x="1661" 
d="M1183 0h-758v65h65q97 0 135 46.5t38 163.5v302l-405 540q-67 88 -96.5 121.5t-54 43.5t-71.5 10v64h639v-64q-129 0 -129 -59q0 -20 20.5 -54.5t76.5 -108.5l262 -357l258 335q98 130 98 175q0 38 -32 53.5t-102 15.5h-43v64h541v-64q-91 0 -154.5 -43t-138.5 -141
l-391 -518v-315q0 -83 17 -128.5t59 -63.5t120 -18h46v-65zM607 1754q45 0 76.5 -31.5t31.5 -78.5q0 -44 -32 -77t-76 -33t-77.5 33.5t-33.5 76.5q0 46 33 78t78 32zM1058 1754q46 0 77.5 -31.5t31.5 -78.5q0 -44 -32 -77t-77 -33q-43 0 -76.5 33.5t-33.5 76.5q0 46 33 78
t77 32z" />
    <glyph glyph-name="fraction" unicode="&#x2044;" horiz-adv-x="246" 
d="M-232 -20h-99l808 1401h100z" />
    <glyph glyph-name="guilsinglleft" unicode="&#x2039;" horiz-adv-x="588" 
d="M538 38h-71l-417 441l417 444h71l-221 -444z" />
    <glyph glyph-name="guilsinglright" unicode="&#x203a;" horiz-adv-x="588" 
d="M50 38l222 441l-222 444h71l417 -444l-417 -441h-71z" />
    <glyph glyph-name="fi" unicode="&#xfb01;" horiz-adv-x="1199" 
d="M1025 939v-729q0 -85 23 -115t100 -30v-65h-509v65q8 0 13 -0.5t10 -0.5q50 0 76 13t35 43t9 90v598h-361v-598q0 -60 10 -91.5t34 -43t70 -11.5q8 0 14 0.5t17 0.5v-65h-522v65q56 0 83.5 10t38.5 40.5t11 94.5v598h-133v115h133q0 142 65 246t172 158t225 54
q62 0 124 -12t116 -37t86.5 -63t32.5 -86q0 -46 -31.5 -79.5t-77.5 -33.5q-47 0 -74 26t-61 80t-62.5 81t-76.5 27q-86 0 -140 -58.5t-54 -161.5v-141h308q175 0 296 16z" />
    <glyph glyph-name="fl" unicode="&#xfb02;" horiz-adv-x="1199" 
d="M1027 1381v-1171q0 -92 26 -118.5t99 -26.5v-65h-511v65q8 0 13.5 -0.5t11.5 -0.5q49 0 74.5 12.5t34.5 45t9 88.5v598h-363v-598q0 -60 9.5 -90t36.5 -43t79 -13q6 0 11 0.5t14 0.5v-65h-525v65q56 0 83.5 11.5t37.5 41.5t10 92v598h-131v115h131q0 9 -0.5 14t-0.5 11
q0 113 41 196t105.5 135t139 77t146.5 25q118 0 208 -59l127 59h84zM784 923v183q-23 -16 -42 -16q-42 0 -76.5 45.5t-69 90.5t-76.5 45q-47 0 -73 -51.5t-26 -155.5v-141h363z" />
    <glyph glyph-name="daggerdbl" unicode="&#x2021;" horiz-adv-x="1070" 
d="M510 -10q-20 2 -28 2q-38 0 -69.5 -11.5t-73.5 -34t-68 -32.5t-54 -10q-53 0 -84 32.5t-31 88.5q0 54 32 89.5t81 35.5q31 0 57.5 -11t66 -31.5t69 -30.5t71.5 -10q9 0 31 2q-12 55 -36 88t-71 60q52 57 70.5 111t18.5 147q0 95 -18.5 150.5t-70.5 110.5q47 28 71 61.5
t36 89.5q-8 1 -22 1q-44 0 -78 -11t-78.5 -33.5t-64.5 -31t-52 -8.5q-49 0 -81 34.5t-32 90.5q0 55 31 88t84 33q34 0 64.5 -12t62.5 -30q47 -22 80.5 -33.5t85.5 -11.5q0 48 -13.5 90t-31.5 77.5t-35 72.5t-17 64q0 50 35 82t88 32t88 -31.5t35 -82.5q0 -33 -35 -102.5
t-48.5 -104.5t-13.5 -97q62 0 94.5 12.5t97.5 43.5t100 31q54 0 84.5 -32.5t30.5 -88.5q0 -57 -31 -91t-82 -34q-30 0 -65 15.5t-62.5 31t-62 26.5t-82.5 11q-14 0 -22 -1q14 -57 37.5 -90t69.5 -61q-51 -55 -69.5 -110.5t-18.5 -150.5q0 -93 18.5 -147t69.5 -111
q-46 -27 -69.5 -59.5t-37.5 -88.5q23 -2 33 -2q43 0 72.5 10.5t68 31t63.5 31t57 10.5q51 0 82 -35t31 -90q0 -56 -30.5 -88.5t-82.5 -32.5q-28 0 -53.5 9.5t-67.5 32.5t-75 34.5t-73 11.5q-7 0 -25 -2q0 -61 13.5 -96t48.5 -104t35 -104q0 -50 -35 -81.5t-88 -31.5t-88 32
t-35 81q0 32 9 52t35 69t39.5 91t13.5 92z" />
    <glyph glyph-name="periodcentered" unicode="&#xb7;" horiz-adv-x="588" 
d="M294 829q65 0 111.5 -46.5t46.5 -111.5t-46.5 -111t-111.5 -46t-111 46t-46 111t46 111.5t111 46.5z" />
    <glyph glyph-name="periodcentered" unicode="&#x2219;" horiz-adv-x="588" 
d="M294 829q65 0 111.5 -46.5t46.5 -111.5t-46.5 -111t-111.5 -46t-111 46t-46 111t46 111.5t111 46.5z" />
    <glyph glyph-name="quotesinglbase" unicode="&#x201a;" horiz-adv-x="588" 
d="M123 -337v67q103 6 163 59.5t60 141.5q0 34 -12 42.5t-57 8.5q-75 0 -114.5 35t-39.5 98q0 70 46.5 116t118.5 46q58 0 103.5 -34t71 -94t25.5 -137q0 -102 -45 -178.5t-129 -121.5t-191 -49z" />
    <glyph glyph-name="quotedblbase" unicode="&#x201e;" horiz-adv-x="1070" 
d="M621 -337v67q103 6 163 59.5t60 141.5q0 34 -12 42.5t-59 8.5q-74 0 -113 35t-39 98q0 70 46.5 116t118.5 46q88 0 143.5 -75.5t55.5 -189.5q0 -102 -44.5 -178.5t-128 -121.5t-191.5 -49zM87 -337v67q103 6 163 59.5t60 141.5q0 34 -12.5 42.5t-57.5 8.5q-75 0 -114 35
t-39 98q0 70 46.5 116t118.5 46q58 0 103 -34t71 -94t26 -137q0 -102 -45.5 -178.5t-129 -121.5t-190.5 -49z" />
    <glyph glyph-name="perthousand" unicode="&#x2030;" horiz-adv-x="2225" 
d="M1790 346q0 -98 12 -166t35 -102t57 -34q51 0 79 78.5t28 223.5q0 103 -12 170t-36 101t-59 34q-51 0 -77.5 -77t-26.5 -228zM415 -20h-98l808 1401h96zM238 1012q0 -303 104 -303q52 0 80 78.5t28 224.5q0 147 -27.5 225.5t-80.5 78.5q-104 0 -104 -304zM1594 346
q0 73 23.5 140.5t65.5 119.5t97 80.5t114 28.5q62 0 116.5 -29t95.5 -79.5t64.5 -118.5t23.5 -142q0 -71 -23.5 -139t-66 -119t-97 -79.5t-113.5 -28.5t-114 28.5t-97.5 81.5t-65.5 120t-23 136zM42 1012q0 72 24 139.5t65.5 119.5t96.5 81t114 29q62 0 117 -29.5t95.5 -80
t64.5 -118.5t24 -141q0 -71 -24.5 -141t-66 -119.5t-96.5 -78t-114 -28.5q-79 0 -148.5 50t-110.5 134.5t-41 182.5zM898 346q0 99 41.5 184t111 135t148.5 50q62 0 117 -29t96 -81t64.5 -118t23.5 -141q0 -72 -23.5 -138t-66 -118.5t-97 -81t-114.5 -28.5q-79 0 -148.5 50
t-111 134.5t-41.5 181.5zM1094 346q0 -148 27 -225t78 -77q52 0 79.5 78.5t27.5 223.5q0 103 -12.5 170t-36 101t-58.5 34q-52 0 -78.5 -77t-26.5 -228z" />
    <glyph glyph-name="Acircumflex" unicode="&#xc2;" horiz-adv-x="1661" 
d="M427 363l-38 -83q-35 -76 -35 -107q0 -105 168 -108v-65h-488v65q72 2 128 52t108 163l508 1101h58l605 -1202q23 -45 47 -68.5t54.5 -33t82.5 -12.5v-65h-617v65q83 1 113.5 16.5t30.5 53.5q0 40 -37 111l-63 117h-625zM996 471l-271 537l-248 -537h519zM603 1455h-61
l177 377h229l173 -377h-52l-240 218z" />
    <glyph glyph-name="Ecircumflex" unicode="&#xca;" horiz-adv-x="1429" 
d="M1240 1356v-314h-61q-42 123 -97 164.5t-153 41.5h-417v-480h361q97 0 138 40.5t41 146.5h67v-492h-67q0 115 -37.5 155.5t-141.5 40.5h-361v-419q0 -58 8 -84.5t31.5 -36.5t75.5 -10h306q104 0 171.5 29.5t115 88.5t98.5 164h65l-114 -391h-1240v65q84 0 127 16
t60.5 60.5t17.5 133.5v807q0 88 -17 133t-60 61t-128 16v64h1211zM486 1455h-61l177 377h229l173 -377h-52l-240 218z" />
    <glyph glyph-name="Aacute" unicode="&#xc1;" horiz-adv-x="1661" 
d="M427 363l-38 -83q-35 -76 -35 -107q0 -105 168 -108v-65h-488v65q72 2 128 52t108 163l508 1101h58l605 -1202q23 -45 47 -68.5t54.5 -33t82.5 -12.5v-65h-617v65q83 1 113.5 16.5t30.5 53.5q0 40 -37 111l-63 117h-625zM996 471l-271 537l-248 -537h519zM711 1473
l108 343h252l-287 -343h-73z" />
    <glyph glyph-name="Edieresis" unicode="&#xcb;" horiz-adv-x="1429" 
d="M1240 1356v-314h-61q-42 123 -97 164.5t-153 41.5h-417v-480h361q97 0 138 40.5t41 146.5h67v-492h-67q0 115 -37.5 155.5t-141.5 40.5h-361v-419q0 -58 8 -84.5t31.5 -36.5t75.5 -10h306q104 0 171.5 29.5t115 88.5t98.5 164h65l-114 -391h-1240v65q84 0 127 16
t60.5 60.5t17.5 133.5v807q0 88 -17 133t-60 61t-128 16v64h1211zM490 1754q45 0 76.5 -31.5t31.5 -78.5q0 -44 -32 -77t-76 -33t-77.5 33.5t-33.5 76.5q0 46 33 78t78 32zM941 1754q46 0 77.5 -31.5t31.5 -78.5q0 -44 -32 -77t-77 -33q-43 0 -76.5 33.5t-33.5 76.5
q0 46 33 78t77 32z" />
    <glyph glyph-name="Egrave" unicode="&#xc8;" horiz-adv-x="1429" 
d="M1240 1356v-314h-61q-42 123 -97 164.5t-153 41.5h-417v-480h361q97 0 138 40.5t41 146.5h67v-492h-67q0 115 -37.5 155.5t-141.5 40.5h-361v-419q0 -58 8 -84.5t31.5 -36.5t75.5 -10h306q104 0 171.5 29.5t115 88.5t98.5 164h65l-114 -391h-1240v65q84 0 127 16
t60.5 60.5t17.5 133.5v807q0 88 -17 133t-60 61t-128 16v64h1211zM835 1473h-73l-287 343h252z" />
    <glyph glyph-name="Iacute" unicode="&#xcd;" horiz-adv-x="840" 
d="M798 0h-758v65h52q118 0 156 44.5t38 165.5v807q0 84 -16 128.5t-56.5 63t-121.5 18.5h-52v64h758v-64h-42q-77 0 -117.5 -18t-57.5 -63.5t-17 -128.5v-807q0 -83 17 -128.5t57.5 -63.5t117.5 -18h42v-65zM300 1473l108 343h252l-287 -343h-73z" />
    <glyph glyph-name="Icircumflex" unicode="&#xce;" horiz-adv-x="840" 
d="M798 0h-758v65h52q118 0 156 44.5t38 165.5v807q0 84 -16 128.5t-56.5 63t-121.5 18.5h-52v64h758v-64h-42q-77 0 -117.5 -18t-57.5 -63.5t-17 -128.5v-807q0 -83 17 -128.5t57.5 -63.5t117.5 -18h42v-65zM192 1455h-61l177 377h229l173 -377h-52l-240 218z" />
    <glyph glyph-name="Idieresis" unicode="&#xcf;" horiz-adv-x="840" 
d="M798 0h-758v65h52q118 0 156 44.5t38 165.5v807q0 84 -16 128.5t-56.5 63t-121.5 18.5h-52v64h758v-64h-42q-77 0 -117.5 -18t-57.5 -63.5t-17 -128.5v-807q0 -83 17 -128.5t57.5 -63.5t117.5 -18h42v-65zM196 1754q45 0 76.5 -31.5t31.5 -78.5q0 -44 -32 -77t-76 -33
t-77.5 33.5t-33.5 76.5q0 46 33 78t78 32zM647 1754q46 0 77.5 -31.5t31.5 -78.5q0 -44 -32 -77t-77 -33q-43 0 -76.5 33.5t-33.5 76.5q0 46 33 78t77 32z" />
    <glyph glyph-name="Igrave" unicode="&#xcc;" horiz-adv-x="840" 
d="M798 0h-758v65h52q118 0 156 44.5t38 165.5v807q0 84 -16 128.5t-56.5 63t-121.5 18.5h-52v64h758v-64h-42q-77 0 -117.5 -18t-57.5 -63.5t-17 -128.5v-807q0 -83 17 -128.5t57.5 -63.5t117.5 -18h42v-65zM541 1473h-73l-287 343h252z" />
    <glyph glyph-name="Oacute" unicode="&#xd3;" horiz-adv-x="1661" 
d="M73 671q0 194 100.5 357.5t274 258t381.5 94.5t381.5 -94.5t274.5 -258t101 -357.5t-101 -357t-274.5 -257.5t-381.5 -94.5t-381.5 94.5t-274 257.5t-100.5 357zM387 671q0 -146 29 -258t86.5 -193t139 -121.5t187.5 -40.5q107 0 188 40.5t138 119.5t86.5 193t29.5 260
q0 194 -51.5 331t-152 209.5t-238.5 72.5q-140 0 -239.5 -72.5t-151 -209.5t-51.5 -331zM711 1473l108 343h252l-287 -343h-73z" />
    <glyph glyph-name="Ocircumflex" unicode="&#xd4;" horiz-adv-x="1661" 
d="M73 671q0 194 100.5 357.5t274 258t381.5 94.5t381.5 -94.5t274.5 -258t101 -357.5t-101 -357t-274.5 -257.5t-381.5 -94.5t-381.5 94.5t-274 257.5t-100.5 357zM387 671q0 -146 29 -258t86.5 -193t139 -121.5t187.5 -40.5q107 0 188 40.5t138 119.5t86.5 193t29.5 260
q0 194 -51.5 331t-152 209.5t-238.5 72.5q-140 0 -239.5 -72.5t-151 -209.5t-51.5 -331zM603 1455h-61l177 377h229l173 -377h-52l-240 218z" />
    <glyph glyph-name="Ograve" unicode="&#xd2;" horiz-adv-x="1661" 
d="M73 671q0 194 100.5 357.5t274 258t381.5 94.5t381.5 -94.5t274.5 -258t101 -357.5t-101 -357t-274.5 -257.5t-381.5 -94.5t-381.5 94.5t-274 257.5t-100.5 357zM387 671q0 -146 29 -258t86.5 -193t139 -121.5t187.5 -40.5q107 0 188 40.5t138 119.5t86.5 193t29.5 260
q0 194 -51.5 331t-152 209.5t-238.5 72.5q-140 0 -239.5 -72.5t-151 -209.5t-51.5 -331zM952 1473h-73l-287 343h252z" />
    <glyph glyph-name="Uacute" unicode="&#xda;" horiz-adv-x="1786" 
d="M38 1356h754v-64h-46q-78 0 -120 -18t-59 -63.5t-17 -128.5v-601q0 -127 57 -215.5t151.5 -131t206.5 -42.5q195 0 326.5 111.5t131.5 296.5v604q0 103 -43 145.5t-128 42.5h-54v64h548v-64h-31q-77 0 -117 -18t-57.5 -63.5t-17.5 -128.5v-570q0 -184 -84.5 -308
t-225.5 -183t-306 -59q-173 0 -319 55.5t-231 167.5t-85 267v654q0 98 -41 142t-139 44h-54v64zM813 1473l108 343h252l-287 -343h-73z" />
    <glyph glyph-name="Ucircumflex" unicode="&#xdb;" horiz-adv-x="1786" 
d="M38 1356h754v-64h-46q-78 0 -120 -18t-59 -63.5t-17 -128.5v-601q0 -127 57 -215.5t151.5 -131t206.5 -42.5q195 0 326.5 111.5t131.5 296.5v604q0 103 -43 145.5t-128 42.5h-54v64h548v-64h-31q-77 0 -117 -18t-57.5 -63.5t-17.5 -128.5v-570q0 -184 -84.5 -308
t-225.5 -183t-306 -59q-173 0 -319 55.5t-231 167.5t-85 267v654q0 98 -41 142t-139 44h-54v64zM705 1455h-61l177 377h229l173 -377h-52l-240 218z" />
    <glyph glyph-name="Ugrave" unicode="&#xd9;" horiz-adv-x="1786" 
d="M38 1356h754v-64h-46q-78 0 -120 -18t-59 -63.5t-17 -128.5v-601q0 -127 57 -215.5t151.5 -131t206.5 -42.5q195 0 326.5 111.5t131.5 296.5v604q0 103 -43 145.5t-128 42.5h-54v64h548v-64h-31q-77 0 -117 -18t-57.5 -63.5t-17.5 -128.5v-570q0 -184 -84.5 -308
t-225.5 -183t-306 -59q-173 0 -319 55.5t-231 167.5t-85 267v654q0 98 -41 142t-139 44h-54v64zM1096 1473h-73l-287 343h252z" />
    <glyph glyph-name="dotlessi" unicode="&#x131;" horiz-adv-x="588" 
d="M548 0h-523v65q11 -1 31 -1q45 0 70.5 13t35 44t9.5 89v463q0 161 -90 161q-22 0 -43 -7l-13 64l304 72h86v-753q0 -64 11.5 -94t38.5 -40.5t83 -10.5v-65z" />
    <glyph glyph-name="circumflex" unicode="&#x2c6;" horiz-adv-x="671" 
d="M107 1078h-61l177 377h229l173 -377h-52l-240 218z" />
    <glyph glyph-name="tilde" unicode="&#x2dc;" horiz-adv-x="671" 
d="M50 1133h-54q3 114 64 190.5t148 76.5q39 0 78 -15.5t94.5 -47t78 -41.5t53.5 -10q41 0 66.5 27.5t40.5 86.5h56q-13 -125 -70 -196t-140 -71q-35 0 -65.5 11.5t-88.5 42t-87 43t-57 12.5q-94 0 -117 -109z" />
    <glyph glyph-name="macron" unicode="&#xaf;" horiz-adv-x="671" 
d="M-10 1183v165h693v-165h-693z" />
    <glyph glyph-name="breve" unicode="&#x2d8;" horiz-adv-x="671" 
d="M50 1419h61q41 -125 224 -125q95 0 149.5 30.5t75.5 94.5h63q-3 -87 -41 -156.5t-103.5 -108.5t-145.5 -39q-118 0 -199 87.5t-84 216.5z" />
    <glyph glyph-name="dotaccent" unicode="&#x2d9;" horiz-adv-x="671" 
d="M337 1377q45 0 77 -31t32 -79q0 -45 -32.5 -77.5t-76.5 -32.5q-46 0 -79 33t-33 77q0 47 32.5 78.5t79.5 31.5z" />
    <glyph glyph-name="ring" unicode="&#x2da;" horiz-adv-x="671" 
d="M337 1457q50 0 90.5 -24t65.5 -66t25 -92q0 -76 -53.5 -128.5t-127.5 -52.5q-75 0 -128.5 53t-53.5 128q0 76 52.5 129t129.5 53zM337 1386q-46 0 -79 -32.5t-33 -78.5q0 -44 33 -77t79 -33q28 0 53.5 15t41.5 41t16 54q0 30 -16 56t-41.5 40.5t-53.5 14.5z" />
    <glyph glyph-name="cedilla" unicode="&#xb8;" horiz-adv-x="671" 
d="M102 -442l17 69q21 -2 56 -2q167 0 167 95q0 76 -152 76l148 177h75l-42 -58q95 0 147.5 -43t52.5 -114q0 -96 -93.5 -152t-256.5 -56q-75 0 -119 8z" />
    <glyph glyph-name="hungarumlaut" unicode="&#x2dd;" horiz-adv-x="671" 
d="M444 1096l106 343h252l-286 -343h-72zM96 1096l108 343h252l-287 -343h-73z" />
    <glyph glyph-name="ogonek" unicode="&#x2db;" horiz-adv-x="671" 
d="M275 12h94q-103 -85 -103 -164q0 -63 37 -119t101.5 -90.5t137.5 -34.5q18 0 27 1l29 -34q-86 -81 -219 -81q-81 0 -151 37t-111.5 99.5t-41.5 131.5q0 78 54 147t146 107z" />
    <glyph glyph-name="caron" unicode="&#x2c7;" horiz-adv-x="671" 
d="M564 1455h61l-177 -377h-229l-173 377h52l240 -218z" />
    <glyph glyph-name="currency" unicode="&#xa4;" horiz-adv-x="1394" 
d="M952 1036l128 129l121 -121l-128 -129q40 -61 58.5 -121.5t18.5 -134.5q0 -73 -18.5 -132t-58.5 -120l126 -127l-121 -121l-123 123q-123 -76 -261 -76q-68 0 -129.5 18t-122.5 58l-123 -123l-123 123l123 123q-40 62 -58.5 124.5t-18.5 131.5q0 71 18 130.5t61 123.5
l-129 129l120 121l130 -129q67 43 126 61t130 18q68 0 126.5 -18t127.5 -61zM696 943q-78 0 -142.5 -38t-102.5 -102.5t-38 -141.5t38 -142.5t102.5 -103.5t142.5 -38q76 0 141 38.5t103.5 103.5t38.5 142t-38 141.5t-103.5 102.5t-141.5 38z" />
    <glyph glyph-name="uni2126" unicode="&#x2126;" horiz-adv-x="1548" 
d="M1494 0h-559l22 275q96 38 156 100t88 152t28 215q0 255 -121 398q-63 75 -149.5 115.5t-189.5 40.5q-100 0 -183.5 -39t-144.5 -110.5t-94 -172t-33 -218.5q0 -131 37.5 -239t104.5 -169q30 -27 55.5 -41.5t74.5 -31.5l22 -275h-554v275h35q3 -60 30 -81
q26 -20 55 -27.5t82 -7.5h266v68q-135 40 -233 117t-148 187t-50 244q0 128 49.5 237.5t140 188t215 121t273.5 42.5q152 0 279.5 -43t217.5 -119.5t140.5 -186.5t50.5 -240q0 -134 -53.5 -248.5t-152 -192.5t-226.5 -107l-8 -68h271q87 0 123 24.5t44 91.5h39v-275z" />
    <glyph glyph-name="lslash" unicode="&#x142;" horiz-adv-x="588" 
d="M415 1381v-537l164 129v-113l-164 -131v-519q0 -57 10 -88t33 -43t70 -14v-65h-472v65q47 0 71.5 12.5t34 43.5t9.5 89v334l-161 -127v113l161 127v439q0 97 -22.5 133t-92.5 36l-14 63l298 53h75z" />
    <glyph glyph-name="Scaron" unicode="&#x160;" horiz-adv-x="1199" 
d="M107 435h64q44 -111 116 -195t159 -128.5t181 -44.5q68 0 120.5 26t81.5 71t29 102q0 91 -72 163q-32 34 -92.5 69.5t-185.5 104.5t-185.5 107t-107.5 82q-104 104 -104 242q0 73 32 137.5t88 111t133 72.5t166 26q65 0 115.5 -9t106.5 -26t91 -25.5t55 -8.5q55 0 75 69
h67v-442h-63q-42 104 -108.5 182t-147 120.5t-165.5 42.5q-91 0 -145.5 -44.5t-54.5 -118.5q0 -68 55 -123q31 -29 121 -77.5t172 -91t163 -91.5t131 -99q69 -69 97 -140.5t28 -152.5q0 -107 -57 -195.5t-158 -138.5t-221 -50q-82 0 -147.5 17t-148.5 45t-111 28
q-40 0 -70 -24.5t-39 -63.5h-64v471zM828 1832h61l-177 -377h-229l-173 377h52l240 -218z" />
    <glyph glyph-name="scaron" unicode="&#x161;" horiz-adv-x="840" 
d="M707 941v-300h-66q-31 111 -102.5 175.5t-165.5 64.5q-63 0 -101 -25.5t-38 -67.5q0 -32 26 -61q17 -17 48.5 -35.5t127.5 -72t162 -94.5t93 -69q57 -57 76 -103t19 -107q0 -81 -40 -146.5t-113 -101.5t-166 -36q-51 0 -98 8.5t-109.5 23t-80.5 14.5q-27 0 -64 -20h-46
v333h66q28 -118 117 -194.5t202 -76.5q57 0 93 31t36 82t-39 89q-32 32 -79.5 60.5t-112.5 63.5t-114.5 66t-87.5 70q-83 80 -83 186q0 76 39.5 136t109 94.5t153.5 34.5q68 0 153 -15q79 -17 117 -17q19 0 32 10h36zM649 1452h61l-177 -377h-229l-173 377h52l240 -218z" />
    <glyph glyph-name="Yacute" unicode="&#xdd;" horiz-adv-x="1661" 
d="M1183 0h-758v65h65q97 0 135 46.5t38 163.5v302l-405 540q-67 88 -96.5 121.5t-54 43.5t-71.5 10v64h639v-64q-129 0 -129 -59q0 -20 20.5 -54.5t76.5 -108.5l262 -357l258 335q98 130 98 175q0 38 -32 53.5t-102 15.5h-43v64h541v-64q-91 0 -154.5 -43t-138.5 -141
l-391 -518v-315q0 -83 17 -128.5t59 -63.5t120 -18h46v-65zM711 1473l108 343h252l-287 -343h-73z" />
    <glyph glyph-name="yacute" unicode="&#xfd;" horiz-adv-x="1070" 
d="M526 923v-65q-56 0 -79.5 -14t-23.5 -46q0 -26 33 -100l173 -400l133 339q56 143 56 173q0 49 -81 49q-14 0 -22 -1v65h319v-65q-38 -8 -59.5 -22.5t-41 -50t-44.5 -106.5l-314 -858q-30 -79 -80.5 -141t-118.5 -96t-147 -34q-86 0 -140.5 39.5t-54.5 102.5q0 46 31 78
t78 32q46 0 112 -36t106 -36t64 23.5t48 91.5l53 137l-359 780q-39 87 -98 96v65h457zM415 1093l108 343h252l-287 -343h-73z" />
    <glyph glyph-name="Thorn" unicode="&#xde;" horiz-adv-x="1304" 
d="M516 1070h211q129 0 248 -43t193 -131t74 -213q0 -109 -60 -198t-164 -141t-230 -52q-154 0 -272 73v-90q0 -92 18.5 -135.5t64.5 -59t132 -15.5v-65h-706v65q88 0 133 16.5t62.5 61.5t17.5 132v807q0 90 -18.5 134.5t-64 60t-130.5 15.5v64h704v-64q-93 0 -137 -19
t-60 -66t-16 -137zM516 941v-487q81 -37 153 -37q71 0 130.5 36.5t93.5 100.5t34 144t-35 141t-99 93.5t-148 32.5q-70 0 -129 -24z" />
    <glyph glyph-name="thorn" unicode="&#xfe;" horiz-adv-x="1199" 
d="M427 1381v-581q139 163 311 163q80 0 149.5 -35t121 -97t80 -146.5t28.5 -182.5q0 -104 -38 -204.5t-103 -175.5t-149 -117.5t-176 -42.5q-132 0 -224 103v-284q0 -61 10 -91t38 -43t85 -13q23 0 34 1v-64h-552v64q63 0 91 10.5t39 40.5t11 95v1303q0 168 -91 168
q-11 0 -34 -6v64l282 71h87zM427 694v-428q0 -49 29 -100t78.5 -83.5t108.5 -32.5q106 0 170 94.5t64 255.5q0 108 -32.5 193.5t-90 133.5t-133.5 48q-46 0 -101 -23t-93 -58z" />
    <glyph glyph-name="Zcaron" unicode="&#x17d;" horiz-adv-x="1429" 
d="M1320 369h68l-68 -369h-1280v65l923 1196h-449q-105 0 -171.5 -27t-98 -79t-34.5 -132h-67l32 333h1177v-34l-933 -1220h504q130 0 205 26.5t118 83.5t74 157zM943 1832h61l-177 -377h-229l-173 377h52l240 -218z" />
    <glyph glyph-name="zcaron" unicode="&#x17e;" horiz-adv-x="946" 
d="M911 923l-526 -806h256q71 0 106.5 12.5t54 47t34.5 111.5h60v-288h-864l539 814h-254q-55 0 -82 -10t-42 -36t-26 -83h-67l11 238h800zM701 1452h61l-177 -377h-229l-173 377h52l240 -218z" />
    <glyph glyph-name="onehalf" unicode="&#xbd;" horiz-adv-x="1612" 
d="M1048 494h-63q14 68 53 118t99 77.5t130 27.5q67 0 121.5 -25t85 -70t30.5 -102q0 -77 -69 -166t-226 -215v-4h234q34 0 51 40h68l-66 -175h-535v34l131 103q84 65 138.5 119.5t78 102.5t23.5 101q0 58 -41 97t-102 39q-100 0 -141 -102zM450 -20h-100l809 1401h99z
M450 1381v-571q0 -57 22.5 -79t89.5 -22v-46h-407v46q69 0 92 20t23 81v367q0 67 -32 67q-21 0 -83 -27l-22 41l268 123h49z" />
    <glyph glyph-name="onequarter" unicode="&#xbc;" horiz-adv-x="1612" 
d="M1455 0h-173v175h-313v109l375 433h111v-433h111v-109h-111v-175zM1282 284v226l-198 -226h198zM450 1381v-571q0 -57 22.5 -79t89.5 -22v-46h-407v46q69 0 92 20t23 81v367q0 67 -32 67q-21 0 -83 -27l-22 41l268 123h49zM450 -20h-100l809 1401h99z" />
    <glyph glyph-name="onesuperior" unicode="&#xb9;" horiz-adv-x="683" 
d="M446 1381v-571q0 -57 22.5 -79t89.5 -22v-46h-406v46q68 0 91 20t23 81v367q0 67 -32 67q-20 0 -82 -27l-23 41l268 123h49z" />
    <glyph glyph-name="threequarters" unicode="&#xbe;" horiz-adv-x="1612" 
d="M452 -20h-100l809 1401h99zM171 1207h-58q29 83 91.5 128.5t149.5 45.5q85 0 139.5 -41t54.5 -100q0 -46 -28.5 -83.5t-96.5 -81.5q165 -56 165 -188q0 -65 -41.5 -121.5t-112 -88.5t-156.5 -32q-69 0 -119 23.5t-50 54.5q0 23 20.5 37.5t51.5 14.5q26 0 54 -13t56.5 -27
t50.5 -14q41 0 65 28.5t24 75.5q0 69 -59.5 115.5t-165.5 61.5v42q84 15 132.5 55.5t48.5 95.5q0 40 -25.5 64.5t-69.5 24.5q-70 0 -121 -77zM1455 0h-173v175h-313v109l375 433h111v-433h111v-109h-111v-175zM1282 284v226l-198 -226h198z" />
    <glyph glyph-name="threesuperior" unicode="&#xb3;" horiz-adv-x="683" 
d="M167 1207h-58q27 82 90.5 128t150.5 46q85 0 139.5 -41t54.5 -100q0 -46 -28.5 -83.5t-96.5 -81.5q165 -56 165 -188q0 -65 -41.5 -121.5t-112 -88.5t-155.5 -32q-71 0 -121 24t-50 54q0 24 21 38t52 14q26 0 54 -13t56.5 -27t50.5 -14q41 0 65 28.5t24 75.5
q0 69 -59.5 115.5t-165.5 61.5v42q82 15 131.5 55.5t49.5 95.5q0 40 -25.5 64.5t-69.5 24.5q-70 0 -121 -77z" />
    <glyph glyph-name="twosuperior" unicode="&#xb2;" horiz-adv-x="683" 
d="M123 1157h-63q14 68 53.5 118t99 78t129.5 28q67 0 121.5 -25.5t85 -70.5t30.5 -102q0 -77 -69 -166t-226 -215v-4h234q34 0 51 40h68l-66 -175h-535v35l131 102q84 65 138.5 119.5t78 103t23.5 100.5q0 58 -41 97.5t-102 39.5q-100 0 -141 -103z" />
    <glyph glyph-name="brokenbar" unicode="&#xa6;" horiz-adv-x="400" 
d="M109 327h183v-756h-183v756zM109 1381h183v-756h-183v756z" />
    <glyph glyph-name="minus" unicode="&#x2212;" horiz-adv-x="1344" 
d="M129 762h1084v-181h-1084v181z" />
    <glyph glyph-name="multiply" unicode="&#xd7;" horiz-adv-x="1344" 
d="M292 1179l381 -381l379 379l127 -127l-379 -379l381 -381l-129 -129l-381 381l-379 -379l-129 129l379 379l-379 379z" />
    <glyph glyph-name="Lslash" unicode="&#x141;" horiz-adv-x="1429" 
d="M1322 367h66l-123 -367h-1229v65h47q76 0 116.5 17.5t58 62.5t17.5 127v224l-239 -133v116l239 134v469q0 118 -38 164t-154 46h-35v64h744v-64h-46q-77 0 -118 -18t-58.5 -63.5t-17.5 -128.5v-311l348 198v-117l-348 -197v-407q0 -67 8 -94t33.5 -36t83.5 -9h246
q102 0 167 19t118.5 73t113.5 166z" />
    <glyph glyph-name="uni03A9" unicode="&#x3a9;" horiz-adv-x="1548" 
d="M1494 0h-559l22 275q96 38 156 100t88 152t28 215q0 255 -121 398q-63 75 -149.5 115.5t-189.5 40.5q-100 0 -183.5 -39t-144.5 -110.5t-94 -172t-33 -218.5q0 -131 37.5 -239t104.5 -169q30 -27 55.5 -41.5t74.5 -31.5l22 -275h-554v275h35q3 -60 30 -81
q26 -20 55 -27.5t82 -7.5h266v68q-135 40 -233 117t-148 187t-50 244q0 128 49.5 237.5t140 188t215 121t273.5 42.5q152 0 279.5 -43t217.5 -119.5t140.5 -186.5t50.5 -240q0 -134 -53.5 -248.5t-152 -192.5t-226.5 -107l-8 -68h271q87 0 123 24.5t44 91.5h39v-275z" />
    <glyph glyph-name="Euro" unicode="&#x20ac;" horiz-adv-x="1068" 
d="M867 731h-467q-3 -27 -3 -85h449l-21 -75h-428q7 -199 67 -357t197 -158q109 0 166 54t132 180l51 -36q-83 -150 -170.5 -221t-237.5 -71q-157 0 -264 86.5t-161.5 224t-65.5 298.5h-99l22 75h73q0 58 2 85h-97l22 79h83q21 150 95 282t195 211.5t270 79.5q69 0 120 -10
t97 -28t112 -51v-300h-65q-5 78 -31.5 148.5t-80 114t-131.5 43.5q-136 0 -205.5 -157.5t-87.5 -332.5h484z" />
    <glyph glyph-name="Eth" unicode="&#xd0;" horiz-adv-x="1786" 
d="M48 1356h895q194 0 341 -59.5t242 -157.5t142 -218t47 -242q0 -165 -88 -321.5t-275 -257t-465 -100.5h-839v65h63q77 0 117.5 18t58 63.5t17.5 128.5v384h-256v109h256v314q0 118 -40 164t-141 46h-75v64zM583 1223v-455h402v-109h-402v-518q38 -14 118.5 -25.5
t154.5 -11.5q140 0 244.5 45.5t170.5 123.5t97.5 181.5t31.5 218.5q0 176 -70.5 306.5t-201 201.5t-305.5 71q-123 0 -240 -29z" />
    <glyph glyph-name="eth" unicode="&#xf0;" horiz-adv-x="1217" 
d="M700 1267l217 114l52 -73l-183 -99q105 -76 185 -184.5t125.5 -236.5t45.5 -254t-39 -230t-112.5 -181.5t-175 -119t-223.5 -41.5q-174 0 -287 78.5t-163 192t-50 219.5q0 104 39.5 199t110.5 165t164 108.5t200 38.5q64 0 101 -7.5t75 -32.5l4 4q-31 68 -63 111t-84 95
l-266 -139l-52 72l250 133q-80 61 -198 117l46 65q156 -41 281 -114zM869 371q0 156 -34.5 270t-99.5 174t-154 60q-74 0 -126.5 -39.5t-79.5 -114.5t-27 -183q0 -201 75 -344.5t223 -143.5q111 0 167 82t56 239z" />
    <glyph glyph-name="pi1" horiz-adv-x="1106" 
d="M1032 254q-7 -60 -18 -103t-31 -78q-24 -47 -65.5 -75.5t-88.5 -28.5q-35 0 -69 16.5t-53 43.5q-31 43 -45 105.5t-14 165.5q0 61 7 156q3 26 5 51t9 97q2 18 5.5 47.5t6.5 54.5l6 52h-256l-4 -60q-17 -290 -39 -443.5t-57.5 -219.5t-92.5 -66q-33 0 -58 25t-25 58
q0 27 12 51.5t43 65.5q45 58 67 111.5t37 140.5q15 84 22 158t12 179h-44q-49 0 -72.5 -6.5t-50.5 -26.5q-45 -35 -89 -108h-38q51 157 114.5 220t171.5 63h692v-142h-238q-17 -108 -25.5 -219.5t-8.5 -211.5q0 -92 32.5 -140t90.5 -48q95 0 115 115h34z" />
    <glyph glyph-name="uni22C6" unicode="&#x22c6;" horiz-adv-x="1518" 
d="M306 -82l162 515q-48 35 -102.5 75.5t-110.5 82t-110.5 81.5t-100.5 74h531q19 58 40.5 124t43.5 133t43.5 132t40.5 121l168 -510h532l-425 -313q18 -59 39 -125t42 -133t41.5 -132.5t38.5 -123.5l-436 311z" />
    <glyph glyph-name="uni0D9A0DCA" horiz-adv-x="1665" 
d="M101 75q43 114 86 202.5t87.5 159t90.5 126t96 104.5q-9 57 -31 94t-50 37q-20 0 -38 -20.5t-34 -56.5q-10 -27 -19.5 -48.5t-22.5 -36t-30.5 -22t-43.5 -7.5q-47 0 -71.5 29t-24.5 78q0 30 17.5 65.5t48 66t73 51t93.5 20.5q87 0 140.5 -50t75.5 -136q63 51 119.5 86
t111 57.5t108.5 32.5t110 10q80 0 159 -29.5t148 -83.5v600h86q20 -17 48.5 -36t66.5 -39q77 -41 113.5 -88.5t36.5 -117.5q0 -34 -12.5 -65t-36 -54.5t-56 -37.5t-71.5 -14q-15 0 -32.5 2t-40.5 8v-264q48 -66 76 -148t28 -178q0 -76 -16.5 -143.5t-46.5 -118.5
t-72.5 -80.5t-94.5 -29.5q-65 0 -155 73l64 81q55 -52 88 -52q25 0 47 14.5t38 41t25 63.5t9 81q0 47 -14 99.5t-41 104t-67.5 98.5t-92.5 83t-116 57t-139 21q-69 0 -151 -28.5t-169 -92.5q39 8 74 12t62 4q91 0 162.5 -27.5t121 -77t75 -117.5t25.5 -150q0 -65 -16 -118
t-47.5 -91t-77 -58.5t-104.5 -20.5q-131 0 -207 120q-39 -59 -94.5 -89.5t-112.5 -30.5q-36 0 -63 19t-50.5 42t-45 42t-45.5 19q-7 0 -17.5 -3.5t-21.5 -12t-22 -22.5t-20 -34zM723 443q0 -61 11.5 -103.5t32.5 -69.5t49.5 -39t62.5 -12q62 0 96 30.5t34 91.5
q0 45 -17.5 84.5t-51.5 69.5t-83 47.5t-112 17.5q-67 0 -146 -17t-175 -51q-23 -27 -44 -55t-40.5 -59.5t-38.5 -68t-37 -79.5q23 5 36 5q35 0 74.5 -8t74.5 -8q42 0 73.5 10t53 35.5t33.5 69t14 109.5h100zM1402 1068q28 -10 53 -10q32 0 52 20.5t20 50.5q0 25 -7.5 43.5
t-23 35t-39 32t-55.5 34.5v-206z" />
    <glyph glyph-name="uni0D9A0DD2" horiz-adv-x="1665" 
d="M101 75q43 114 86 202.5t87.5 159t90.5 126t96 104.5q-9 57 -31 94t-50 37q-20 0 -38 -20.5t-34 -56.5q-10 -27 -19.5 -48.5t-22.5 -36t-30.5 -22t-43.5 -7.5q-47 0 -71.5 29t-24.5 78q0 30 17.5 65.5t48 66t73 51t93.5 20.5q87 0 140.5 -50t75.5 -136q5 4 9 7t9 7
q29 87 57 168.5t59.5 153t70 131.5t90 102.5t119.5 66.5t158 24q73 0 136 -29t109 -79.5t72 -117.5t26 -142q0 -127 -68 -251q73 -72 114 -173t41 -227q0 -76 -16.5 -143.5t-46.5 -118.5t-72.5 -80.5t-94.5 -29.5q-65 0 -155 73l64 81q55 -52 88 -52q25 0 47 14.5t38 41
t25 63.5t9 81q0 47 -15.5 99.5t-45 104t-72 98.5t-97 83t-120 57t-140.5 21q-34 0 -75.5 -7t-85.5 -21.5t-90 -37.5t-89 -55q39 8 74 12t62 4q91 0 164 -27.5t124 -77t78.5 -117.5t27.5 -150q0 -65 -18 -118t-51 -91t-80 -58.5t-106 -20.5q-131 0 -207 120
q-39 -59 -94.5 -89.5t-112.5 -30.5q-36 0 -63 19t-50.5 42t-45 42t-45.5 19q-7 0 -17.5 -3.5t-21.5 -12t-22 -22.5t-20 -34zM723 443q0 -61 11.5 -103.5t32.5 -69.5t49.5 -39t62.5 -12q62 0 101 30.5t39 91.5q0 45 -19 84.5t-55 69.5t-86.5 47.5t-113.5 17.5q-67 0 -146 -17
t-175 -51q-23 -27 -44 -55t-40.5 -59.5t-38.5 -68t-37 -79.5q23 5 36 5q35 0 74.5 -8t74.5 -8q42 0 73.5 10t53 35.5t33.5 69t14 109.5h100zM1356 978q0 50 -19 90t-53 67.5t-82.5 42.5t-106.5 15q-67 0 -128 -18.5t-112.5 -61t-92.5 -111.5t-67 -169q83 45 161.5 64.5
t156.5 19.5q85 0 160 -21t138 -61q9 14 17.5 32t14.5 37t9.5 38t3.5 36z" />
    <glyph glyph-name="uni0D9A0DD3" horiz-adv-x="1665" 
d="M101 55q46 133 86.5 227t82 163t87.5 121t104 101q-4 28 -12 52t-18.5 41.5t-23.5 27.5t-26 10q-22 0 -38.5 -19t-28.5 -43.5t-20.5 -48t-13.5 -32.5v1q-12 -21 -36 -35t-52 -14q-46 0 -71 29t-25 78q0 30 17.5 65.5t48 66t73 51t93.5 20.5q83 0 134.5 -43.5t76.5 -122.5
q14 32 32 78.5t36.5 95t35.5 93.5t31 74q31 65 75.5 118t101 90.5t123.5 58t142 20.5q78 0 141.5 -26.5t109 -71.5t70 -106t24.5 -130q0 -40 -10.5 -76.5t-30 -66.5t-47.5 -52t-64 -33q236 -135 236 -425q0 -76 -19.5 -147t-53.5 -125.5t-79.5 -87t-97.5 -32.5
q-66 0 -154 73l63 81q55 -52 88 -52q25 0 47 14.5t38 41t25 63.5t9 81q0 47 -19 98t-53 100.5t-80 93.5t-100.5 77.5t-114.5 53.5t-122 20q-33 0 -72 -7t-80 -20t-82.5 -31.5t-80.5 -41.5q37 7 71.5 11t59.5 4q91 0 164 -27.5t124 -77t78.5 -117.5t27.5 -150q0 -65 -18 -118
t-51 -91t-80.5 -58.5t-105.5 -20.5q-131 0 -207 120q-39 -59 -94 -89.5t-113 -30.5q-30 0 -53.5 4.5t-43.5 14t-38 24t-37 34.5h1q-25 25 -33 25q-29 0 -65 -81zM993 898q22 0 54 -2t55 -6q-11 18 -15.5 38t-4.5 42q0 55 25.5 106t73.5 85q-22 7 -45.5 13t-46.5 6
q-68 0 -128 -18t-112 -60.5t-96 -113.5t-81 -176q75 39 158 62.5t163 23.5zM1338 1032q0 64 -45 88q-24 -9 -44.5 -24.5t-35 -35.5t-22.5 -42.5t-8 -43.5q0 -27 16 -46t49 -19q20 0 36.5 11.5t28.5 29t18.5 39.5t6.5 43zM724 443q0 -61 11.5 -107t32.5 -76.5t49.5 -45.5
t61.5 -15q31 0 57 11t44.5 30t28.5 45t10 56q0 45 -19 84.5t-54.5 69t-86 47t-113.5 17.5q-68 0 -147 -17t-174 -51q-46 -54 -85 -123.5t-75 -157.5q22 5 35 5q36 0 75.5 -8t74.5 -8q82 0 125.5 56t47.5 188h101z" />
    <glyph glyph-name="uni0D9A0DD4" horiz-adv-x="1665" 
d="M101 53q46 133 86.5 227t82 163.5t87.5 121.5t104 100q-8 57 -30.5 94t-49.5 37q-14 0 -24.5 -6t-20.5 -20.5t-20 -37.5t-23 -56q-13 -34 -41.5 -52.5t-59.5 -18.5q-46 0 -71 29t-25 77q0 30 17.5 66t48.5 66.5t73.5 51t92.5 20.5q85 0 139 -49.5t77 -133.5
q48 43 103.5 77.5t113.5 58.5t117 36.5t115 12.5q71 0 139.5 -19.5t130 -55t113 -84t89.5 -107t59 -125t21 -136.5q0 -107 -19.5 -184t-57.5 -128.5t-96 -79.5t-133 -37q-35 -5 -59 -12.5t-39 -18t-21.5 -25t-6.5 -35.5t8 -37t28 -27t55.5 -17t91.5 -6q33 0 62 4t50.5 12
t34 20t12.5 29q0 23 -25 72l88 20q38 -55 38 -108q0 -46 -20 -85t-54.5 -67t-81 -43.5t-100.5 -15.5q-67 0 -120.5 15.5t-91 45t-57.5 71t-20 93.5q0 98 58 151.5t188 65.5q73 11 113.5 68t40.5 169q0 49 -19.5 102.5t-54 105.5t-81.5 98.5t-101.5 81.5t-114 56t-118.5 21
q-33 0 -73.5 -9t-83.5 -25t-87.5 -39.5t-85.5 -51.5q41 8 80 13t66 5q91 0 162.5 -27.5t121 -77t75 -117.5t25.5 -150q0 -65 -16 -118t-47.5 -91t-77 -58.5t-104.5 -20.5q-131 0 -207 120q-39 -59 -94 -89.5t-113 -30.5q-38 0 -66.5 16t-52 35t-44 35t-41.5 16
q-29 0 -65 -81zM724 443q0 -61 11.5 -107t32.5 -76.5t49.5 -45.5t61.5 -15q62 0 96 40.5t34 101.5q0 45 -17.5 84.5t-51.5 69t-82.5 47t-111.5 17.5q-131 0 -321 -68q-46 -54 -85 -123.5t-75 -157.5q22 5 35 5q36 0 75.5 -8t74.5 -8q82 0 125.5 56t47.5 188h101z" />
    <glyph glyph-name="uni0D9A0DD6" horiz-adv-x="1665" 
d="M101 55q46 133 86.5 227t82 163t87.5 121t104 101q-4 28 -12 52t-18.5 41.5t-23.5 27.5t-26 10q-20 0 -39 -20.5t-33 -57.5q-11 -27 -20.5 -48t-22.5 -35.5t-30.5 -22t-43.5 -7.5q-46 0 -71 29t-25 78q0 30 17.5 65.5t48 66t73 51t93.5 20.5q87 0 140.5 -50t76.5 -136
q112 86 224 136t224 50q118 0 223 -38.5t183.5 -108.5t124 -166.5t45.5 -211.5q0 -61 -14.5 -118.5t-40.5 -105.5t-61.5 -83t-76.5 -52q16 -15 32.5 -29.5t30.5 -25.5l-41 -76q-65 23 -95 23q-36 0 -36 -7t2.5 -14.5t13 -17.5t33 -22t61.5 -28l-40 -76q-33 17 -58 20.5
t-41 3.5q-18 0 -32.5 -7t-14.5 -17q0 -27 31.5 -50t96.5 -23q82 0 120.5 28t38.5 96l94 6q23 -42 23 -99q0 -44 -21 -82.5t-56.5 -67.5t-83.5 -46t-102 -17q-55 0 -103.5 18t-85 50t-58 75t-21.5 94q0 40 29.5 76.5t80.5 50.5q-14 25 -14 51q0 34 21.5 59t61.5 36
q-23 20 -46 38.5t-43 41.5l65 78q48 -52 87 -52q26 0 49.5 12.5t41 35.5t28 57t10.5 76q0 43 -19 94t-53.5 102.5t-82 99.5t-104.5 85t-121.5 59.5t-132.5 22.5q-34 0 -73.5 -9.5t-81 -25.5t-83.5 -38.5t-82 -47.5q40 8 75 12t61 4q92 0 163.5 -27.5t120.5 -77t74.5 -117.5
t25.5 -150q0 -65 -16 -118t-47.5 -91t-77 -58.5t-104.5 -20.5q-131 0 -207 120q-38 -59 -93.5 -89.5t-113.5 -30.5q-59 0 -96.5 18t-73.5 59q-25 25 -34 25q-29 0 -65 -81zM724 442q0 -61 11.5 -103.5t32.5 -69t49.5 -38.5t61.5 -12q63 0 96.5 30.5t33.5 91.5
q0 45 -17.5 84.5t-51 69t-82.5 47t-112 17.5q-131 0 -321 -68q-45 -54 -84.5 -114t-75.5 -147q22 5 35 5q37 0 75.5 -8t74.5 -8q41 0 72.5 10t53.5 35.5t33.5 68.5t13.5 109h101z" />
    <glyph glyph-name="uni0D9A.reph" horiz-adv-x="1665" 
d="M110 55q46 133 87 227.5t83 165t87.5 125t102.5 108.5q-8 56 -30 86.5t-50 30.5q-20 0 -39 -20.5t-33 -57.5q-11 -27 -20.5 -48t-22.5 -35.5t-30.5 -22t-43.5 -7.5q-46 0 -71 29t-25 78q0 30 17.5 65.5t48 66t73 51t93.5 20.5q85 0 139 -44.5t77 -128.5q48 35 93.5 65
t90.5 50q-42 29 -67 73.5t-25 92.5q0 50 24 97.5t66 84.5t99 59.5t123 22.5q70 0 126.5 -23.5t96.5 -61.5t62 -86.5t22 -98.5q0 -34 -11.5 -73t-32.5 -71q69 -27 128.5 -74.5t103 -110.5t68 -138.5t24.5 -159.5q0 -76 -19.5 -147t-53.5 -125.5t-79.5 -87t-97.5 -32.5
q-66 0 -154 73l63 81q55 -52 88 -52q25 0 47 14.5t38 41t25 63.5t9 81q0 47 -18.5 99.5t-51 104t-77.5 98.5t-98 83t-112.5 57t-121.5 21q-36 0 -77 -8t-84.5 -24t-87 -39t-85.5 -53q42 8 82.5 13.5t67.5 5.5q91 0 162.5 -27.5t121 -77t75 -117.5t25.5 -150q0 -65 -16 -118
t-47.5 -91t-77 -58.5t-104.5 -20.5q-131 0 -207 120q-39 -59 -94 -89.5t-113 -30.5q-30 0 -53.5 4.5t-43.5 14t-38 24t-37 34.5h1q-25 25 -33 25q-29 0 -65 -81zM1107 995q0 -49 -27 -85q11 -2 20.5 -4t19.5 -4q44 47 44 117q0 27 -17 56.5t-46 54.5t-66.5 41.5t-77.5 16.5
q-45 0 -83.5 -15.5t-67 -39t-44.5 -51.5t-16 -53q0 -28 13 -52t42 -40q-11 25 -11 58t12.5 60t34 46.5t51 30.5t63.5 11q33 0 61.5 -11.5t49.5 -32t33 -47.5t12 -57zM892 985q0 -26 17 -40t40 -14q26 0 41.5 15t15.5 39q0 21 -15.5 38.5t-39.5 17.5q-30 0 -44.5 -16.5
t-14.5 -39.5zM733 433q0 -61 11.5 -105.5t32.5 -73t49.5 -42t61.5 -13.5q62 0 96 40.5t34 101.5q0 45 -17.5 84.5t-51.5 69t-82.5 47t-111.5 17.5q-68 0 -147 -17t-174 -51q-46 -54 -85 -123.5t-75 -157.5q22 5 35 5q36 0 75.5 -8t74.5 -8q83 0 127.5 58.5t44.5 175.5h102z
" />
    <glyph glyph-name="uni0D9A.rakar" horiz-adv-x="1665" 
d="M105 55q46 133 86.5 227t82 163t87.5 121t104 101q-4 28 -12 52t-18.5 41.5t-23.5 27.5t-26 10q-20 0 -39 -20.5t-33 -57.5q-11 -27 -20.5 -48t-22.5 -35.5t-30.5 -22t-43.5 -7.5q-46 0 -71 29t-25 78q0 30 17.5 65.5t48 66t73 51t93.5 20.5q87 0 140.5 -50t75.5 -136
q113 85 224.5 130.5t224.5 45.5q122 0 223.5 -37t174.5 -105t113.5 -163t40.5 -210q0 -129 -28.5 -245t-79 -214.5t-120.5 -177.5t-152.5 -134.5t-175 -85t-187.5 -29.5q-399 0 -634 352l78 64q41 -51 95 -91.5t117.5 -68t134.5 -42.5t145 -15q95 0 188 20.5t175.5 60.5
t150.5 98t115 132q-33 -16 -72 -16q-66 0 -154 73l63 81q55 -52 88 -52q25 0 47 14.5t38 41t25 63.5t9 81q0 47 -19 99t-53 102t-80 96t-100.5 80.5t-114.5 55t-122 20.5q-34 0 -73.5 -8t-80.5 -22.5t-83 -35t-81 -45.5q35 6 73 11t61 5q91 0 164 -27.5t124 -77t78.5 -117.5
t27.5 -150q0 -65 -16 -118t-47.5 -91t-77 -58.5t-104.5 -20.5q-66 0 -122.5 30t-94.5 90q-39 -59 -94 -89.5t-113 -30.5q-30 0 -53.5 4.5t-43.5 14t-38 24t-37 34.5h1q-25 25 -33 25q-29 0 -65 -81zM728 462q0 -61 13.5 -110t36 -83t52.5 -52t63 -18q62 0 96 40.5t34 101.5
q0 45 -19 84.5t-54.5 69t-86 47t-113.5 17.5q-68 0 -147 -17t-174 -51q-46 -54 -85 -123.5t-75 -157.5q22 5 35 5q40 0 76 -8t74 -8q166 0 173 263h101z" />
    <glyph glyph-name="uni0D9A0DD2.rakar" horiz-adv-x="1665" 
d="M109 55q46 133 86.5 227t82 163t87.5 121t104 101q-8 55 -30 88t-50 33q-26 0 -44.5 -23t-27.5 -53q-12 -37 -26 -59.5t-29 -34.5t-31 -16t-31 -4q-46 0 -71 28.5t-25 77.5q0 30 17.5 65.5t48 66t73 51t93.5 20.5q79 0 131.5 -40t78.5 -115q15 38 33 85l36 94t35.5 90
t31.5 72q31 65 72.5 119t93.5 92.5t114.5 60t135.5 21.5t136 -32.5t109 -86.5t72 -124t26 -145q0 -63 -12 -123t-44 -118q37 -35 69.5 -76t57 -86.5t38.5 -96.5t14 -106q0 -129 -29 -244.5t-81 -214t-123 -177.5t-155 -134.5t-177 -85.5t-189 -30q-399 0 -634 352l78 64
q41 -51 95 -91.5t117.5 -68t134.5 -42.5t145 -15q95 0 189.5 20.5t179 60.5t154.5 98t117 132q-33 -16 -72 -16q-33 0 -62 15.5t-72 51.5l63 81q13 -13 22.5 -21.5t16.5 -14t13.5 -8t15.5 -2.5q25 0 47 14.5t38 41t25 63.5t9 81q0 47 -20 99t-55 102t-82.5 96t-103 80.5
t-116.5 55t-123 20.5q-34 0 -73.5 -8t-80.5 -22.5t-83 -35t-81 -45.5q35 6 73 11t61 5q91 0 167.5 -27.5t131.5 -77t85.5 -117.5t30.5 -150q0 -65 -21 -118t-58.5 -91t-88 -58.5t-108.5 -20.5q-131 0 -207 120q-39 -59 -94 -89.5t-113 -30.5q-30 0 -53.5 4.5t-43.5 14
t-38 24t-37 34.5h1q-25 25 -33 25q-29 0 -65 -81zM1001 907q82 0 156.5 -22.5t140.5 -64.5q17 27 29 64t12 69q0 50 -19 93t-53.5 74.5t-82.5 49.5t-107 18q-68 0 -124.5 -19.5t-105 -63.5t-89.5 -115.5t-78 -175.5q75 41 158 67t163 26zM732 462q0 -123 44 -187.5
t111 -64.5q63 0 101.5 35t38.5 96q0 45 -19 84.5t-54.5 69t-86 47t-113.5 17.5q-68 0 -147 -17t-174 -51q-46 -54 -85 -118.5t-75 -151.5q22 5 35 5q40 0 76 -8t74 -8q82 0 125.5 60t47.5 192h101z" />
    <glyph glyph-name="uni0D9A0DD3.rakar" horiz-adv-x="1665" 
d="M111 55q46 133 86.5 228.5t82 166.5t87.5 124.5t104 101.5q-8 55 -30 83.5t-50 28.5q-44 0 -72 -77q-11 -29 -20.5 -50t-22 -35t-30 -21t-44.5 -7q-46 0 -71 28.5t-25 77.5q0 30 17.5 65.5t48 66t73 51t93.5 20.5q82 0 134 -35t77 -112q15 35 33 82t36 95t35 92t31 73
q31 64 74 117.5t97.5 91.5t119.5 59t141 21q78 0 141.5 -26.5t109 -72.5t70 -107t24.5 -130q0 -41 -10.5 -77.5t-30 -66.5t-48.5 -52t-65 -32q113 -69 175.5 -181t62.5 -254q0 -117 -25.5 -228.5t-72 -210t-112.5 -180.5t-147.5 -141.5t-176.5 -92.5t-199 -33
q-399 0 -634 352l78 64q41 -51 95 -91.5t117.5 -68t134.5 -42.5t145 -15q95 0 186.5 20.5t172 60.5t147 98t113.5 132q-33 -16 -72 -16q-66 0 -154 73l63 81q55 -52 88 -52q25 0 47 14.5t38 41t25 63.5t9 81q0 47 -18.5 99t-51 102t-77.5 96t-98 80.5t-112.5 55t-121.5 20.5
q-34 0 -73.5 -8t-80.5 -22.5t-83 -35t-81 -45.5q35 6 73 11t61 5q91 0 164 -27.5t124 -77t78.5 -117.5t27.5 -150q0 -65 -18 -118t-51 -91t-80.5 -58.5t-105.5 -20.5q-131 0 -207 120q-39 -59 -94 -89.5t-113 -30.5q-30 0 -53.5 4.5t-43.5 14t-38 24t-37 34.5h1
q-25 25 -33 25q-29 0 -65 -81zM1003 907q22 0 49 -2t50 -5q-11 18 -15.5 37.5t-4.5 42.5q0 58 22.5 107t73.5 83q-14 9 -39 15.5t-50 6.5q-68 0 -126.5 -18.5t-108.5 -61.5t-92.5 -114t-79.5 -176q75 39 158 62t163 23zM1338 1041q0 63 -45 89q-24 -9 -44.5 -25t-35 -36
t-22.5 -42t-8 -43q0 -28 16 -46.5t49 -18.5q20 0 36.5 11.5t28.5 29t18.5 39t6.5 42.5zM734 462q0 -61 11.5 -110t32.5 -83t49.5 -52t61.5 -18q31 0 57 11t44.5 30t28.5 45t10 56q0 45 -19 84.5t-54.5 69t-86 47t-113.5 17.5q-68 0 -147 -17t-174 -51q-46 -54 -85 -123.5
t-75 -157.5q22 5 35 5q40 0 76 -8t74 -8q166 0 173 263h101z" />
    <glyph glyph-name="uni0D9A0DCA200D0DC0" horiz-adv-x="2263" 
d="M107 55q46 133 86.5 227t82 163t87.5 121t104 101q-8 55 -30 88t-50 33q-20 0 -39 -20t-33 -57q-11 -27 -20.5 -48.5t-22.5 -35.5t-30.5 -21.5t-43.5 -7.5q-46 0 -71 28.5t-25 77.5q0 30 17.5 65.5t48 66t73 51t93.5 20.5q85 0 139.5 -47t77.5 -131q47 32 113.5 63.5
t139.5 57t147.5 41.5t137.5 16q88 0 170.5 -21t146.5 -55.5t103 -80t39 -93.5q0 -23 -4.5 -41t-17 -30.5t-35 -19.5t-58.5 -7h-83q-47 0 -87 -13t-69 -35t-45.5 -51t-16.5 -62q0 -50 29.5 -84.5t85 -55.5t135 -30t180.5 -9q113 0 204.5 25.5t156.5 72.5t100 113.5t35 148.5
q0 79 -21 151.5t-57 134.5t-85 112.5t-105 86t-116 55t-119 19.5q-67 0 -124.5 -13.5t-106.5 -37t-89.5 -54.5t-73.5 -66l-85 51q36 43 86 83t110.5 71t131 49.5t147.5 18.5q138 0 250 -53t191.5 -143.5t123 -211.5t43.5 -257q0 -135 -48 -241.5t-131 -181t-194.5 -113.5
t-238.5 -39q-72 0 -137.5 9.5t-121.5 29t-100 48t-73 67.5q-15 -37 -39 -66t-54.5 -48.5t-66 -29.5t-72.5 -10q-131 0 -207 120q-39 -59 -94 -89.5t-113 -30.5q-59 0 -96.5 18t-74.5 59h1q-13 12 -21 18.5t-13 6.5q-29 0 -65 -81zM1076 775q-57 0 -116.5 -9t-119 -26
t-116.5 -41t-108 -54q36 6 70.5 10.5t57.5 4.5q52 0 101 -8.5t91.5 -25.5t78 -43t61.5 -61q38 66 113.5 102t184.5 36h40.5h21.5t11 -1q-1 4 -19 23t-61 39.5t-114 37t-177 16.5zM730 462q0 -123 44 -188t111 -65q31 0 58 9t47.5 26.5t32.5 42t12 54.5q0 45 -20.5 84.5
t-58 69t-89.5 47t-115 17.5q-131 0 -321 -68q-45 -54 -84.5 -119t-75.5 -152q22 5 35 5q36 0 75.5 -8t74.5 -8q82 0 125.5 60.5t47.5 192.5h101z" />
    <glyph glyph-name="uni0D9A0DCA200D0DC00DCA" horiz-adv-x="2263" 
d="M107 55q46 133 86.5 227t82 163t88 121t104.5 101q-9 55 -30.5 83.5t-50.5 28.5q-19 0 -38.5 -20.5t-33.5 -57.5q-11 -27 -20.5 -48.5t-22 -35.5t-30 -21.5t-44.5 -7.5q-46 0 -70.5 28.5t-24.5 78.5q0 30 17 65.5t48 66t73.5 51t93.5 20.5q85 0 139 -43t77 -126
q48 31 117.5 63t146 58t154 42t140.5 16q87 0 172.5 -21t153 -56t109.5 -80t42 -94q0 -23 -4.5 -41t-17 -30.5t-35 -19.5t-58.5 -7h-83q-48 0 -94 -13t-82 -35t-58 -51t-22 -62q0 -50 28 -84.5t82 -55.5t132 -30t179 -9q113 0 206 25.5t159.5 72.5t103 113.5t36.5 148.5
q0 44 -21 93t-57.5 97t-87 91.5t-109 76.5t-123 52.5t-130.5 19.5q-49 0 -88 -4t-76 -12.5t-76 -22t-87 -32.5l-52 82q26 13 48 22.5t48 19.5q-44 55 -44 84q0 25 27.5 47.5t71 39.5t98.5 26.5t110 9.5q97 0 183 -27t158 -75t129.5 -114t97.5 -143t61 -162.5t21 -172.5
q0 -137 -50.5 -243.5t-136 -180.5t-198.5 -112.5t-237 -38.5q-143 0 -252.5 40.5t-171.5 115.5q-32 -74 -95 -115t-136 -41q-132 0 -206 120q-39 -59 -94.5 -89.5t-112.5 -30.5q-30 0 -53.5 4.5t-43.5 14t-38 24t-37 34.5h1q-25 25 -33 25q-30 0 -66 -81zM1310 1144
q0 -3 4 -10t10 -14.5t13 -15t13 -13.5q110 19 171 19q114 0 212 -34.5t182 -94.5q-83 103 -185 145t-220 42q-31 0 -66 -2.5t-65 -6t-49.5 -7.5t-19.5 -8zM1095 775q-56 0 -117.5 -9.5t-123 -26.5t-121 -41t-112.5 -52q35 6 68 10t56 4q104 0 190.5 -35t140.5 -105
q21 34 55.5 60.5t78 44t95 26.5t107.5 9h40.5h21.5t11 -1q-2 4 -23 23t-66.5 39.5t-119 37t-181.5 16.5zM730 462q0 -123 44 -188t111 -65q32 0 59.5 9t47.5 26.5t31.5 42t11.5 54.5q0 45 -20.5 84.5t-57.5 69t-89.5 47t-115.5 17.5q-67 0 -146 -17t-175 -51
q-45 -54 -84.5 -123.5t-75.5 -157.5q23 5 36 5q35 0 74.5 -8t74.5 -8q167 0 174 263h100z" />
    <glyph glyph-name="uni0D9A0DCA200D0DC00DD2" horiz-adv-x="2263" 
d="M107 55q46 133 86.5 227t82 163t88 121t104.5 101q-9 55 -30.5 88t-50.5 33q-19 0 -38.5 -20t-33.5 -57q-11 -27 -20.5 -48.5t-22 -35.5t-30 -21.5t-44.5 -7.5q-46 0 -70.5 28.5t-24.5 77.5q0 30 17 65.5t48 66t73.5 51t93.5 20.5q85 0 139 -47t77 -131q64 46 135 79.5
t143 55.5t143.5 32.5t136.5 10.5q87 0 166.5 -21t140 -55.5t96 -80t35.5 -93.5q0 -23 -4.5 -41t-17 -30.5t-35 -19.5t-58.5 -7h-82q-47 0 -87 -13t-69 -35t-45.5 -51t-16.5 -62q0 -199 402 -199q109 0 204.5 28t166.5 80t112 126.5t41 167.5q0 81 -34.5 140.5t-95 99.5
t-143 61t-177.5 24q-120 7 -197 20.5t-112 36.5q-74 47 -74 147q0 54 26.5 100.5t77.5 81t126 54.5t173 20q90 0 173.5 -23t148.5 -62.5t104 -92.5t39 -114q0 -54 -29.5 -95.5t-80.5 -62.5q83 -58 130 -148.5t47 -199.5q0 -137 -52.5 -246t-141 -185t-204.5 -116.5
t-243 -40.5q-143 0 -244.5 39.5t-161.5 117.5q-16 -37 -40.5 -66t-54.5 -49.5t-64.5 -31t-70.5 -10.5q-132 0 -206 120q-39 -59 -94.5 -89.5t-112.5 -30.5q-30 0 -53.5 4.5t-43.5 14t-38 24t-37 34.5h1q-25 25 -33 25q-30 0 -66 -81zM1337 1110q0 -33 53.5 -52.5
t150.5 -24.5q12 -1 38 -2.5t58.5 -4t67.5 -5t66 -4.5t54 -3.5t31 -1.5q63 0 94.5 18t31.5 45q0 23 -28 43.5t-83.5 36t-139.5 24.5t-195 9q-103 0 -151 -21.5t-48 -56.5zM1095 775q-57 0 -118.5 -9t-123.5 -26t-121.5 -40.5t-112.5 -53.5q35 6 69 10t57 4q104 0 190 -34.5
t140 -104.5q38 72 112 105.5t187 33.5h40.5h21.5t11 -1q-1 4 -16 23t-54 39.5t-107 37t-175 16.5zM730 462q0 -61 11.5 -110t32.5 -83t49.5 -52t61.5 -18q32 0 59.5 11t47.5 30t31.5 45t11.5 56q0 45 -20.5 84.5t-57.5 69t-89.5 47t-115.5 17.5q-67 0 -146 -17t-175 -51
q-45 -54 -84.5 -123.5t-75.5 -157.5q23 5 36 5q35 0 74.5 -8t74.5 -8q167 0 174 263h100z" />
    <glyph glyph-name="uni0D9A0DCA200D0DC00DD3" horiz-adv-x="2263" 
d="M107 55q46 133 86.5 227t82 163t88 121t104.5 101q-9 55 -30.5 88t-50.5 33q-19 0 -38.5 -20t-33.5 -57q-11 -27 -20.5 -48.5t-22 -35.5t-30 -21.5t-44.5 -7.5q-46 0 -70.5 28.5t-24.5 77.5q0 30 17 65.5t48 66t73.5 51t93.5 20.5q85 0 139 -47t77 -131q48 32 117.5 63.5
t146 57t154 41.5t140.5 16q87 0 166.5 -21t140 -55.5t96 -80t35.5 -93.5q0 -23 -4.5 -41t-17 -30.5t-35 -19.5t-58.5 -7h-82q-47 0 -87 -13t-69 -35t-45.5 -51t-16.5 -62q0 -50 25 -84.5t75.5 -55.5t125.5 -30t176 -9q109 0 204.5 25t166.5 73t112 119.5t41 164.5
q0 99 -40 164t-109 104t-162.5 57t-199.5 24q-87 6 -148 19.5t-100 37t-56.5 59t-17.5 84.5q0 57 29 101t82.5 74t127.5 45.5t164 15.5t173.5 -19.5t148.5 -55.5t104 -86t39 -111q0 -54 -29.5 -95.5t-80.5 -62.5q41 -29 74 -70t56 -89t35 -101.5t12 -107.5
q0 -137 -52.5 -246t-141 -185t-204.5 -116.5t-243 -40.5q-143 0 -244.5 39.5t-161.5 117.5q-16 -37 -40.5 -66t-54.5 -49.5t-64.5 -31t-70.5 -10.5q-132 0 -206 120q-39 -59 -94.5 -89.5t-112.5 -30.5q-30 0 -53.5 4.5t-43.5 14t-38 24t-37 34.5h1q-25 25 -33 25
q-30 0 -66 -81zM1095 775q-57 0 -118.5 -9t-123.5 -26t-121.5 -40.5t-112.5 -53.5q35 6 69 10t57 4q104 0 190 -34.5t140 -104.5q38 72 112 105.5t187 33.5h40.5h21.5t11 -1q-1 4 -16 23t-54 39.5t-107 37t-175 16.5zM730 462q0 -61 14.5 -106.5t39 -76t56 -45.5t65.5 -15
q62 0 96 30.5t34 91.5q0 45 -20.5 84.5t-57.5 69t-89.5 47t-115.5 17.5q-67 0 -146 -17t-175 -51q-45 -54 -84.5 -123.5t-75.5 -157.5q23 5 36 5q35 0 74.5 -8t74.5 -8q167 0 174 263h100zM1620 1047q20 -2 39.5 -3.5t40.5 -3.5q-22 36 -22 74q0 41 19 69q-38 3 -78 4t-83 1
q-103 0 -151 -13t-48 -47q0 -22 23.5 -35.5t63 -22.5t90.5 -14t106 -9zM1982 1095q0 30 -32 52.5t-92 22.5q-79 0 -79 -56q0 -16 10 -29.5t27 -23t39.5 -15t47.5 -5.5q38 0 58.5 17t20.5 37z" />
    <glyph glyph-name="uni0D9A0DCA200D0DC00DD4" horiz-adv-x="2263" 
d="M107 55q46 133 86.5 227t82 163t87.5 121t104 101q-8 55 -30 88t-50 33q-20 0 -39 -20t-33 -57q-11 -27 -20.5 -48.5t-22.5 -35.5t-30.5 -21.5t-43.5 -7.5q-46 0 -71 28.5t-25 77.5q0 30 17.5 65.5t48 66t73 51t93.5 20.5q85 0 139.5 -47t77.5 -131q47 32 113.5 63.5
t140 57t147.5 41.5t137 16q88 0 167.5 -21t140 -55.5t96 -80t35.5 -93.5q0 -23 -4.5 -41t-17 -30.5t-35 -19.5t-58.5 -7h-82q-48 0 -88.5 -12.5t-69.5 -34.5t-45 -51.5t-16 -62.5q0 -50 25 -84.5t75.5 -55.5t126 -30t176.5 -9q112 0 208 25.5t166.5 72.5t110 113.5
t39.5 148.5q0 79 -20.5 152t-55.5 136.5t-83 115t-102.5 88.5t-114 57t-118.5 20q-134 0 -236 -44t-165 -119l-85 53q34 46 84 84.5t112.5 66.5t135 44t150.5 16q82 0 159 -24.5t143.5 -68.5t121.5 -105.5t94 -136t60.5 -159t21.5 -174.5v-1051h-920q-47 0 -85 14t-65 39.5
t-41.5 62t-14.5 81.5q0 44 16.5 82t44.5 66t65.5 44t80.5 16q155 0 227 -166l-87 -41q-59 105 -129 105q-51 0 -84 -29.5t-33 -74.5q0 -48 28 -73.5t77 -25.5h801v584q-45 -49 -106.5 -88.5t-131.5 -67.5t-143.5 -43t-141.5 -15q-287 0 -404 154q-29 -75 -83 -114.5
t-129 -39.5q-131 0 -207 120q-38 -59 -93.5 -89.5t-113.5 -30.5q-59 0 -96.5 18t-74.5 59h1q-25 25 -34 25q-29 0 -65 -81zM1076 775q-57 0 -116.5 -9t-119 -26t-116.5 -41t-108 -54q36 6 70.5 10.5t57.5 4.5q106 0 183.5 -33t128.5 -104q16 34 41 59.5t61 42.5t85 26t112 9
q71 0 72 -1q-1 4 -16 23t-54 39.5t-107 37t-174 16.5zM730 442q0 -61 11.5 -104.5t32.5 -71.5t49.5 -41t61.5 -13q63 0 96.5 34t33.5 95q0 45 -17.5 84.5t-51 69t-82.5 47t-112 17.5q-67 0 -146 -17t-175 -51q-45 -54 -84.5 -123.5t-75.5 -157.5q23 5 36 5q35 0 74.5 -8
t74.5 -8q82 0 126 55.5t47 187.5h101z" />
    <glyph glyph-name="uni0D9A0DCA200D0DC00DD6" horiz-adv-x="2263" 
d="M107 55q46 133 86.5 227t82 163t87.5 121t104 101q-8 55 -30 88t-50 33q-20 0 -39 -20t-33 -57q-11 -27 -20.5 -48.5t-22.5 -35.5t-30.5 -21.5t-43.5 -7.5q-46 0 -71 28.5t-25 77.5q0 30 17.5 65.5t48 66t73 51t93.5 20.5q85 0 139.5 -47t77.5 -131q47 32 113.5 63.5
t140 57t147.5 41.5t137 16q88 0 167.5 -21t140 -55.5t96 -80t35.5 -93.5q0 -23 -4.5 -41t-17 -30.5t-35 -19.5t-58.5 -7h-82q-48 0 -88 -13t-69 -35t-45.5 -51t-16.5 -62q0 -50 25 -84.5t75.5 -55.5t126 -30t176.5 -9q112 0 211 25.5t172 72.5t115.5 113.5t42.5 148.5
q0 79 -19 150.5t-52 132.5t-78 110.5t-98 84t-111 53t-117 18.5q-264 0 -401 -193l-85 53q75 118 200 179.5t282 61.5q83 0 158.5 -23t140 -65.5t116.5 -102t89 -132.5t57 -156.5t20 -174.5v-1058h-85q-95 120 -223 120q-49 -1 -95 -8t-104 -29l-112 -42q-60 -23 -121.5 -34
t-121.5 -11q-54 0 -97.5 16t-73.5 44.5t-46.5 67t-16.5 83.5q0 40 15.5 77.5t43 66.5t65.5 46.5t83 17.5q154 0 227 -166l-89 -42q-53 107 -130 107q-28 0 -49.5 -9t-36 -23.5t-22 -33t-7.5 -37.5q0 -24 9 -45t25 -36.5t37.5 -24t45.5 -8.5q70 0 128.5 20t114.5 43h-1
q172 81 294 81q125 0 224 -66v522q-45 -49 -109 -88.5t-137 -67.5t-149.5 -43t-144.5 -15q-287 0 -404 154q-29 -75 -83 -114.5t-129 -39.5q-131 0 -207 120q-38 -59 -93.5 -89.5t-113.5 -30.5q-59 0 -96.5 18t-74.5 59h1q-25 25 -34 25q-29 0 -65 -81zM1076 775
q-57 0 -116.5 -9t-119 -26t-116.5 -41t-108 -54q36 6 70.5 10.5t57.5 4.5q104 0 182.5 -34.5t129.5 -103.5q37 71 111 104.5t188 33.5h40.5h21t10.5 -1q-1 4 -16 23t-54 39.5t-107 37t-174 16.5zM730 462q0 -122 44 -182.5t111 -60.5q63 0 96.5 30.5t33.5 91.5
q0 45 -17.5 84.5t-51 69t-82.5 47t-112 17.5q-67 0 -146 -17t-175 -51q-45 -54 -84.5 -123.5t-75.5 -157.5q23 5 36 5q35 0 74.5 -8t74.5 -8q167 0 173 263h101z" />
    <glyph glyph-name="uni0D9A0DCA200D0DC2" horiz-adv-x="2187" 
d="M114 55q46 133 86.5 227t82 163t87.5 121t104 101q-9 55 -30.5 88t-50.5 33q-19 0 -38 -20t-33 -57q-11 -27 -20.5 -48.5t-22.5 -35.5t-30.5 -21.5t-43.5 -7.5q-47 0 -71.5 28.5t-24.5 77.5q0 30 17.5 65.5t48 66t73 51t93.5 20.5q85 0 139 -47t77 -131q48 32 114 63.5
t139.5 57t148 41.5t137.5 16q87 0 163.5 -19.5t133.5 -52.5t89.5 -76.5t32.5 -91.5q0 -23 -4.5 -39.5t-17 -27.5t-35 -16t-58.5 -5h-63q-45 0 -81 -15t-61 -42t-38.5 -64t-13.5 -80q0 -179 378 -179q103 0 185.5 11.5t140 34t88 57t30.5 80.5q0 71 -58 117
q-17 -11 -37.5 -20.5t-43.5 -14.5q18 -29 18 -63q0 -76 -63 -114t-172 -38h-119q-106 0 -161.5 40.5t-55.5 108.5q0 42 18 68.5t52.5 42t84 21.5t111.5 6h75q27 0 52.5 -2t60.5 -2q22 0 41 3t33 17q-24 18 -50.5 23.5t-55.5 5.5h-104q4 76 23.5 136.5t51 102.5t73 64.5
t91.5 22.5q38 0 71.5 -13t58.5 -36.5t39.5 -56.5t14.5 -74q0 -64 -38 -131q53 -37 80 -101.5t27 -136.5q0 -85 -40.5 -151.5t-114 -112.5t-176.5 -70t-228 -24q-81 0 -144 8.5t-113.5 26.5t-90 46.5t-72.5 69.5q-27 -70 -82.5 -110.5t-131.5 -40.5q-131 0 -207 120
q-39 -59 -94.5 -89.5t-112.5 -30.5q-30 0 -53.5 4.5t-43.5 14t-38 24t-37 34.5h1q-25 25 -33 25q-29 0 -65 -81zM1082 775q-57 0 -116.5 -9t-119 -26t-116.5 -41t-108 -54q36 6 70.5 10.5t58.5 4.5q211 0 313 -140q42 69 120.5 109.5t176.5 40.5h29.5h16t8.5 -1q-1 4 -13 21
t-47.5 36t-101 34t-171.5 15zM1803 723q-40 0 -63.5 -12t-34.5 -41q53 -1 97 -7.5t84 -20.5q5 10 5.5 16t0.5 11q0 23 -25 38.5t-64 15.5zM736 462q0 -61 12 -110t33 -83t49.5 -52t61.5 -18q62 0 96 40.5t34 101.5q0 45 -17.5 84.5t-51.5 69t-83 47t-112 17.5
q-67 0 -146 -17t-175 -51q-45 -54 -84.5 -123.5t-74.5 -157.5q22 5 35 5q35 0 74.5 -8t74.5 -8q167 0 174 263h100zM1373 399q0 -18 39.5 -32.5t120.5 -14.5q43 0 81.5 4t66.5 11t44.5 16.5t16.5 19.5q0 23 -37 32.5t-120 9.5q-103 0 -157.5 -10t-54.5 -36z" />
    <glyph glyph-name="uni0D9A0DCA200D0DC20DCA" horiz-adv-x="2187" 
d="M114 55q46 133 86.5 227t82 163t87.5 121t104 101q-9 55 -30.5 88t-50.5 33q-19 0 -38 -20t-33 -57q-11 -27 -20.5 -48.5t-22.5 -35.5t-30.5 -21.5t-43.5 -7.5q-47 0 -71.5 28.5t-24.5 77.5q0 30 17.5 65.5t48 66t73 51t93.5 20.5q85 0 139 -47t77 -131q48 32 114 65.5
t139.5 60.5t148 44.5t137.5 17.5q87 0 163.5 -21t133.5 -55.5t89.5 -80t32.5 -93.5q0 -23 -4.5 -39.5t-17 -27.5t-35 -16t-58.5 -5h-63q-45 0 -81 -15t-61 -42t-38.5 -64t-13.5 -80q0 -179 378 -179q103 0 185.5 11.5t140 34t88 57t30.5 80.5q0 71 -58 117
q-17 -11 -37.5 -20.5t-43.5 -14.5q18 -29 18 -63q0 -76 -63 -114t-172 -38h-119q-106 0 -161.5 40.5t-55.5 108.5q0 42 18 68.5t52.5 42t84 21.5t111.5 6h75q27 0 52.5 -2t60.5 -2q22 0 41 3t33 17q-24 18 -50.5 23.5t-55.5 5.5h-104q4 75 23 135t50 102t72 65t90 24v488h86
q20 -16 48.5 -35t67.5 -40q80 -43 114.5 -91.5t34.5 -114.5q0 -34 -12 -65t-35 -54.5t-55.5 -37.5t-73.5 -14q-15 0 -32.5 1.5t-40.5 8.5v-71q38 -23 62 -62.5t24 -92.5q0 -64 -38 -131q53 -37 80 -101.5t27 -136.5q0 -85 -40.5 -151.5t-114 -112.5t-176.5 -70t-228 -24
q-81 0 -144 8.5t-113.5 26.5t-90 46.5t-72.5 69.5q-27 -70 -82.5 -110.5t-131.5 -40.5q-131 0 -207 120q-39 -59 -94.5 -89.5t-112.5 -30.5q-30 0 -53.5 4.5t-43.5 14t-38 24t-37 34.5h1q-25 25 -33 25q-29 0 -65 -81zM736 442q0 -61 12 -106.5t33 -76t49.5 -45.5t61.5 -15
q62 0 96 40.5t34 101.5q0 45 -17.5 84.5t-51.5 69t-83 47t-112 17.5q-67 0 -146 -17t-175 -51q-45 -54 -84.5 -123.5t-74.5 -157.5q22 5 35 5q35 0 74.5 -8t74.5 -8q83 0 126.5 55.5t47.5 187.5h100zM1082 785q-57 0 -116.5 -10.5t-119 -29.5t-116.5 -44.5t-108 -55.5
q36 6 70.5 10.5t58.5 4.5q211 0 313 -140q42 69 120.5 109.5t176.5 40.5h29.5h16t8.5 -1q-1 4 -13 22.5t-47.5 39.5t-101 37.5t-171.5 16.5zM1373 399q0 -18 39.5 -32.5t120.5 -14.5q43 0 81.5 4t66.5 11t44.5 16.5t16.5 19.5q0 23 -37 32.5t-120 9.5q-103 0 -157.5 -10
t-54.5 -36zM1928 1059q28 -10 54 -10q32 0 51.5 20.5t19.5 50.5q0 48 -31 80t-94 64v-205zM1803 723q-40 0 -63.5 -12t-34.5 -41q53 -1 97 -7.5t84 -20.5q5 10 5.5 16t0.5 11q0 23 -25 38.5t-64 15.5z" />
    <glyph glyph-name="uni0D9A0DCA200D0DC20DD2" horiz-adv-x="2187" 
d="M114 55q46 133 86.5 227t82 163t87.5 121t104 101q-9 55 -30.5 88t-50.5 33q-19 0 -38 -20t-33 -57q-11 -27 -20.5 -48.5t-22.5 -35.5t-30.5 -21.5t-43.5 -7.5q-47 0 -71.5 28.5t-24.5 77.5q0 30 17.5 65.5t48 66t73 51t93.5 20.5q85 0 139 -47t77 -131q48 32 114 63.5
t139.5 57t148 41.5t137.5 16q19 0 37 -1t36 -3q-13 18 -25 40t-21.5 44.5t-15 44.5t-5.5 40q0 73 30 132t90 100.5t149.5 63.5t208.5 22q238 0 359 -83.5t121 -234.5q0 -23 -8 -50t-22.5 -54t-35.5 -52.5t-47 -46.5q31 -24 49 -60t18 -82q0 -64 -38 -131q53 -37 80 -101.5
t27 -136.5q0 -85 -40.5 -151.5t-114 -112.5t-176.5 -70t-228 -24q-81 0 -144 8.5t-113.5 26.5t-90 46.5t-72.5 69.5q-27 -70 -82.5 -110.5t-131.5 -40.5q-131 0 -207 120q-39 -59 -94.5 -89.5t-112.5 -30.5q-30 0 -53.5 4.5t-43.5 14t-38 24t-37 34.5h1q-25 25 -33 25
q-29 0 -65 -81zM1812 906q25 16 50 33.5t44.5 36.5t31.5 39t12 40q0 34 -20.5 59.5t-65 43t-114.5 26t-170 8.5q-98 0 -167.5 -8.5t-114 -25.5t-65 -43t-20.5 -60q0 -26 10 -55t29.5 -56.5t46.5 -51.5t62 -40q71 -33 112.5 -82t41.5 -103q0 -23 -4.5 -39.5t-17 -27.5
t-35 -16t-58.5 -5h-63q-45 0 -81 -15t-61 -42t-38.5 -64t-13.5 -80q0 -179 378 -179q103 0 185.5 11.5t140 34t88 57t30.5 80.5q0 71 -58 117q-17 -11 -37.5 -20.5t-43.5 -14.5q18 -29 18 -63q0 -76 -63 -114t-172 -38h-119q-106 0 -161.5 40.5t-55.5 108.5q0 42 18 68.5
t52.5 42t84 21.5t111.5 6h75q27 0 52.5 -2t60.5 -2q22 0 41 3t33 17q-24 18 -50.5 23.5t-55.5 5.5h-104q4 72 21.5 130.5t46.5 100.5t68 66t85 28zM736 442q0 -61 12 -106.5t33 -76t49.5 -45.5t61.5 -15q62 0 96 40.5t34 101.5q0 45 -17.5 84.5t-51.5 69t-83 47t-112 17.5
q-67 0 -146 -17t-175 -51q-45 -54 -84.5 -123.5t-74.5 -157.5q22 5 35 5q35 0 74.5 -8t74.5 -8q83 0 126.5 55.5t47.5 187.5h100zM1082 775q-57 0 -116.5 -9t-119 -26t-116.5 -41t-108 -54q36 6 70.5 10.5t58.5 4.5q211 0 313 -140q42 69 120.5 109.5t176.5 40.5h29.5h16
t8.5 -1q-1 4 -13 21t-47.5 36t-101 34t-171.5 15zM1373 399q0 -18 39.5 -32.5t120.5 -14.5q43 0 81.5 4t66.5 11t44.5 16.5t16.5 19.5q0 23 -37 32.5t-120 9.5q-103 0 -157.5 -10t-54.5 -36zM1803 723q-40 0 -63.5 -12t-34.5 -41q53 -1 97 -7.5t84 -20.5q5 10 5.5 16t0.5 11
q0 23 -25 38.5t-64 15.5z" />
    <glyph glyph-name="uni0D9A0DCA200D0DC20DD3" horiz-adv-x="2187" 
d="M114 55q46 133 86.5 227t82 163t87.5 121t104 101q-9 55 -30.5 88t-50.5 33q-19 0 -38 -20t-33 -57q-11 -27 -20.5 -48.5t-22.5 -35.5t-30.5 -21.5t-43.5 -7.5q-47 0 -71.5 28.5t-24.5 77.5q0 30 17.5 65.5t48 66t73 51t93.5 20.5q85 0 139 -47t77 -131q48 32 114 63.5
t139.5 57t148 41.5t137.5 16q46 0 90 -6q-38 37 -59.5 82.5t-21.5 92.5q0 157 113 238t342 81q118 0 207.5 -24.5t149 -66t89.5 -97.5t30 -119t-25.5 -120.5t-70.5 -93.5q34 -23 54 -61t20 -86q0 -64 -38 -131q53 -37 80 -101.5t27 -136.5q0 -85 -37.5 -151.5t-109 -112.5
t-175.5 -70t-237 -24q-81 0 -144 8.5t-113.5 26.5t-90 46.5t-72.5 69.5q-27 -70 -82.5 -110.5t-131.5 -40.5q-131 0 -207 120q-39 -59 -94.5 -89.5t-112.5 -30.5q-30 0 -53.5 4.5t-43.5 14t-38 24t-37 34.5h1q-25 25 -33 25q-29 0 -65 -81zM1515 667q0 -23 -4.5 -39.5
t-17 -27.5t-35 -16t-58.5 -5h-63q-45 0 -81 -15t-61 -42t-38.5 -64t-13.5 -80q0 -179 378 -179q103 0 185.5 11.5t140 34t88 57t30.5 80.5q0 71 -58 117q-17 -11 -37.5 -20.5t-43.5 -14.5q18 -29 18 -63q0 -76 -63 -114t-172 -38h-119q-106 0 -161.5 40.5t-55.5 108.5
q0 42 18 68.5t52.5 42t84 21.5t111.5 6h75q27 0 52.5 -2t60.5 -2q22 0 41 3t33 17q-24 18 -50.5 23.5t-55.5 5.5h-104q5 101 36.5 173.5t82.5 111.5q-54 50 -54 124q0 22 6.5 47.5t18 51t26.5 49t33 41.5q-41 6 -91 12t-113 6q-164 0 -242 -34t-78 -104q0 -31 14 -60t37 -56
t53.5 -53t62.5 -50q61 -33 96.5 -77.5t35.5 -95.5zM736 462q0 -61 12 -110t33 -83t49.5 -52t61.5 -18q62 0 96 40.5t34 101.5q0 45 -17.5 84.5t-51.5 69t-83 47t-112 17.5q-67 0 -146 -17t-175 -51q-45 -54 -84.5 -123.5t-74.5 -157.5q22 5 35 5q35 0 74.5 -8t74.5 -8
q167 0 174 263h100zM1082 775q-57 0 -116.5 -9t-119 -26t-116.5 -41t-108 -54q36 6 70.5 10.5t58.5 4.5q211 0 313 -140q42 69 120.5 109.5t176.5 40.5h29.5h16t8.5 -1q-1 4 -13 21t-47.5 36t-101 34t-171.5 15zM1373 399q0 -18 39.5 -32.5t120.5 -14.5q43 0 81.5 4t66.5 11
t44.5 16.5t16.5 19.5q0 23 -37 32.5t-120 9.5q-103 0 -157.5 -10t-54.5 -36zM1914 1055q0 30 -13.5 56t-42.5 39q-22 -14 -40.5 -33t-31.5 -39.5t-20.5 -41.5t-7.5 -39q0 -27 14 -46t45 -19q21 0 38.5 12t30.5 30t20.5 39.5t7.5 41.5zM1803 723q-40 0 -63.5 -12t-34.5 -41
q53 -1 97 -7.5t84 -20.5q5 10 5.5 16t0.5 11q0 23 -25 38.5t-64 15.5z" />
    <glyph glyph-name="uni0D9A0DCA200D0DC20DD4" horiz-adv-x="2187" 
d="M114 55q46 133 86.5 227t82 163t87.5 121t104 101q-9 55 -30.5 93t-50.5 38q-19 0 -38 -20t-33 -57q-11 -27 -20.5 -48.5t-22.5 -35.5t-30.5 -21.5t-43.5 -7.5q-47 0 -71.5 28.5t-24.5 77.5q0 30 17.5 65.5t48 66t73 51t93.5 20.5q42 0 77 -14t62 -38.5t46.5 -59
t30.5 -76.5q48 32 114 63.5t139.5 57t148 41.5t137.5 16q87 0 163.5 -19.5t133.5 -52.5t89.5 -76.5t32.5 -91.5q0 -23 -4.5 -39.5t-17 -27.5t-35 -16t-58.5 -5h-63q-45 0 -81 -15t-61 -42t-38.5 -64t-13.5 -80q0 -179 378 -179q103 0 185.5 11.5t140 34t88 57t30.5 80.5
q0 71 -58 117q-17 -11 -37.5 -20.5t-43.5 -14.5q18 -29 18 -63q0 -76 -63 -114t-172 -38h-119q-106 0 -161.5 40.5t-55.5 108.5q0 42 18 68.5t52.5 42t84 21.5t111.5 6h75q27 0 52.5 -2t60.5 -2q22 0 41 3t33 17q-24 18 -50.5 23.5t-55.5 5.5h-104q4 76 23.5 136.5t51 102.5
t73 64.5t91.5 22.5q38 0 71.5 -13t58.5 -36.5t39.5 -56.5t14.5 -74q0 -64 -38 -131q53 -37 80 -101.5t27 -136.5v-829h-811q-46 0 -84 14t-65 39.5t-41.5 62t-14.5 81.5q0 43 16.5 81t44.5 66.5t65.5 44.5t80.5 16q72 0 132.5 -41.5t94.5 -124.5l-87 -41q-59 105 -129 105
q-51 0 -84 -29.5t-33 -74.5q0 -48 28 -73.5t76 -25.5h692v484q-72 -56 -182.5 -84.5t-257.5 -28.5q-81 0 -144 8.5t-113.5 26.5t-90 46.5t-72.5 69.5q-27 -70 -82.5 -110.5t-131.5 -40.5q-131 0 -207 120q-39 -59 -94.5 -89.5t-112.5 -30.5q-30 0 -53.5 4.5t-43.5 14t-38 24
t-37 34.5h1q-25 25 -33 25q-29 0 -65 -81zM736 462q0 -61 12 -110t33 -83t49.5 -52t61.5 -18q62 0 96 40.5t34 101.5q0 45 -17.5 84.5t-51.5 69t-83 47t-112 17.5q-67 0 -146 -17t-175 -51q-45 -54 -84.5 -123.5t-74.5 -157.5q22 5 35 5q35 0 74.5 -8t74.5 -8q167 0 174 263
h100zM1082 775q-57 0 -116.5 -9t-119 -26t-116.5 -41t-108 -54q36 6 70.5 10.5t58.5 4.5q211 0 313 -140q42 69 120.5 109.5t176.5 40.5h29.5h16t8.5 -1q-1 4 -13 21t-47.5 36t-101 34t-171.5 15zM1373 399q0 -18 39.5 -32.5t120.5 -14.5q43 0 81.5 4t66.5 11t44.5 16.5
t16.5 19.5q0 23 -37 32.5t-120 9.5q-103 0 -157.5 -10t-54.5 -36zM1803 723q-40 0 -63.5 -12t-34.5 -41q53 -1 97 -7.5t84 -20.5q5 10 5.5 16t0.5 11q0 23 -25 38.5t-64 15.5z" />
    <glyph glyph-name="uni0D9A0DCA200D0DC20DD6" horiz-adv-x="2187" 
d="M114 55q46 133 86.5 227t82 163t87.5 121t104 101q-9 55 -30.5 93t-50.5 38q-19 0 -38 -20t-33 -57q-11 -27 -20.5 -48.5t-22.5 -35.5t-30.5 -21.5t-43.5 -7.5q-47 0 -71.5 28.5t-24.5 77.5q0 30 17.5 65.5t48 66t73 51t93.5 20.5q42 0 77 -14t62 -38.5t46.5 -59
t30.5 -76.5q48 32 114 63.5t139.5 57t148 41.5t137.5 16q87 0 163.5 -19.5t133.5 -52.5t89.5 -76.5t32.5 -91.5q0 -23 -4.5 -39.5t-17 -27.5t-35 -16t-58.5 -5h-63q-45 0 -81 -15t-61 -42t-38.5 -64t-13.5 -80q0 -179 378 -179q103 0 185.5 11.5t140 34t88 57t30.5 80.5
q0 71 -58 117q-17 -11 -37.5 -20.5t-43.5 -14.5q18 -29 18 -63q0 -76 -63 -114t-172 -38h-119q-106 0 -161.5 40.5t-55.5 108.5q0 42 18 68.5t52.5 42t84 21.5t111.5 6h75q27 0 52.5 -2t60.5 -2q22 0 41 3t33 17q-24 18 -50.5 23.5t-55.5 5.5h-104q4 76 23.5 136.5t51 102.5
t73 64.5t91.5 22.5q38 0 71.5 -13t58.5 -36.5t39.5 -56.5t14.5 -74q0 -64 -38 -131q53 -37 80 -101.5t27 -136.5v-841h-84q-95 120 -224 120q-65 0 -141.5 -19.5t-153 -42.5t-147 -42.5t-124.5 -19.5t-97.5 16t-74 44.5t-47 67t-16.5 83.5q0 40 15 78t42.5 66.5t66 46
t84.5 17.5q72 0 132 -41t94 -125l-88 -42q-54 107 -131 107q-28 0 -49.5 -9t-36 -23.5t-22 -33t-7.5 -37.5q0 -24 9 -45t25 -36.5t37.5 -24t45.5 -8.5q58 0 122.5 22.5t134 49.5t143 49.5t149.5 22.5q125 0 224 -66v421q-72 -56 -182.5 -84.5t-257.5 -28.5q-81 0 -144 8.5
t-113.5 26.5t-90 46.5t-72.5 69.5q-27 -70 -82.5 -110.5t-131.5 -40.5q-131 0 -207 120q-39 -59 -94.5 -89.5t-112.5 -30.5q-30 0 -53.5 4.5t-43.5 14t-38 24t-37 34.5h1q-25 25 -33 25q-29 0 -65 -81zM736 462q0 -61 12 -110t33 -83t49.5 -52t61.5 -18q62 0 96 40.5
t34 101.5q0 45 -17.5 84.5t-51.5 69t-83 47t-112 17.5q-67 0 -146 -17t-175 -51q-45 -54 -84.5 -123.5t-74.5 -157.5q22 5 35 5q35 0 74.5 -8t74.5 -8q167 0 174 263h100zM1082 775q-57 0 -116.5 -9t-119 -26t-116.5 -41t-108 -54q36 6 70.5 10.5t58.5 4.5q211 0 313 -140
q42 69 120.5 109.5t176.5 40.5h29.5h16t8.5 -1q-1 4 -13 21t-47.5 36t-101 34t-171.5 15zM1373 399q0 -18 39.5 -32.5t120.5 -14.5q43 0 81.5 4t66.5 11t44.5 16.5t16.5 19.5q0 23 -37 32.5t-120 9.5q-103 0 -157.5 -10t-54.5 -36zM1803 723q-40 0 -63.5 -12t-34.5 -41
q53 -1 97 -7.5t84 -20.5q5 10 5.5 16t0.5 11q0 23 -25 38.5t-64 15.5z" />
    <glyph glyph-name="uni0D9B0DCA" 
d="M844 43q-15 0 -33 1.5t-34 3.5t-29.5 3.5t-19.5 1.5q-81 0 -149 -117l-81 54q36 57 82 109.5t101 100.5q65 57 95 109t30 103q0 92 -66.5 130.5t-212.5 38.5q-80 0 -140.5 -17t-101 -46t-61 -69.5t-20.5 -86.5q0 -72 26 -136q19 45 56 67t82 22q30 0 58.5 -11.5t50.5 -32
t35.5 -48t13.5 -58.5q0 -33 -12.5 -62.5t-34 -52.5t-50 -36.5t-61.5 -13.5q-65 0 -114 33.5t-82.5 88t-50.5 125t-17 145.5q0 89 28 164t82 129t132.5 84.5t180.5 30.5q96 0 169 -30t121.5 -79.5t73 -114t24.5 -133.5q0 -163 -106 -261q66 33 122.5 83t98 108t64.5 119
t23 115q0 43 -20 86.5t-55 84t-82.5 75t-102.5 60.5t-115 41t-120 15q-50 0 -89.5 -4t-76.5 -12t-75 -22t-86 -33l-52 82q22 11 45.5 21.5t49.5 21.5q-43 52 -43 83q0 25 27.5 48t71.5 39.5t99 26.5t110 10q141 0 258.5 -51t202 -140t131.5 -208.5t47 -255.5
q0 -114 -28.5 -211.5t-80.5 -169t-125.5 -111.5t-163.5 -40zM402 1104q0 -7 13 -23.5t28 -29.5q115 20 177 20q108 0 213.5 -33.5t194.5 -100.5q-73 92 -181 141.5t-244 49.5q-32 0 -67 -2t-65 -5.5t-49.5 -8t-19.5 -8.5zM310 158q0 -27 16 -41.5t42 -14.5q25 0 41 16.5
t16 44.5q0 20 -15.5 35.5t-41.5 15.5q-23 0 -40.5 -16.5t-17.5 -39.5z" />
    <glyph glyph-name="uni0D9B0DD2" 
d="M844 43q-32 0 -60 5t-56 5q-80 0 -150 -117l-80 54q36 57 82 109.5t101 100.5q65 57 95 109t30 103q0 92 -66.5 130.5t-212.5 38.5q-80 0 -140.5 -17t-101 -46t-61 -69.5t-20.5 -86.5q0 -72 26 -136q19 45 55.5 67t82.5 22q30 0 58.5 -11.5t50.5 -32t35.5 -48t13.5 -58.5
q0 -33 -12.5 -62.5t-34 -52.5t-50 -36.5t-61.5 -13.5q-65 0 -114 33.5t-83 88t-51 125t-17 145.5q0 89 28 164t82 129t133 84.5t181 30.5q96 0 169 -30t121.5 -79.5t73 -114t24.5 -133.5q0 -82 -27 -146t-78 -113q40 15 77.5 47.5t70.5 74t61 90t48 96t31 92t11 77.5
q0 53 -27.5 102.5t-80.5 88.5t-131 63.5t-178 28.5q-151 5 -245 18t-133 36v-1q-82 45 -82 153q0 55 29.5 98.5t86.5 74t139.5 47t187.5 16.5q97 0 185 -19.5t154.5 -55.5t105.5 -86t39 -111q0 -53 -31 -95.5t-81 -63.5q99 -67 148.5 -181t49.5 -257q0 -90 -29 -175.5
t-82 -151.5t-127 -106.5t-163 -40.5zM345 1134q0 -27 21 -42t68 -24t122.5 -14.5t185.5 -12.5l60 -4t55.5 -3t43 -1.5t21.5 -0.5q63 0 94.5 18t31.5 45q0 93 -466 93q-125 0 -180.5 -11t-56.5 -43zM310 158q0 -27 16 -41.5t42 -14.5q24 0 40.5 16.5t16.5 44.5
q0 20 -15.5 35.5t-41.5 15.5q-23 0 -40.5 -16.5t-17.5 -39.5z" />
    <glyph glyph-name="uni0D9B0DD3" 
d="M844 43q-15 0 -33 1.5t-34 3.5t-29.5 3.5t-19.5 1.5q-81 0 -149 -117l-81 54q36 57 82 109.5t101 100.5q65 57 95 109t30 103q0 93 -66.5 140.5t-212.5 47.5q-80 0 -140.5 -19.5t-101 -52.5t-61 -76t-20.5 -90q0 -72 26 -136q19 45 56 67t82 22q30 0 58.5 -11.5t50.5 -32
t35.5 -48t13.5 -58.5q0 -33 -12.5 -62.5t-34 -52.5t-50 -36.5t-61.5 -13.5q-65 0 -114 33.5t-82.5 88t-50.5 125t-17 145.5q0 89 28 165t82 132t132.5 88t180.5 32q96 0 169 -31t121.5 -82.5t73 -117.5t24.5 -135q0 -80 -25.5 -142.5t-73.5 -110.5q61 36 114 91t92 119
t61.5 132t22.5 129q0 55 -27 101.5t-81.5 81t-136 55t-190.5 25.5q-90 4 -170.5 9.5t-141 24.5t-96 57.5t-35.5 108.5q0 55 28.5 99.5t84.5 76t139 49t192 17.5q90 0 176.5 -20t154.5 -56t110 -86t42 -110q0 -50 -31.5 -92.5t-77.5 -65.5q105 -68 150.5 -171t45.5 -248
q0 -90 -28.5 -175.5t-80.5 -151.5t-125.5 -106.5t-163.5 -40.5zM579 1030q45 -2 89.5 -4t91.5 -5q-11 15 -15 33t-4 40q0 42 20 69q-36 3 -81 4t-101 1q-68 0 -113.5 -3.5t-73.5 -11t-39.5 -19t-11.5 -27.5q0 -35 56 -54t182 -23zM1044 1075q0 30 -31.5 52.5t-91.5 22.5
q-80 0 -80 -56q0 -16 10 -29.5t27.5 -23t40 -15t47.5 -5.5q38 0 58 17t20 37zM310 158q0 -27 16 -41.5t42 -14.5q25 0 41 16.5t16 44.5q0 20 -15.5 35.5t-41.5 15.5q-23 0 -40.5 -16.5t-17.5 -39.5z" />
    <glyph glyph-name="uni0D9B0DD4" 
d="M844 43q-15 0 -33 1.5t-34 3.5t-29.5 3.5t-19.5 1.5q-81 0 -149 -117l-81 54q36 57 82 109.5t101 100.5q65 57 95 109t30 103q0 92 -66.5 135t-212.5 43q-80 0 -140.5 -18t-101 -49.5t-61 -73t-20.5 -87.5q0 -72 26 -136q19 45 56 67t82 22q30 0 58.5 -11.5t50.5 -32
t35.5 -48t13.5 -58.5q0 -33 -12.5 -62.5t-34 -52.5t-50 -36.5t-61.5 -13.5q-65 0 -114 33.5t-82.5 88t-50.5 125t-17 145.5q0 89 28 163.5t82 128.5t132.5 84.5t180.5 30.5q96 0 169 -29.5t121.5 -79t73 -114t24.5 -133.5q0 -82 -26 -145.5t-78 -112.5q64 34 116.5 88.5
t90 120t57.5 137.5t20 142q0 94 -36.5 175.5t-97.5 141.5t-141 94t-168 34q-59 0 -117 -13.5t-112 -40t-103 -66t-89 -91.5l-79 66q94 116 220 181.5t274 65.5q89 0 168 -24.5t145 -68.5t118.5 -105.5t89 -135t56 -157t19.5 -172.5v-1028h-890q-47 0 -85 14t-65 39.5
t-41.5 62t-14.5 81.5q0 43 16.5 81t44.5 66.5t66 44.5t81 16q153 0 227 -166l-89 -41q-57 105 -129 105q-25 0 -46.5 -8t-37 -21.5t-24 -33t-8.5 -41.5q0 -48 28 -73.5t77 -25.5h771v537q-27 -29 -61 -51.5t-70.5 -38.5t-74.5 -24.5t-73 -8.5zM425 163q0 20 -15.5 35.5
t-41.5 15.5q-23 0 -40.5 -16.5t-17.5 -39.5q0 -27 16 -41.5t42 -14.5q25 0 41 16.5t16 44.5z" />
    <glyph glyph-name="uni0D9B0DD6" 
d="M844 43q-15 0 -33 1.5t-34 3.5t-29.5 3.5t-19.5 1.5q-81 0 -149 -117l-81 54q36 57 82 109.5t101 100.5q65 57 95 109t30 103q0 92 -66.5 135.5t-212.5 43.5q-80 0 -140.5 -18.5t-101 -49.5t-61 -73t-20.5 -88q0 -72 26 -136q19 45 56 67t82 22q30 0 58.5 -11.5t50.5 -32
t35.5 -48t13.5 -58.5q0 -33 -12.5 -62.5t-34 -52.5t-50 -36.5t-61.5 -13.5q-65 0 -114 33.5t-82.5 88t-50.5 125t-17 145.5q0 89 28 164t82 129t132.5 84.5t180.5 30.5q96 0 169 -30t121.5 -79.5t73 -114t24.5 -133.5q0 -82 -26 -145.5t-78 -112.5q64 34 116.5 88.5t90 120
t57.5 137.5t20 142q0 94 -36.5 175.5t-97.5 141.5t-141 94t-168 34q-59 0 -117 -13.5t-112 -40t-103 -66t-89 -91.5l-79 66q94 116 220 181.5t274 65.5q89 0 168 -24.5t145 -68.5t118.5 -105.5t89 -135t56 -157t19.5 -172.5v-1039h-84q-95 120 -224 120q-62 0 -130.5 -19.5
t-140.5 -42.5t-144 -42.5t-139 -19.5q-53 0 -96 16t-74 44t-47.5 67t-16.5 84q0 40 15 78t42.5 66.5t66 46t84.5 17.5q77 0 123.5 -41t82.5 -122l-67 -49q-54 110 -132 110q-27 0 -48 -9t-36 -23.5t-22.5 -32.5t-7.5 -37q0 -24 9.5 -45t25 -36.5t36.5 -24t45 -8.5
q71 0 136.5 22.5t130 49.5t131 49.5t138.5 22.5q62 0 118 -16.5t106 -50.5v474q-27 -29 -61 -51.5t-70.5 -38.5t-74.5 -24.5t-73 -8.5zM425 163q0 20 -15.5 35.5t-41.5 15.5q-23 0 -40.5 -16.5t-17.5 -39.5q0 -27 16 -41.5t42 -14.5q25 0 41 16.5t16 44.5z" />
    <glyph glyph-name="uni0D9B.rakar" 
d="M844 43q-15 0 -33 1.5t-34 3.5t-29.5 3.5t-19.5 1.5q-81 0 -149 -117l-81 54q36 57 82 109.5t101 100.5q65 57 95 109t30 103q0 92 -66.5 130.5t-212.5 38.5q-80 0 -140.5 -17t-101 -46t-61 -69.5t-20.5 -86.5q0 -72 26 -136q19 45 56 67t82 22q30 0 58.5 -11.5t50.5 -32
t35.5 -48t13.5 -58.5q0 -33 -12.5 -62.5t-34 -52.5t-50 -36.5t-61.5 -13.5q-65 0 -114 33.5t-82.5 88t-50.5 125t-17 145.5q0 89 28 162t82 125.5t132.5 81.5t180.5 29q96 0 169 -28t121.5 -76t73 -111t24.5 -132q0 -82 -26.5 -146t-77.5 -113q66 34 118.5 89t89.5 120.5
t56.5 137.5t19.5 142q0 94 -36.5 175.5t-97.5 141.5t-141 94t-168 34q-59 0 -117 -13.5t-112 -40.5t-103 -66.5t-89 -91.5l-79 66q94 117 220 182.5t274 65.5q123 0 231.5 -48.5t189.5 -139t128 -221t47 -294.5q0 -136 -18 -263.5t-54 -240t-88.5 -206t-122 -160.5
t-154.5 -104.5t-186 -37.5q-80 0 -148.5 22t-131 66.5t-119.5 110.5t-114 153l78 65q41 -52 86 -92.5t95.5 -68.5t108 -42.5t123.5 -14.5q46 0 98.5 16.5t105 46t102 70.5t90 90t69.5 104.5t40 113.5q-25 -23 -55.5 -41.5t-64 -32t-69 -21t-69.5 -7.5zM425 163
q0 20 -15.5 35.5t-41.5 15.5q-23 0 -40.5 -16.5t-17.5 -39.5q0 -27 16 -41.5t42 -14.5q25 0 41 16.5t16 44.5z" />
    <glyph glyph-name="uni0D9B0DCA.rakar" 
d="M844 43q-15 0 -33 1.5t-34 3.5t-29.5 3.5t-19.5 1.5q-81 0 -149 -117l-81 54q36 57 82 109.5t101 100.5q65 57 95 109t30 103q0 92 -66.5 135.5t-212.5 43.5q-80 0 -140.5 -18.5t-101 -49.5t-61 -73t-20.5 -88q0 -72 26 -136q19 45 56 67t82 22q30 0 58.5 -11.5t50.5 -32
t35.5 -48t13.5 -58.5q0 -33 -12.5 -62.5t-34 -52.5t-50 -36.5t-61.5 -13.5q-65 0 -114 33.5t-82.5 88t-50.5 125t-17 145.5q0 89 28 164t82 129t132.5 84.5t180.5 30.5q96 0 169 -30t121.5 -79.5t73 -114t24.5 -133.5q0 -163 -106 -261q66 33 122.5 83t98 108t64.5 119
t23 115q0 43 -21.5 86.5t-58.5 84t-87 75t-107 60.5t-118.5 41t-121.5 15q-50 0 -90 -4t-76.5 -12.5t-75 -22t-85.5 -32.5l-52 82q22 11 45.5 21.5t49.5 20.5q-43 53 -43 84q0 25 27.5 47.5t71.5 39.5t98.5 26.5t109.5 9.5q151 0 273 -54t208 -146.5t132 -215.5t46 -260
q0 -133 -15.5 -262t-48 -245t-82.5 -215t-119 -171.5t-158.5 -113t-199.5 -40.5q-80 0 -148.5 22t-131 66t-119.5 110t-114 154l78 64q41 -52 86 -92.5t95.5 -68t108 -42t123.5 -14.5q79 0 159 33.5t149.5 93t122 141t75.5 177.5q-69 -61 -133 -84t-126 -23zM383 1104
q0 -7 13 -24t27 -29q57 9 101.5 14t76.5 5q53 0 109 -10.5t110.5 -29.5t106.5 -46.5t98 -61.5q-76 97 -190.5 151.5t-251.5 54.5q-31 0 -66 -2.5t-65 -6t-49.5 -7.5t-19.5 -8zM310 158q0 -27 16 -41.5t42 -14.5q25 0 41 16.5t16 44.5q0 20 -15.5 35.5t-41.5 15.5
q-23 0 -40.5 -16.5t-17.5 -39.5z" />
    <glyph glyph-name="uni0D9B0DD2.rakar" 
d="M844 43q-15 0 -33 1.5t-34 3.5t-29.5 3.5t-19.5 1.5q-81 0 -149 -117l-81 54q36 57 82 109.5t101 100.5q65 57 95 109t30 103q0 93 -66.5 140.5t-212.5 47.5q-80 0 -140.5 -19.5t-101 -52.5t-61 -76t-20.5 -90q0 -72 26 -136q19 45 56 67t82 22q30 0 58.5 -11.5t50.5 -32
t35.5 -48t13.5 -58.5q0 -33 -12.5 -62.5t-34 -52.5t-50 -36.5t-61.5 -13.5q-65 0 -114 33.5t-82.5 88t-50.5 125t-17 145.5q0 89 28 165t82 132t132.5 88t180.5 32q96 0 169 -31t121.5 -82.5t73 -117.5t24.5 -135q0 -80 -25 -142t-73 -110q60 36 113 91.5t92 119.5
t61.5 131.5t22.5 127.5q0 53 -27.5 102.5t-81 88.5t-131.5 63.5t-178 28.5q-150 5 -244.5 18t-133.5 36v-1q-82 45 -82 153q0 55 29.5 98.5t86.5 74t139.5 47t188.5 16.5q97 0 184.5 -19.5t154 -55.5t105.5 -86t39 -111q0 -53 -31 -95.5t-81 -63.5q100 -67 149.5 -181
t49.5 -257q0 -131 -17.5 -257t-52.5 -238t-87.5 -207t-121.5 -163.5t-155 -107t-189 -38.5q-80 0 -148.5 22t-131 66t-119.5 110t-114 154l78 64q41 -52 86 -92.5t95.5 -68t108 -42t123.5 -14.5q49 0 103 16t107 45.5t102.5 70.5t89.5 90.5t68.5 106.5t40.5 118
q-60 -56 -128 -82.5t-136 -26.5zM341 1134q0 -27 21 -42t68 -24t123 -14.5t186 -12.5q29 -2 59 -3.5t55.5 -3t43 -2t22.5 -0.5q63 0 94 18t31 45q0 93 -465 93q-121 0 -179 -11t-59 -43zM310 158q0 -27 16 -41.5t42 -14.5q25 0 41 16.5t16 44.5q0 20 -15.5 35.5t-41.5 15.5
q-23 0 -40.5 -16.5t-17.5 -39.5z" />
    <glyph glyph-name="uni0D9B0DD3.rakar" 
d="M844 43q-15 0 -33 1.5t-34 3.5t-29.5 3.5t-19.5 1.5q-81 0 -149 -117l-81 54q36 57 82 109.5t101 100.5q65 57 95 109t30 103q0 92 -66.5 135t-212.5 43q-80 0 -140.5 -18t-101 -49.5t-61 -73t-20.5 -87.5q0 -72 26 -136q19 45 56 67t82 22q30 0 58.5 -11.5t50.5 -32
t35.5 -48t13.5 -58.5q0 -33 -12.5 -62.5t-34 -52.5t-50 -36.5t-61.5 -13.5q-65 0 -114 33.5t-82.5 88t-50.5 125t-17 145.5q0 89 28 163.5t82 128.5t132.5 84.5t180.5 30.5q96 0 169 -29.5t121.5 -79t73 -114t24.5 -133.5q0 -80 -25.5 -142.5t-73.5 -110.5q61 36 114 91
t92 119t61.5 132t22.5 129q0 55 -27 104.5t-81.5 87.5t-136 62t-190.5 29q-143 6 -233.5 19t-128.5 36q-41 23 -61 60t-20 85q0 55 28.5 99.5t84.5 76t139 49t192 17.5q90 0 176.5 -20t154.5 -56t110 -86t42 -110q0 -50 -31.5 -92.5t-77.5 -65.5q105 -68 150.5 -181
t45.5 -258q0 -132 -17.5 -258t-52.5 -238.5t-87.5 -207t-121.5 -163t-155.5 -107t-188.5 -38.5q-80 0 -148.5 22t-131 66.5t-119.5 110.5t-114 153l78 65q41 -52 86 -92.5t95.5 -68.5t108 -42.5t123.5 -14.5q47 0 99.5 16.5t105.5 46t102.5 71t90 91t69.5 105.5t39 115
q-63 -54 -129.5 -80t-129.5 -26zM579 1050q45 -2 89.5 -4t91.5 -5q-11 15 -15 33t-4 40q0 42 20 69q-36 3 -81 4t-101 1q-68 0 -113.5 -3.5t-73.5 -11t-39.5 -19t-11.5 -27.5q0 -35 56 -54t182 -23zM1044 1095q0 30 -31.5 52.5t-91.5 22.5q-80 0 -80 -56q0 -16 10 -29.5
t27.5 -23t40 -15t47.5 -5.5q38 0 58 17t20 37zM310 158q0 -27 16 -41.5t42 -14.5q25 0 41 16.5t16 44.5q0 20 -15.5 35.5t-41.5 15.5q-23 0 -40.5 -16.5t-17.5 -39.5z" />
    <glyph glyph-name="uni0D9C0DCA" horiz-adv-x="1444" 
d="M753 117q32 -8 57 -11.5t44 -3.5q59 0 106 27.5t80 73t50.5 105.5t17.5 125q0 73 -23.5 131t-62.5 98t-88.5 61.5t-100.5 21.5q-72 0 -129.5 -61.5t-100.5 -169.5q38 -1 68 -17.5t51 -45t32.5 -66t11.5 -79.5q0 -51 -22 -105t-63.5 -98.5t-101.5 -73.5t-137 -29
q-74 0 -135.5 33.5t-106 90.5t-69.5 132.5t-25 159.5q0 103 30.5 194.5t83.5 159.5t124 107.5t151 39.5q33 0 61.5 -3.5t51.5 -9.5l-6 -101q-30 5 -51.5 8.5t-35.5 3.5q-64 0 -115.5 -25.5t-87.5 -69t-55 -102.5t-19 -126q0 -62 20.5 -117t56.5 -95.5t85 -64t105 -23.5
q60 0 100 35t40 101q0 45 -14.5 64.5t-33.5 19.5q-38 0 -61 -62l-82 30q41 140 87 241.5t99.5 167t116 97t136.5 31.5q45 0 93 -12t90 -38v527h84q22 -18 51 -37.5t65 -37.5q78 -41 114.5 -89.5t36.5 -116.5q0 -34 -13 -65t-36 -54.5t-55.5 -37.5t-72.5 -14q-16 0 -33 2
t-40 8v-184q65 -105 65 -253q0 -95 -27 -187t-77 -165t-122 -118t-162 -45q-32 0 -64 5t-61 14zM1177 1059q14 -5 28 -8t25 -3q32 0 51.5 20.5t19.5 50.5q0 23 -6.5 41t-21 34.5t-38 33t-58.5 36.5v-205z" />
    <glyph glyph-name="uni0D9C0DD2" 
d="M751 117q32 -8 57 -11.5t44 -3.5q59 0 106 24.5t80 66.5t50.5 99t17.5 122q0 73 -22.5 134t-59.5 105t-85 68t-99 24q-72 0 -133 -61.5t-105 -169.5q37 -1 67 -17.5t51 -45t32.5 -66t11.5 -79.5q0 -51 -22 -105t-63.5 -98.5t-101.5 -73.5t-137 -29q-74 0 -135.5 33.5
t-106.5 90.5t-70 132.5t-25 159.5q0 90 20 172t58 148.5t93.5 114t126.5 68.5l47 -96q-52 -12 -91.5 -42.5t-66.5 -75t-40.5 -99t-13.5 -114.5q0 -62 20.5 -117t56.5 -95.5t85 -64t105 -23.5q60 0 100 35t40 101q0 45 -14.5 64.5t-33.5 19.5q-38 0 -61 -62l-83 30
q44 145 95 253.5t105 169.5q-251 51 -251 269q0 63 28.5 123t81.5 106.5t128.5 75t170.5 28.5q101 0 179 -26.5t131.5 -72t81 -106t27.5 -128.5q0 -77 -33.5 -132t-100.5 -92q70 -58 108 -149t38 -203q0 -95 -27 -184t-77 -158.5t-122 -111.5t-162 -42q-32 0 -64 5t-61 14z
M510 1055q0 -72 68.5 -114.5t189.5 -51.5q32 14 65 21t68 7q12 0 28 -2t36 -6q152 42 152 146q0 66 -76.5 109t-231.5 43q-150 0 -224.5 -43t-74.5 -109z" />
    <glyph glyph-name="uni0D9C0DD3" 
d="M751 117q32 -8 57 -11.5t44 -3.5q59 0 106 24.5t80 66.5t50.5 99t17.5 122q0 73 -21 134t-56 105t-81.5 68t-97.5 24q-36 0 -71 -16t-67 -46t-60 -72.5t-50 -96.5q37 -1 67 -17.5t51 -45t32.5 -66t11.5 -79.5q0 -51 -22 -105t-63.5 -98.5t-101.5 -73.5t-137 -29
q-74 0 -135.5 33.5t-106.5 90.5t-70 132.5t-25 159.5q0 90 23 167.5t64.5 139t100 104t129.5 63.5l47 -96q-51 -11 -93.5 -37.5t-73 -65.5t-47.5 -89.5t-17 -109.5q0 -62 20.5 -117t56.5 -95.5t85 -64t105 -23.5q60 0 100 35t40 101q0 45 -14.5 64.5t-33.5 19.5
q-38 0 -61 -62l-82 30q44 149 98.5 256.5t110.5 166.5q-130 27 -191 99t-61 170q0 63 28 120.5t81 102t128.5 71t171.5 26.5q102 0 180.5 -26t132 -69t80.5 -98.5t27 -114.5q0 -166 -132 -237q67 -58 100.5 -149t33.5 -202q0 -95 -27 -184t-77 -158.5t-122 -111.5t-162 -42
q-32 0 -64 5t-61 14zM519 1055q0 -71 69.5 -113.5t190.5 -52.5q47 21 105 27q-14 33 -14 70q0 24 6.5 49.5t17.5 51t27 49t35 41.5q-29 5 -64 11t-74 6q-150 0 -224.5 -36.5t-74.5 -102.5zM1127 1051q0 72 -56 95q-22 -14 -40.5 -32.5t-31.5 -39.5t-20.5 -42t-7.5 -39
q0 -65 57 -65q20 0 38 11.5t31.5 29t21.5 39.5t8 43z" />
    <glyph glyph-name="uni0D9C0DD4" 
d="M1043 181q63 84 63 233q0 73 -23.5 134t-62.5 105t-88.5 68t-100.5 24q-72 0 -129.5 -61.5t-100.5 -169.5q38 -1 68 -17.5t51 -45t32.5 -66t11.5 -79.5q0 -53 -23 -107.5t-65.5 -98.5t-102.5 -72t-133 -28q-74 0 -135.5 33.5t-106.5 90.5t-70 132.5t-25 159.5
q0 103 31 194.5t84 159.5t124 107.5t151 39.5q33 0 61.5 -3.5t50.5 -9.5l-5 -101q-30 5 -51.5 8.5t-35.5 3.5q-64 0 -115.5 -25.5t-87.5 -69t-55 -102.5t-19 -126q0 -62 20.5 -117t56.5 -95.5t85 -64t105 -23.5q60 0 100 35t40 101q0 45 -14.5 64.5t-33.5 19.5
q-38 0 -61 -62l-82 30q41 140 87 241.5t99.5 167t116 97t136.5 31.5q68 0 131 -31t111.5 -87t77.5 -133.5t29 -169.5q0 -113 -27.5 -202t-78 -154t-122 -105t-159.5 -54q-67 -11 -97.5 -33t-30.5 -64q0 -22 9 -40.5t30.5 -32t56.5 -21t87 -7.5q69 0 114.5 16.5t45.5 49.5
q0 23 -25 72l87 21q39 -57 39 -109q0 -46 -19.5 -85t-54 -67t-81.5 -43.5t-101 -15.5q-66 0 -119.5 17t-91 48t-57.5 74t-20 95q0 101 52 154t164 71q139 16 202 100z" />
    <glyph glyph-name="uni0D9C0DD6" 
d="M848 174q49 -55 86 -55q33 0 64 23.5t55 63.5t38.5 93.5t14.5 112.5q0 74 -24 135.5t-62.5 105.5t-88 68t-100.5 24q-72 0 -129.5 -61.5t-100.5 -169.5q38 -1 68 -17.5t51 -45t32.5 -66t11.5 -79.5q0 -51 -22 -105t-63.5 -98.5t-101.5 -73.5t-137 -29q-74 0 -135.5 33.5
t-106.5 90.5t-70 132.5t-25 159.5q0 103 31 194.5t84 159.5t124 107.5t151 39.5q33 0 61.5 -3.5t50.5 -9.5l-5 -101q-30 5 -51.5 8.5t-35.5 3.5q-64 0 -115.5 -25.5t-87.5 -69t-55 -102.5t-19 -126q0 -62 20.5 -117t56.5 -95.5t85 -64t105 -23.5q60 0 100 35t40 101
q0 45 -14.5 64.5t-33.5 19.5q-38 0 -61 -62l-82 30q41 140 87 241.5t99.5 167t116 97t136.5 31.5q67 0 129.5 -31.5t111.5 -88.5t78.5 -135t29.5 -171q0 -79 -18 -153.5t-49.5 -136.5t-74.5 -107t-93 -64q14 -12 30.5 -25t31.5 -25l-41 -78q-68 23 -96 23q-20 0 -27.5 -2.5
t-7.5 -5.5q0 -7 2 -15t12 -18.5t32 -23.5t63 -30l-35 -65q-26 13 -48.5 16t-39.5 3q-23 0 -43 -5t-20 -19q0 -29 31 -50.5t97 -21.5q82 0 121 28t39 96l93 6q23 -49 23 -99q0 -44 -20.5 -83t-56.5 -68t-83.5 -45.5t-101.5 -16.5q-55 0 -104 18t-85.5 49.5t-57.5 75t-21 93.5
q0 40 29.5 76.5t80.5 50.5q-14 22 -14 51q0 34 21 59t62 36q-24 20 -47 38.5t-43 41.5z" />
    <glyph glyph-name="uni0D9C.reph" 
d="M751 117q32 -8 57 -11.5t44 -3.5q59 0 106 24.5t80 66.5t50.5 99t17.5 122q0 73 -23.5 131t-62.5 98t-88.5 61.5t-100.5 21.5q-144 0 -229 -212q37 -1 67 -17.5t51 -45t32.5 -66t11.5 -79.5q0 -51 -22 -105t-63.5 -98.5t-101.5 -73.5t-137 -29q-74 0 -135.5 33.5
t-106.5 90.5t-70 132.5t-25 159.5q0 79 18.5 151.5t53 132t82 103.5t106.5 68q-26 30 -40.5 64.5t-14.5 70.5q0 57 22.5 107t62.5 87t95 58t121 21q70 0 128.5 -21t100.5 -58t65.5 -87t23.5 -107q0 -54 -27 -111q32 -5 69.5 -16t75 -31t73 -50t62.5 -73t43.5 -99.5
t16.5 -129.5q0 -95 -27 -184t-77 -158.5t-122 -111.5t-162 -42q-32 0 -64 5t-61 14zM452 380q56 192 132.5 314t177.5 170q13 6 25 20.5t21 34t14 42t5 45.5q0 38 -18.5 69.5t-49.5 54.5t-70 36t-80 13q-44 0 -81 -14t-63.5 -37t-41.5 -54t-15 -64q0 -29 13 -52.5t42 -39.5
q-11 25 -11 58q0 32 13 59.5t34.5 47t51 30.5t62.5 11t61.5 -11.5t49.5 -32t33 -47.5t12 -57q0 -33 -19.5 -62.5t-53.5 -52.5t-80.5 -36.5t-101.5 -13.5q-60 0 -110.5 -24t-88 -66.5t-58.5 -101t-21 -127.5q0 -62 20.5 -117t56.5 -95.5t85 -64t105 -23.5q60 0 100 35t40 101
q0 45 -14.5 64.5t-33.5 19.5q-38 0 -61 -62zM554 978q0 -25 17 -36t40 -11q26 0 41.5 12t15.5 35q0 20 -15.5 32t-39.5 12q-59 0 -59 -44z" />
    <glyph glyph-name="uni0D9C.rakar" 
d="M751 117q32 -8 57 -11.5t44 -3.5q59 0 106 24.5t80 66.5t50.5 99t17.5 122q0 73 -23.5 134t-62.5 105t-88.5 68t-100.5 24q-72 0 -129.5 -61.5t-100.5 -169.5q38 -1 68 -17.5t51 -45t32.5 -66t11.5 -79.5q0 -51 -22 -105t-63.5 -98.5t-101.5 -73.5t-137 -29
q-74 0 -135.5 33.5t-106.5 90.5t-70 132.5t-25 159.5q0 103 31 194.5t84 159.5t124 107.5t151 39.5q33 0 61.5 -3.5t50.5 -9.5l-5 -101q-30 5 -51.5 8.5t-35.5 3.5q-64 0 -115.5 -25.5t-87.5 -69t-55 -102.5t-19 -126q0 -62 20.5 -117t56.5 -95.5t85 -64t105 -23.5
q60 0 100 35t40 101q0 45 -14.5 64.5t-33.5 19.5q-38 0 -61 -62l-82 30q41 140 87 241.5t99.5 167t116 97t136.5 31.5q68 0 131 -31t111.5 -87t77.5 -133.5t29 -169.5q0 -140 -19 -268t-55.5 -239t-90 -202t-122.5 -155.5t-153.5 -100t-182.5 -35.5q-80 0 -148.5 23.5
t-131 69.5t-119.5 113.5t-114 155.5l78 64q41 -52 86 -94t95.5 -71.5t108 -45.5t123.5 -16q70 0 142.5 29t138 81t119 124t86.5 158q-98 -87 -229 -87q-32 0 -64 5t-61 14z" />
    <glyph glyph-name="uni0D9C0DCA.rakar" horiz-adv-x="1444" 
d="M1076 1394h84q22 -18 51 -37.5t65 -37.5q78 -41 114.5 -89.5t36.5 -116.5q0 -34 -13 -65t-36 -54.5t-55.5 -37.5t-72.5 -14q-16 0 -33 2t-40 8v-214q29 -51 46 -112t17 -130q0 -209 -42 -390t-122 -314.5t-196 -209.5t-263 -76q-80 0 -148.5 22t-131 66t-119.5 110
t-114 154l78 64q41 -52 86 -92.5t95.5 -68t108 -42t123.5 -14.5q70 0 142.5 27.5t138 77.5t119 120.5t86.5 156.5q-98 -87 -229 -87q-32 0 -64 5t-61 14l24 98q32 -8 57 -11.5t44 -3.5q59 0 106 24.5t80 66.5t50.5 99t17.5 122q0 73 -23.5 134t-62.5 105t-88.5 68t-100.5 24
q-72 0 -129.5 -61.5t-100.5 -169.5q38 -1 68 -17.5t51 -45t32.5 -66t11.5 -79.5q0 -51 -22 -105t-63.5 -98.5t-101.5 -73.5t-137 -29q-74 0 -135.5 33.5t-106.5 90.5t-70 132.5t-25 159.5q0 103 31 194.5t84 159.5t124 107.5t151 39.5q33 0 61.5 -3.5t50.5 -9.5l-5 -101
q-30 5 -51.5 8.5t-35.5 3.5q-64 0 -115.5 -25.5t-87.5 -69t-55 -102.5t-19 -126q0 -62 20.5 -117t56.5 -95.5t85 -64t105 -23.5q60 0 100 35t40 101q0 45 -14.5 64.5t-33.5 19.5q-38 0 -61 -62l-82 30q41 140 87 241.5t99.5 167t116 97t136.5 31.5q50 0 96.5 -17t88.5 -48
v542zM1177 1059q14 -5 28 -8t25 -3q32 0 51.5 20.5t19.5 50.5q0 23 -6.5 41t-21 34.5t-38 33t-58.5 36.5v-205z" />
    <glyph glyph-name="uni0D9C0DD2.rakar" 
d="M1240 496q0 -209 -42 -390t-122 -314.5t-196 -209.5t-263 -76q-80 0 -148.5 22t-131 66t-119.5 110t-114 154l78 64q41 -52 86 -92.5t95.5 -68t108 -42t123.5 -14.5q67 0 138.5 30t137 82t121 122.5t90.5 152.5q-47 -43 -104 -67.5t-126 -24.5q-32 0 -64 5t-61 14l24 98
q32 -8 57 -11.5t44 -3.5q59 0 106 24.5t80 66.5t50.5 99t17.5 122q0 73 -21 134t-56 105t-81.5 68t-97.5 24q-36 0 -71 -16t-67 -46t-60 -72.5t-50 -96.5q37 -1 67 -17.5t51 -45t32.5 -66t11.5 -79.5q0 -51 -22 -105t-63.5 -98.5t-101.5 -73.5t-137 -29q-74 0 -135.5 33.5
t-106.5 90.5t-70 132.5t-25 159.5q0 90 23 167.5t64.5 139t100 104t129.5 63.5l47 -96q-51 -11 -93.5 -37.5t-73 -65.5t-47.5 -89.5t-17 -109.5q0 -62 20.5 -117t56.5 -95.5t85 -64t105 -23.5q60 0 100 35t40 101q0 45 -14.5 64.5t-33.5 19.5q-38 0 -61 -62l-82 30
q25 73 49.5 138t51.5 121t56 102t63 81q-259 54 -259 271q0 63 28.5 120t81.5 99.5t128.5 68t170.5 25.5q101 0 179.5 -23.5t132 -65t81 -99t27.5 -125.5q0 -161 -162 -238q42 -31 72 -73.5t49.5 -90.5t29 -98.5t9.5 -96.5zM884 916q8 0 17 -0.5t17 -1.5q212 55 212 162
q0 132 -308 132q-299 0 -299 -132q0 -69 78 -112.5t215 -55.5q34 8 68 8z" />
    <glyph glyph-name="uni0D9C0DD3.rakar" 
d="M1240 496q0 -209 -42 -390t-122 -314.5t-196 -209.5t-263 -76q-80 0 -148.5 22t-131 66t-119.5 110t-114 154l78 64q41 -52 86 -92.5t95.5 -68t108 -42t123.5 -14.5q67 0 138.5 30t137 82t121 122.5t90.5 152.5q-47 -43 -104 -67.5t-126 -24.5q-32 0 -64 5t-61 14l24 98
q32 -8 57 -11.5t44 -3.5q59 0 106 24.5t80 66.5t50.5 99t17.5 122q0 73 -21 134t-56 105t-81.5 68t-97.5 24q-36 0 -71 -16t-67 -46t-60 -72.5t-50 -96.5q37 -1 67 -17.5t51 -45t32.5 -66t11.5 -79.5q0 -51 -22 -105t-63.5 -98.5t-101.5 -73.5t-137 -29q-74 0 -135.5 33.5
t-106.5 90.5t-70 132.5t-25 159.5q0 90 23 167.5t64.5 139t100 104t129.5 63.5l47 -96q-51 -11 -93.5 -37.5t-73 -65.5t-47.5 -89.5t-17 -109.5q0 -62 20.5 -117t56.5 -95.5t85 -64t105 -23.5q60 0 100 35t40 101q0 45 -14.5 64.5t-33.5 19.5q-38 0 -61 -62l-82 30
q47 138 95 246.5t110 179.5q-244 60 -244 267q0 63 28 119.5t81 99.5t128.5 68.5t171.5 25.5q102 0 180.5 -25t132 -66.5t80.5 -96t27 -113.5q0 -41 -10 -78t-29 -68.5t-46 -56.5t-60 -41q37 -32 64.5 -73t44.5 -87t25.5 -93.5t8.5 -91.5zM884 916h6q-16 32 -16 71
q0 48 24 100.5t62 90.5q-29 5 -64 7.5t-74 2.5q-299 0 -299 -132q0 -32 18 -58.5t50.5 -47t78.5 -35t102 -21.5q53 22 112 22zM1130 1052q0 72 -55 95q-23 -14 -41.5 -32.5t-31.5 -39.5t-20.5 -42t-7.5 -39q0 -65 58 -65q20 0 37.5 11.5t31 29t21.5 39.5t8 43z" />
    <glyph glyph-name="uni0D9D0DCA" 
d="M897 0q-36 0 -67.5 8t-54.5 22.5t-36.5 35.5t-13.5 47q0 7 6.5 27t14 41t14 38.5t6.5 20.5q0 29 -27.5 46.5t-75.5 17.5q-49 0 -78.5 -19t-29.5 -45q0 -9 6.5 -25.5t15 -35t15 -36.5t6.5 -30q0 -53 -47.5 -83t-124.5 -30t-137 30t-101 79.5t-63 114.5t-22 134
q0 56 18.5 106.5t47.5 89.5h-90v100h411q-3 30 -12 56.5t-22 45.5t-29 30t-34 11q-13 0 -22.5 -6t-17 -15.5t-13.5 -21t-12 -23.5q-34 -46 -84 -46q-14 0 -30 4t-29 13.5t-21.5 25.5t-8.5 39q0 26 15 52.5t40.5 48.5t60 35.5t74.5 13.5q61 0 107 -25t77.5 -71.5t49 -114
t20.5 -152.5h-173q-101 0 -152.5 -42t-51.5 -118q0 -41 12 -74.5t35.5 -58.5t58.5 -38.5t81 -13.5q21 0 48 3q-2 10 -2.5 13t-0.5 12q0 78 53 123t156 45q41 0 78 -12t65 -34.5t44.5 -53.5t16.5 -68q0 -9 -0.5 -12.5t-2.5 -13.5q11 -2 21 -2h18q45 0 84.5 12.5t69 36.5
t46 59t16.5 81q0 76 -50.5 116t-149.5 40h-200q3 85 18 152.5t44 114t73 71.5t106 25q5 0 10.5 -0.5t11.5 -0.5v479h84q20 -16 49 -35.5t67 -39.5q80 -41 115 -90t35 -116q0 -36 -12.5 -67t-36 -54.5t-56 -36.5t-71.5 -13q-16 0 -33 1.5t-40 8.5v-76q28 -21 44.5 -51
t16.5 -67q0 -34 -7 -75t-22 -76q57 -40 91 -103.5t34 -140.5q0 -67 -26 -132.5t-71.5 -117t-108.5 -83t-137 -31.5zM1083 1059q14 -4 28 -7t25 -3q32 0 51.5 20.5t19.5 50.5q0 23 -6.5 41t-21 34.5t-38 33t-58.5 35.5v-205zM936 736q-26 0 -44 -6.5t-30.5 -18t-20 -26.5
t-11.5 -31h70t52.5 -1t38.5 -2t29 -3q1 7 1.5 17t0.5 15q0 24 -25.5 40t-60.5 16z" />
    <glyph glyph-name="uni0D9D0DD2" 
d="M897 0q-36 0 -67.5 8t-54.5 22.5t-36.5 35.5t-13.5 47q0 7 6.5 27t14 41t14 38.5t6.5 20.5q0 29 -27.5 46.5t-75.5 17.5q-49 0 -78.5 -19t-29.5 -45q0 -9 6.5 -25.5t15 -35t15 -36.5t6.5 -30q0 -53 -47.5 -83t-124.5 -30t-137 30t-101 79.5t-63 114.5t-22 134
q0 56 18.5 106.5t47.5 89.5h-90v100h411q-3 30 -12 56.5t-22 45.5t-29 30t-34 11q-13 0 -22.5 -6t-17 -15.5t-13.5 -21t-12 -23.5q-34 -46 -84 -46q-14 0 -30 4t-29 13.5t-21.5 25.5t-8.5 39q0 20 9 40.5t24.5 39t37.5 34t49 24.5q-38 38 -60.5 85t-22.5 93q0 147 120.5 230
t357.5 83q238 0 359 -80.5t121 -232.5q0 -44 -25.5 -94.5t-70.5 -93.5q40 -20 65 -55.5t25 -80.5q0 -34 -7 -75t-22 -76q57 -40 91 -103.5t34 -140.5q0 -67 -26 -132.5t-71.5 -117t-108.5 -83t-137 -31.5zM1039 1066q0 34 -19.5 58.5t-63 41t-114 24.5t-172.5 8
q-98 0 -168 -8t-114 -24.5t-64.5 -41t-20.5 -58.5q0 -23 7 -47.5t20.5 -46t33.5 -38.5t46 -26q48 -14 82.5 -45t57 -76t34.5 -104t15 -129h-173q-101 0 -152.5 -42t-51.5 -118q0 -41 12 -74.5t35.5 -58.5t58.5 -38.5t81 -13.5q21 0 48 3q-2 10 -2.5 13t-0.5 12q0 78 53 123
t156 45q41 0 78 -12t65 -34.5t44.5 -53.5t16.5 -68q0 -9 -0.5 -12.5t-2.5 -13.5q11 -2 21 -2h18q45 0 84.5 12.5t69 36.5t46 59t16.5 81q0 76 -50.5 116t-149.5 40h-200q5 148 47 240.5t134 115.5q67 38 103 82.5t36 73.5zM936 736q-26 0 -44 -6.5t-30.5 -18t-20 -26.5
t-11.5 -31h70t52.5 -1t38.5 -2t29 -3q1 7 1.5 17t0.5 15q0 24 -25.5 40t-60.5 16z" />
    <glyph glyph-name="uni0D9D0DD3" 
d="M897 0q-36 0 -67.5 8t-54.5 22.5t-36.5 35.5t-13.5 47q0 7 6.5 27t14 41t14 38.5t6.5 20.5q0 29 -27.5 46.5t-75.5 17.5q-49 0 -78.5 -19t-29.5 -45q0 -9 6.5 -25.5t15 -35t15 -36.5t6.5 -30q0 -53 -47.5 -83t-124.5 -30t-137 30t-101 79.5t-63 114.5t-22 134
q0 56 18.5 106.5t47.5 89.5h-90v100h411q-3 30 -12 56.5t-22 45.5t-29 30t-34 11q-13 0 -22.5 -6t-17 -15.5t-13.5 -21t-12 -23.5q-34 -46 -84 -46q-14 0 -30 4t-29 13.5t-21.5 25.5t-8.5 39q0 19 8 38.5t23 37.5t35.5 33.5t45.5 25.5q-37 37 -58.5 82.5t-21.5 91.5
q0 157 126 235t369 78q126 0 221 -23.5t158 -64t95 -95.5t32 -118t-26.5 -121.5t-71.5 -94.5q25 -21 39.5 -50t14.5 -63t-7 -75t-22 -76q57 -40 91 -103.5t34 -140.5q0 -67 -26 -132.5t-71.5 -117t-108.5 -83t-137 -31.5zM599 554h-173q-101 0 -152.5 -42t-51.5 -118
q0 -41 12 -74.5t35.5 -58.5t58.5 -38.5t81 -13.5q21 0 48 3q-2 10 -2.5 13t-0.5 12q0 78 53 123t156 45q41 0 78 -12t65 -34.5t44.5 -53.5t16.5 -68q0 -9 -0.5 -12.5t-2.5 -13.5q11 -2 21 -2h18q45 0 84.5 12.5t69 36.5t46 59t16.5 81q0 76 -50.5 116t-149.5 40h-200
q5 123 33.5 208t90.5 124q-35 42 -35 104q0 22 6.5 47.5t18 51t26.5 49t33 41.5q-20 3 -47.5 5t-58.5 3.5t-64 2.5t-64 1q-81 0 -147.5 -7.5t-114 -23.5t-73 -41t-25.5 -60q0 -18 8.5 -39.5t23 -42.5t34 -39t42.5 -29q91 -23 139.5 -115.5t53.5 -239.5zM1066 1055
q0 30 -13.5 56t-42.5 39q-22 -14 -40.5 -33t-31.5 -39.5t-20.5 -41.5t-7.5 -39q0 -27 14 -46t45 -19q21 0 38.5 12t30.5 30t20.5 39.5t7.5 41.5zM936 736q-26 0 -44 -6.5t-30.5 -18t-20 -26.5t-11.5 -31h70t52.5 -1t38.5 -2t29 -3q1 7 1.5 17t0.5 15q0 24 -25.5 40t-60.5 16
z" />
    <glyph glyph-name="uni0D9D0DD4" 
d="M897 0q-36 0 -67.5 8t-54.5 22.5t-36.5 35.5t-13.5 47q0 7 6.5 27t14 41t14 38.5t6.5 20.5q0 29 -27.5 46.5t-75.5 17.5q-49 0 -78.5 -19t-29.5 -45q0 -9 6.5 -25.5t15 -35t15 -36.5t6.5 -30q0 -53 -47.5 -83t-124.5 -30t-137 30t-101 79.5t-63 114.5t-22 134
q0 56 18.5 106.5t47.5 89.5h-90v100h411q-3 30 -12 56.5t-22 45.5t-29 30t-34 11q-13 0 -22.5 -6t-17 -15.5t-13.5 -21t-12 -23.5q-34 -46 -84 -46q-14 0 -30 4t-29 13.5t-21.5 25.5t-8.5 39q0 26 15 52.5t40.5 48.5t60 35.5t74.5 13.5q61 0 107 -25t77.5 -71.5t49 -114
t20.5 -152.5h-173q-101 0 -152.5 -42t-51.5 -118q0 -41 12 -74.5t35.5 -58.5t58.5 -38.5t81 -13.5q21 0 48 3q-2 10 -2.5 13t-0.5 12q0 78 53 123t156 45q41 0 78 -12t65 -34.5t44.5 -53.5t16.5 -68q0 -9 -0.5 -12.5t-2.5 -13.5q11 -2 21 -2h18q45 0 84.5 12.5t69 36.5
t46 59t16.5 81q0 76 -50.5 116t-149.5 40h-200q3 85 18 152.5t44 114t73 71.5t106 25q37 0 70.5 -12t59 -33t40 -50t14.5 -63t-7 -75t-22 -76q56 -39 89.5 -100.5t35.5 -136.5l1 -842h-910q-47 0 -85 14t-65 39.5t-41.5 62t-14.5 81.5q0 43 16.5 81t44.5 66.5t65.5 44.5
t80.5 16q154 0 228 -166l-90 -41q-56 105 -128 105q-25 0 -46.5 -8t-37 -21.5t-24 -33t-8.5 -41.5q0 -48 28 -73.5t77 -25.5h791v458q-43 -40 -99.5 -63.5t-125.5 -23.5zM936 736q-26 0 -44 -6.5t-30.5 -18t-20 -26.5t-11.5 -31h70t52.5 -1t38.5 -2t29 -3q1 7 1.5 17t0.5 15
q0 24 -25.5 40t-60.5 16z" />
    <glyph glyph-name="uni0D9D0DD6" 
d="M897 0q-36 0 -67.5 8t-54.5 22.5t-36.5 35.5t-13.5 47q0 7 6.5 27t14 41t14 38.5t6.5 20.5q0 29 -27.5 46.5t-75.5 17.5q-49 0 -78.5 -19t-29.5 -45q0 -9 6.5 -25.5t15 -35t15 -36.5t6.5 -30q0 -53 -47.5 -83t-124.5 -30t-137 30t-101 79.5t-63 114.5t-22 134
q0 56 18.5 106.5t47.5 89.5h-90v100h411q-3 30 -12 56.5t-22 45.5t-29 30t-34 11q-13 0 -22.5 -6t-17 -15.5t-13.5 -21t-12 -23.5q-34 -46 -84 -46q-14 0 -30 4t-29 13.5t-21.5 25.5t-8.5 39q0 26 15 52.5t40.5 48.5t60 35.5t74.5 13.5q61 0 107 -25t77.5 -71.5t49 -114
t20.5 -152.5h-173q-101 0 -152.5 -42t-51.5 -118q0 -41 12 -74.5t35.5 -58.5t58.5 -38.5t81 -13.5q21 0 48 3q-2 10 -2.5 13t-0.5 12q0 78 53 123t156 45q41 0 78 -12t65 -34.5t44.5 -53.5t16.5 -68q0 -9 -0.5 -12.5t-2.5 -13.5q11 -2 21 -2h18q45 0 84.5 12.5t69 36.5
t46 59t16.5 81q0 76 -50.5 116t-149.5 40h-200q3 85 18 152.5t44 114t73 71.5t106 25q37 0 70.5 -12t59 -33t40 -50t14.5 -63t-7 -75t-22 -76q57 -40 91 -103.5t34 -140.5l1 -847h-84q-95 120 -224 120q-41 0 -88.5 -9t-97 -23t-100 -30t-98 -30t-91 -23t-79.5 -9
q-53 0 -96 16t-74 44t-47.5 67t-16.5 84q0 40 15 78t42.5 66.5t65.5 46t84 17.5q155 0 228 -166l-90 -42q-53 107 -130 107q-27 0 -48.5 -8.5t-36 -23t-22 -33t-7.5 -38.5q0 -24 9.5 -45t25 -36.5t36.5 -24t45 -8.5q35 0 79.5 10.5t93 26.5t99.5 35t98.5 35t90 26.5
t75.5 10.5q125 0 224 -66v401q-45 -42 -102 -67.5t-123 -25.5zM936 736q-26 0 -44 -6.5t-30.5 -18t-20 -26.5t-11.5 -31h70t52.5 -1t38.5 -2t29 -3q1 7 1.5 17t0.5 15q0 24 -25.5 40t-60.5 16z" />
    <glyph glyph-name="uni0D9D.reph" 
d="M897 0q-36 0 -67.5 8t-54.5 22.5t-36.5 35.5t-13.5 47q0 7 6.5 27t14 41t14 38.5t6.5 20.5q0 29 -27.5 46.5t-75.5 17.5q-49 0 -78.5 -19t-29.5 -45q0 -9 6.5 -25.5t15 -35t15 -36.5t6.5 -30q0 -53 -47.5 -83t-124.5 -30t-137 30t-101 79.5t-63 114.5t-22 134
q0 56 18.5 106.5t47.5 89.5h-90v100h411q-3 30 -12 56.5t-22 45.5t-29 30t-34 11q-13 0 -22.5 -6t-17 -15.5t-13.5 -21t-12 -23.5q-34 -46 -84 -46q-14 0 -30 4t-29 13.5t-21.5 25.5t-8.5 39q0 26 15 52.5t40.5 48.5t60 35.5t74.5 13.5q27 0 53 -6q-14 21 -22 45.5t-8 53.5
q0 50 21.5 97.5t61.5 84.5t95.5 59.5t123.5 22.5q69 0 126.5 -22t98 -59.5t63 -87.5t22.5 -105q0 -20 -4 -41.5t-10 -41.5q36 -1 68.5 -13t57 -33t38.5 -49.5t14 -62.5t-7 -75t-22 -76q57 -40 91 -103.5t34 -140.5q0 -67 -26 -132.5t-71.5 -117t-108.5 -83t-137 -31.5z
M599 554h-173q-101 0 -152.5 -42t-51.5 -118q0 -41 12 -74.5t35.5 -58.5t58.5 -38.5t81 -13.5q21 0 48 3q-2 10 -2.5 13t-0.5 12q0 78 53 123t156 45q41 0 78 -12t65 -34.5t44.5 -53.5t16.5 -68q0 -9 -0.5 -12.5t-2.5 -13.5q11 -2 21 -2h18q45 0 84.5 12.5t69 36.5t46 59
t16.5 81q0 76 -50.5 116t-149.5 40h-200q4 112 28 192t75 124q23 29 40 57.5t17 72.5q0 35 -17.5 67.5t-47 57t-67 39.5t-77.5 15q-45 0 -82 -14.5t-63.5 -37.5t-41 -53t-14.5 -60q0 -27 13.5 -51t41.5 -40q-11 27 -11 59q0 30 12.5 57t34 46.5t51 31t63.5 11.5
q33 0 61.5 -11.5t49.5 -31.5t33 -46.5t12 -56.5q0 -31 -21 -61t-54 -53.5t-74 -38t-82 -14.5q-36 0 -72 9q33 -47 51 -114.5t21 -155.5zM936 736q-26 0 -44 -6.5t-30.5 -18t-20 -26.5t-11.5 -31h70t52.5 -1t38.5 -2t29 -3q1 7 1.5 17t0.5 15q0 24 -25.5 40t-60.5 16z
M615 983q0 -26 17 -39t40 -13q26 0 42 14.5t16 37.5q0 20 -16 35t-40 15q-30 0 -44.5 -14t-14.5 -36z" />
    <glyph glyph-name="uni0D9D.rakar" 
d="M897 0q-36 0 -67.5 8t-54.5 22.5t-36.5 35.5t-13.5 47q0 7 6.5 27t14 41t14 38.5t6.5 20.5q0 29 -27.5 46.5t-75.5 17.5q-49 0 -78.5 -19t-29.5 -45q0 -9 6.5 -25.5t15 -35t15 -36.5t6.5 -30q0 -53 -47.5 -83t-124.5 -30t-137 30t-101 79.5t-63 114.5t-22 134
q0 56 18.5 106.5t47.5 89.5h-90v100h411q-3 30 -12 56.5t-22 45.5t-29 30t-34 11q-13 0 -22.5 -6t-17 -15.5t-13.5 -21t-12 -23.5q-34 -46 -84 -46q-14 0 -30 4t-29 13.5t-21.5 25.5t-8.5 39q0 26 15 52.5t40.5 48.5t60 35.5t74.5 13.5q61 0 107 -25t77.5 -71.5t49 -114
t20.5 -152.5h-173q-101 0 -152.5 -42t-51.5 -118q0 -41 12 -74.5t35.5 -58.5t58.5 -38.5t81 -13.5q21 0 48 3q-2 10 -2.5 13t-0.5 12q0 78 53 123t156 45q41 0 78 -12t65 -34.5t44.5 -53.5t16.5 -68q0 -9 -0.5 -12.5t-2.5 -13.5q11 -2 21 -2h18q45 0 84.5 12.5t69 36.5
t46 59t16.5 81q0 76 -50.5 116t-149.5 40h-200q3 85 18 152.5t44 114t73 71.5t106 25q37 0 70.5 -12t59 -33t40 -50t14.5 -63t-7 -75t-22 -76q57 -40 91 -103.5t34 -140.5q0 -94 -18 -193.5t-53.5 -195t-86.5 -181t-118.5 -150t-149.5 -102t-178 -37.5q-80 0 -148.5 22
t-131 66.5t-119.5 110.5t-114 153l78 65q41 -52 86 -92.5t95.5 -68.5t108 -42.5t123.5 -14.5q69 0 138 25t131 71t112.5 111t81.5 146q-39 -27 -84 -42t-96 -15zM936 736q-26 0 -44 -6.5t-30.5 -18t-20 -26.5t-11.5 -31h70t52.5 -1t38.5 -2t29 -3q1 7 1.5 17t0.5 15
q0 24 -25.5 40t-60.5 16z" />
    <glyph glyph-name="uni0D9D0DD2.rakar" 
d="M897 0q-36 0 -67.5 8t-54.5 22.5t-36.5 35.5t-13.5 47q0 7 6.5 27t14 41t14 38.5t6.5 20.5q0 29 -27.5 46.5t-75.5 17.5q-49 0 -78.5 -19t-29.5 -45q0 -9 6.5 -25.5t15 -35t15 -36.5t6.5 -30q0 -53 -47.5 -83t-124.5 -30t-137 30t-101 79.5t-63 114.5t-22 134
q0 56 18.5 106.5t47.5 89.5h-90v100h411q-3 30 -12 56.5t-22 45.5t-29 30t-34 11q-13 0 -22.5 -6t-17 -15.5t-13.5 -21t-12 -23.5q-34 -46 -84 -46q-14 0 -30 4t-29 13.5t-21.5 25.5t-8.5 39q0 21 9.5 42t26.5 40.5t40.5 34.5t51.5 24q-18 16 -32.5 37t-24.5 43.5t-15.5 45
t-5.5 41.5q0 73 30 133t90 102t149.5 65t208.5 23q118 0 208 -22t150.5 -64t91 -102t30.5 -135q0 -23 -7 -47t-20.5 -48t-32 -47t-40.5 -42q36 -21 58.5 -55t22.5 -77q0 -34 -7 -75t-22 -76q57 -40 91 -103.5t34 -140.5q0 -94 -18 -193.5t-53.5 -195t-86.5 -181t-118.5 -150
t-149.5 -102t-178 -37.5q-80 0 -148.5 22t-131 66.5t-119.5 110.5t-114 153l78 65q41 -52 86 -92.5t95.5 -68.5t108 -42.5t123.5 -14.5q69 0 138 25t131 71t112.5 111t81.5 146q-39 -27 -84 -42t-96 -15zM599 554h-173q-101 0 -152.5 -42t-51.5 -118q0 -41 12 -74.5
t35.5 -58.5t58.5 -38.5t81 -13.5q21 0 48 3q-2 10 -2.5 13t-0.5 12q0 78 53 123t156 45q41 0 78 -12t65 -34.5t44.5 -53.5t16.5 -68q0 -9 -0.5 -12.5t-2.5 -13.5q11 -2 21 -2h18q45 0 84.5 12.5t69 36.5t46 59t16.5 81q0 76 -50.5 116t-149.5 40h-200q3 75 14.5 136.5
t34.5 107.5t57.5 75t82.5 39q35 14 62 33t45 39t27.5 39.5t9.5 34.5q0 33 -20.5 59.5t-64.5 45t-114.5 28t-169.5 9.5q-187 0 -277 -36t-90 -106q0 -21 10.5 -42.5t28 -42.5t40 -40.5t47.5 -35.5q75 -34 113.5 -122t43.5 -221zM936 736q-26 0 -44 -6.5t-30.5 -18t-20 -26.5
t-11.5 -31h70t52.5 -1t38.5 -2t29 -3q1 7 1.5 17t0.5 15q0 24 -25.5 40t-60.5 16z" />
    <glyph glyph-name="uni0D9D0DD3.rakar" 
d="M897 0q-36 0 -67.5 8t-54.5 22.5t-36.5 35.5t-13.5 47q0 7 6.5 27t14 41t14 38.5t6.5 20.5q0 29 -27.5 46.5t-75.5 17.5q-49 0 -78.5 -19t-29.5 -45q0 -9 6.5 -25.5t15 -35t15 -36.5t6.5 -30q0 -53 -47.5 -83t-124.5 -30t-137 30t-101 79.5t-63 114.5t-22 134
q0 56 18.5 106.5t47.5 89.5h-90v100h411q-3 30 -12 56.5t-22 45.5t-29 30t-34 11q-13 0 -22.5 -6t-17 -15.5t-13.5 -21t-12 -23.5q-34 -46 -84 -46q-14 0 -30 4t-29 13.5t-21.5 25.5t-8.5 39q0 20 9 40.5t24.5 39t37.5 34t49 24.5q-41 34 -66.5 78t-25.5 100
q0 63 28.5 119.5t87.5 99.5t149 68.5t214 25.5q127 0 224 -25t163 -66.5t99.5 -96t33.5 -113.5q0 -32 -6.5 -64t-19 -60.5t-30.5 -53t-40 -42.5q26 -21 42 -51t16 -65q0 -34 -7 -75t-22 -76q57 -40 91 -103.5t34 -140.5q0 -94 -18 -193.5t-53.5 -195t-86.5 -181t-118.5 -150
t-149.5 -102t-178 -37.5q-80 0 -148.5 22t-131 66.5t-119.5 110.5t-114 153l78 65q41 -52 86 -92.5t95.5 -68.5t108 -42.5t123.5 -14.5q69 0 138 25t131 71t112.5 111t81.5 146q-39 -27 -84 -42t-96 -15zM599 554h-173q-101 0 -152.5 -42t-51.5 -118q0 -41 12 -74.5
t35.5 -58.5t58.5 -38.5t81 -13.5q21 0 48 3q-2 10 -2.5 13t-0.5 12q0 78 53 123t156 45q41 0 78 -12t65 -34.5t44.5 -53.5t16.5 -68q0 -9 -0.5 -12.5t-2.5 -13.5q11 -2 21 -2h18q45 0 84.5 12.5t69 36.5t46 59t16.5 81q0 76 -50.5 116t-149.5 40h-200q5 128 36 214t98 123
q-22 22 -30.5 49.5t-8.5 56.5q0 48 24 100.5t62 90.5q-15 3 -41 4.5t-58.5 3t-68.5 2t-70 0.5q-78 0 -145.5 -6.5t-117 -22t-78 -41t-28.5 -62.5q0 -33 14.5 -58t37.5 -45t51 -36.5t55 -34.5q70 -36 106.5 -122.5t41.5 -215.5zM1070 1062q0 30 -13 56t-42 39
q-23 -14 -41.5 -33t-31.5 -39.5t-20.5 -41.5t-7.5 -39q0 -27 14 -46t46 -19q21 0 38.5 12t30 30t20 39.5t7.5 41.5zM936 736q-26 0 -44 -6.5t-30.5 -18t-20 -26.5t-11.5 -31h70t52.5 -1t38.5 -2t29 -3q1 7 1.5 17t0.5 15q0 24 -25.5 40t-60.5 16z" />
    <glyph glyph-name="uni0D9E0DCA" 
d="M887 0q-73 0 -130 29.5t-97 92.5q-91 -122 -234 -122q-72 0 -130 29.5t-99 79.5t-63.5 115.5t-22.5 137.5q0 123 70 197q-26 9 -46 25t-34 36t-21.5 42.5t-7.5 45.5q0 47 21 82.5t58.5 59.5t90 36t115.5 12q73 0 135.5 -22t108 -56.5t71.5 -77.5t26 -85
q0 -47 -29.5 -72.5t-85.5 -25.5h-178q-40 0 -73 -13t-56.5 -35t-36.5 -51t-13 -61q0 -97 49.5 -148.5t150.5 -51.5q41 0 75 19.5t58.5 51t38 71.5t13.5 82h102q0 -39 12.5 -79t35 -72t54.5 -52.5t72 -20.5q56 0 103.5 24.5t82 69t54 105.5t19.5 134q0 97 -46.5 179t-121 141
t-167 92.5t-185.5 33.5q-66 0 -143 -17t-168 -50l-44 94q20 8 35.5 14.5t35.5 13.5q-42 49 -42 82q0 25 27.5 48t71.5 39.5t98.5 26.5t109.5 10q154 0 273.5 -56t200.5 -154t123 -230t42 -285q0 -115 -26.5 -210t-73.5 -162.5t-113.5 -104.5t-145.5 -37zM407 1113
q0 -6 13 -23t27 -29q56 9 97.5 14t72.5 5q115 0 214 -35t184 -98q-72 90 -172.5 140t-235.5 50q-31 0 -66 -2t-65 -5.5t-49.5 -8t-19.5 -8.5zM589 660q8 0 9 -1q0 22 -18 46t-49 44.5t-73.5 33.5t-93.5 13h-4q12 -20 19.5 -44t7.5 -50q0 -21 -9 -45q15 2 33.5 2.5t36.5 0.5
h141zM172 710q0 -24 13.5 -42.5t44.5 -18.5q21 0 38 17.5t17 43.5q0 22 -14.5 38.5t-35.5 16.5q-29 0 -46 -17.5t-17 -37.5z" />
    <glyph glyph-name="uni0D9E0DD2" 
d="M887 0q-73 0 -130 29.5t-97 92.5q-92 -122 -234 -122q-72 0 -130 29.5t-99 79.5t-63.5 115.5t-22.5 137.5q0 123 70 197q-26 9 -46 25t-34 36t-21.5 42.5t-7.5 45.5q0 47 21 82.5t58.5 59.5t90 36t115.5 12q73 0 135.5 -22t108 -56.5t71.5 -77.5t26 -85
q0 -47 -29.5 -72.5t-85.5 -25.5h-178q-40 0 -73 -13t-56.5 -35t-36.5 -51t-13 -61q0 -96 49.5 -138t150.5 -42q41 0 75 18t58.5 48.5t38 71t13.5 86.5h101q0 -47 12.5 -87.5t35 -71t55 -48t72.5 -17.5q54 0 100.5 22t80.5 63.5t53.5 101t19.5 135.5q0 75 -21 140
t-57.5 115.5t-87 85t-109.5 49.5q-35 9 -94 15t-140 10q-126 6 -206 18.5t-118 33.5q-80 44 -80 151q0 55 29.5 99t86.5 74.5t139.5 47t187.5 16.5q97 0 185 -19.5t154.5 -55.5t105.5 -86t39 -111q0 -25 -8.5 -48.5t-23.5 -44.5t-35 -37.5t-42 -27.5q41 -28 76.5 -71
t62 -101t41.5 -130.5t15 -159.5q0 -108 -25.5 -200t-72 -159.5t-111.5 -106t-145 -38.5zM341 1144q0 -27 21 -42t68 -24t122.5 -14.5t185.5 -12.5l60 -4t55.5 -3.5t43 -2t21.5 -0.5q63 0 94.5 18.5t31.5 44.5q0 93 -466 93q-121 0 -179 -10.5t-58 -42.5zM589 660q8 0 8 -1
q0 22 -17.5 46t-48 44.5t-73.5 33.5t-94 13h-4q12 -20 19.5 -44t7.5 -50q0 -21 -9 -45q15 2 33.5 2.5t36.5 0.5h141zM172 710q0 -24 13.5 -42.5t44.5 -18.5q21 0 38 17.5t17 43.5q0 22 -14.5 38.5t-35.5 16.5q-29 0 -46 -17.5t-17 -37.5z" />
    <glyph glyph-name="uni0D9E0DD3" 
d="M887 0q-73 0 -129.5 29.5t-97.5 92.5q-91 -122 -234 -122q-72 0 -130 29.5t-99 79.5t-63.5 115.5t-22.5 137.5q0 123 70 197q-26 9 -46 25t-34 36t-21.5 42.5t-7.5 45.5q0 47 21 82.5t58.5 59.5t90 36t115.5 12q73 0 135.5 -22t108 -56.5t71.5 -77.5t26 -85
q0 -47 -29.5 -72.5t-85.5 -25.5h-178q-40 0 -73 -13t-56.5 -35t-36.5 -51t-13 -61q0 -96 49.5 -138t150.5 -42q41 0 75 18.5t58.5 51t38 77t13.5 96.5h102q0 -53 12.5 -97.5t35 -77t54.5 -50.5t72 -18q57 0 103.5 21t80 64.5t51.5 109.5t18 156q0 73 -22.5 133.5t-62 106
t-95 75t-121.5 41.5q-63 10 -132.5 14t-85.5 8q-120 5 -182 14t-109 30t-75 58.5t-28 98.5q0 54 31.5 98t89 74.5t139.5 47.5t184 17q90 0 176.5 -20t155 -56t110.5 -86t42 -110q0 -54 -29.5 -96t-80.5 -62q196 -129 196 -415q0 -137 -25.5 -238.5t-72 -169t-112 -100.5
t-144.5 -33zM747 1041q7 0 12 -1q-19 29 -19 74q0 38 20 69q-36 2 -80.5 3t-101.5 1q-238 0 -238 -53q0 -27 25 -42.5t75 -25t126.5 -15t180.5 -10.5zM1044 1094q0 31 -32 53t-92 22q-79 0 -79 -55q0 -16 10 -29.5t27 -23t39.5 -15t47.5 -5.5q38 0 58.5 17t20.5 36zM448 660
h85.5h44.5t20 -1q0 22 -17.5 46t-48.5 44.5t-74 33.5t-94 13h-4q12 -20 19.5 -44t7.5 -50q0 -21 -9 -45q15 2 33.5 2.5t36.5 0.5zM172 710q0 -24 13.5 -42.5t44.5 -18.5q21 0 38 17.5t17 43.5q0 22 -14.5 38.5t-35.5 16.5q-29 0 -46 -17.5t-17 -37.5z" />
    <glyph glyph-name="uni0D9E0DD4" 
d="M896 0q-146 0 -227 123q-48 -62 -110 -92.5t-133 -30.5q-72 0 -130 29.5t-99 79.5t-63.5 115.5t-22.5 137.5q0 123 70 197q-26 9 -46 25t-34 36t-21.5 42.5t-7.5 45.5q0 47 21 82.5t58.5 59.5t90 36t115.5 12q73 0 135.5 -22t108 -56.5t71.5 -77.5t26 -85
q0 -47 -29.5 -72.5t-85.5 -25.5h-178q-40 0 -73 -13t-56.5 -35t-36.5 -51t-13 -61q0 -96 49.5 -138t150.5 -42q42 0 77.5 18.5t61.5 51t40.5 77t14.5 96.5h102q0 -53 12.5 -97.5t35 -77t54.5 -50.5t72 -18q57 0 102 21.5t77 62t49 98.5t17 131q0 78 -16 152.5t-47 140.5
t-75.5 122t-101.5 96t-125 62.5t-146 22.5q-54 0 -107.5 -11t-104 -34.5t-96 -60t-83.5 -87.5l-79 58q83 114 206.5 175t275.5 61q127 0 236.5 -51t190 -145t126.5 -225.5t46 -293.5v-984h-909q-47 0 -85 14t-65 39.5t-41.5 62t-14.5 81.5q0 43 16.5 81t44.5 66.5t66 44.5
t81 16q78 0 134 -41.5t93 -124.5l-89 -41q-56 105 -128 105q-25 0 -46.5 -8t-37 -21.5t-24 -33t-8.5 -41.5q0 -48 28 -73.5t76 -25.5h790v470q-44 -47 -103 -73.5t-123 -26.5zM448 660h85h44.5t19.5 -1q0 22 -17.5 46t-48.5 44.5t-75 33.5t-96 13q12 -20 19.5 -44t7.5 -50
q0 -21 -9 -45q15 2 33.5 2.5t36.5 0.5zM172 710q0 -24 13.5 -42.5t44.5 -18.5q21 0 38 17.5t17 43.5q0 22 -14.5 38.5t-35.5 16.5q-29 0 -46 -17.5t-17 -37.5z" />
    <glyph glyph-name="uni0D9E0DD6" 
d="M896 0q-146 0 -227 123q-48 -62 -110 -92.5t-133 -30.5q-72 0 -130 29.5t-99 79.5t-63.5 115.5t-22.5 137.5q0 123 70 197q-26 9 -46 25t-34 36t-21.5 42.5t-7.5 45.5q0 47 21 82.5t58.5 59.5t90 36t115.5 12q73 0 135.5 -22t108 -56.5t71.5 -77.5t26 -85
q0 -47 -29.5 -72.5t-85.5 -25.5h-178q-40 0 -73 -13t-56.5 -35t-36.5 -51t-13 -61q0 -96 49.5 -138t150.5 -42q42 0 77.5 18.5t61.5 51t40.5 77t14.5 96.5h102q0 -53 12.5 -97.5t35 -77t54.5 -50.5t72 -18q57 0 102 21.5t77 62t49 98.5t17 131q0 78 -16 152.5t-47 140.5
t-75.5 122t-101.5 96t-125 62.5t-146 22.5q-54 0 -107.5 -12.5t-104 -38t-96 -63.5t-83.5 -88l-78 57q89 129 208.5 187.5t272.5 58.5q127 0 236.5 -51t190 -145t126.5 -225.5t46 -293.5v-996h-83q-48 60 -108 90t-126 30q-63 0 -132 -19.5t-140.5 -42.5t-143 -42.5
t-138.5 -19.5q-53 0 -96 16t-74 44t-47.5 67t-16.5 84q0 40 15 78t42.5 66.5t66 46t84.5 17.5q153 0 227 -166l-89 -42q-54 106 -131 106q-27 0 -48 -9t-36 -23.5t-22.5 -32.5t-7.5 -37q0 -24 9.5 -45t25 -36.5t36.5 -24t45 -8.5q60 0 124.5 22.5t132 49.5t137.5 49.5
t142 22.5q62 0 122 -17t111 -50v408q-44 -47 -103 -73.5t-123 -26.5zM597 659q0 22 -17.5 46t-48.5 44.5t-73.5 33.5t-93.5 13h-4q12 -20 19.5 -44t7.5 -50q0 -21 -9 -45q15 2 33.5 2.5t36.5 0.5q148 0 149 -1zM172 710q0 -24 13.5 -42.5t44.5 -18.5q21 0 38 17.5t17 43.5
q0 22 -14.5 38.5t-35.5 16.5q-29 0 -46 -17.5t-17 -37.5z" />
    <glyph glyph-name="uni0D9E.rakar" 
d="M896 0q-146 0 -227 123q-48 -62 -110 -92.5t-133 -30.5q-72 0 -130 29.5t-99 79.5t-63.5 115.5t-22.5 137.5q0 123 70 197q-26 9 -46 25t-34 36t-21.5 42.5t-7.5 45.5q0 47 21 82.5t58.5 59.5t90 36t115.5 12q73 0 135.5 -22t108 -56.5t71.5 -77.5t26 -85
q0 -47 -29.5 -72.5t-85.5 -25.5h-178q-40 0 -73 -13t-56.5 -35t-36.5 -51t-13 -61q0 -96 49.5 -138t150.5 -42q42 0 77.5 18.5t61.5 51t40.5 77t14.5 96.5h102q0 -53 12.5 -97.5t35 -77t54.5 -50.5t72 -18q57 0 102 21.5t77 62t49 98.5t17 131q0 78 -17.5 152.5t-50.5 140.5
t-80 122t-106 96t-128.5 62.5t-147.5 22.5q-108 0 -206.5 -50.5t-174.5 -151.5l-79 57q45 64 98.5 110.5t114 76.5t125.5 44.5t133 14.5q127 0 239.5 -51t197 -145t133.5 -225.5t49 -293.5q0 -124 -17 -247t-51.5 -235t-86 -208t-121 -167t-156 -111t-190.5 -40
q-80 0 -149 22t-131 66t-119.5 110t-113.5 154l78 64q41 -52 86 -92.5t95 -68t107.5 -42t124.5 -14.5q64 0 133 25t132.5 70.5t117.5 109.5t89 141q-38 -26 -81.5 -38.5t-91.5 -12.5zM589 660q8 0 8 -1q0 22 -17.5 46t-48 44.5t-73.5 33.5t-94 13h-4q12 -20 19.5 -44
t7.5 -50q0 -21 -9 -45q15 2 33.5 2.5t36.5 0.5h141zM172 710q0 -24 13.5 -42.5t44.5 -18.5q21 0 38 17.5t17 43.5q0 22 -14.5 38.5t-35.5 16.5q-29 0 -46 -17.5t-17 -37.5z" />
    <glyph glyph-name="uni0D9E0DCA.rakar" 
d="M887 0q-73 0 -130 29.5t-97 92.5q-92 -122 -234 -122q-72 0 -130 29.5t-99 79.5t-63.5 115.5t-22.5 137.5q0 123 70 197q-26 9 -46 25t-34 36t-21.5 42.5t-7.5 45.5q0 47 21 82.5t58.5 59.5t90 36t115.5 12q73 0 135.5 -22t108 -56.5t71.5 -77.5t26 -85
q0 -47 -29.5 -72.5t-85.5 -25.5h-178q-40 0 -73 -13t-56.5 -35t-36.5 -51t-13 -61q0 -96 49.5 -138t150.5 -42q41 0 75 18.5t58.5 51t38 77t13.5 96.5h101q0 -53 12.5 -97.5t35 -77t55 -50.5t72.5 -18q56 0 103 21.5t80.5 62t52 98.5t18.5 131q0 108 -49.5 193t-127.5 143.5
t-173.5 89t-188.5 30.5q-66 0 -143 -17t-168 -50l-44 94q20 8 35.5 14.5t35.5 12.5q-42 51 -42 83q0 25 27.5 51t71.5 46t98.5 33t109.5 13q154 0 276.5 -57.5t207 -158.5t129.5 -239t45 -299q0 -122 -17.5 -244t-52.5 -234.5t-87 -209t-121 -168t-155 -112.5t-189 -41
q-80 0 -149 22t-131 66.5t-119.5 110.5t-113.5 154l78 64q41 -52 86 -92.5t95 -68t107.5 -42t124.5 -14.5q63 0 132 26t133 72.5t118.5 110.5t89.5 139q-41 -28 -88 -40.5t-95 -12.5zM383 1123q0 -7 13 -24t27 -29q56 10 97.5 14.5t72.5 4.5q115 0 221 -32.5t194 -91.5
q-76 90 -182 146t-243 56q-31 0 -66 -5.5t-65 -13t-49.5 -14.5t-19.5 -11zM589 660q7 0 8 -1q0 22 -17.5 46t-48.5 44.5t-73.5 33.5t-93.5 13h-4q12 -20 19.5 -44t7.5 -50q0 -21 -9 -45q15 2 33.5 2.5t36.5 0.5h141zM172 710q0 -24 13.5 -42.5t44.5 -18.5q21 0 38 17.5
t17 43.5q0 22 -14.5 38.5t-35.5 16.5q-29 0 -46 -17.5t-17 -37.5z" />
    <glyph glyph-name="uni0D9E0DD2.rakar" 
d="M896 0q-146 0 -227 123q-48 -62 -110 -92.5t-133 -30.5q-72 0 -130 29.5t-99 79.5t-63.5 115.5t-22.5 137.5q0 123 70 197q-26 9 -46 25t-34 36t-21.5 42.5t-7.5 45.5q0 47 21 82.5t58.5 59.5t90 36t115.5 12q73 0 135.5 -22t108 -56.5t71.5 -77.5t26 -85
q0 -47 -29.5 -72.5t-85.5 -25.5h-178q-40 0 -73 -13t-56.5 -35t-36.5 -51t-13 -61q0 -96 49.5 -138t150.5 -42q42 0 77.5 18.5t61.5 51t40.5 77t14.5 96.5h102q0 -53 12.5 -97.5t35 -77t54.5 -50.5t72 -18q57 0 102.5 22.5t77 65t48.5 104.5t17 140q0 71 -21 132.5
t-58.5 109.5t-88 81.5t-110.5 47.5q-35 8 -94 14t-138 10q-106 3 -182.5 14.5t-125.5 35t-72 60.5t-23 93q0 55 29.5 98.5t86.5 74t139.5 47t187.5 16.5q97 0 185 -19.5t154.5 -55.5t105.5 -86t39 -111q0 -54 -30 -94.5t-81 -63.5q100 -66 148.5 -176t48.5 -265
q0 -125 -17.5 -248t-53 -235t-87.5 -208t-121.5 -167t-155 -111t-187.5 -40q-80 0 -149 22t-131 66.5t-119.5 110.5t-113.5 153l78 65q41 -52 86 -92.5t95 -68.5t107.5 -42.5t124.5 -14.5q63 0 132 26.5t133.5 73t119 111t89.5 139.5q-38 -28 -82.5 -41t-92.5 -13zM589 660
q8 0 8 -1q0 22 -17.5 46t-48 44.5t-73.5 33.5t-94 13h-4q12 -20 19.5 -44t7.5 -50q0 -21 -9 -45q15 2 33.5 2.5t36.5 0.5h141zM172 710q0 -24 13.5 -42.5t44.5 -18.5q21 0 38 17.5t17 43.5q0 22 -14.5 38.5t-35.5 16.5q-29 0 -46 -17.5t-17 -37.5zM341 1133q0 -26 21 -41
t68 -24t122.5 -14.5t185.5 -13.5q30 -2 60 -3.5t55.5 -2.5t43 -2t21.5 -1q63 0 94.5 18.5t31.5 44.5q0 93 -466 93q-121 0 -179 -11t-58 -43z" />
    <glyph glyph-name="uni0D9E0DD3.rakar" 
d="M887 0q-73 0 -130 29.5t-97 92.5q-92 -122 -234 -122q-72 0 -130 29.5t-99 79.5t-63.5 115.5t-22.5 137.5q0 123 70 197q-26 9 -46 25t-34 36t-21.5 42.5t-7.5 45.5q0 47 21 82.5t58.5 59.5t90 36t115.5 12q73 0 135.5 -22t108 -56.5t71.5 -77.5t26 -85
q0 -47 -29.5 -72.5t-85.5 -25.5h-178q-40 0 -73 -13t-56.5 -35t-36.5 -51t-13 -61q0 -96 49.5 -138t150.5 -42q41 0 75 18.5t58.5 51t38 77t13.5 96.5h101q0 -53 12.5 -97.5t35 -77t55 -50.5t72.5 -18q57 0 104 22.5t80 65t51.5 104.5t18.5 140q0 75 -22 137.5t-61 110
t-91.5 79.5t-113.5 46v-1q-38 8 -100 14t-144 9q-87 3 -157.5 14t-120 34t-76.5 60.5t-27 94.5q0 54 31 97.5t89 74t139.5 47.5t183.5 17q90 0 177 -20t155 -56t110 -86t42 -110q0 -54 -30 -95.5t-81 -62.5q97 -68 147 -182t50 -259q0 -125 -17.5 -248t-53 -235t-87.5 -208
t-121.5 -166.5t-155 -110.5t-187.5 -40q-80 0 -149 22t-131 66t-119.5 110t-113.5 154l78 64q41 -52 86 -92.5t95 -68t107.5 -42t124.5 -14.5q64 0 133.5 26t134 72.5t119 111t88.5 141.5q-40 -28 -88 -42t-97 -14zM1044 1094q0 30 -32 52.5t-92 22.5q-79 0 -79 -56
q0 -16 10 -29.5t27 -23t39.5 -15t47.5 -5.5q38 0 58.5 17t20.5 37zM589 660q8 0 8 -1q0 22 -17.5 46t-48 44.5t-73.5 33.5t-94 13h-4q12 -20 19.5 -44t7.5 -50q0 -21 -9 -45q15 2 33.5 2.5t36.5 0.5h141zM172 710q0 -24 13.5 -42.5t44.5 -18.5q21 0 38 17.5t17 43.5
q0 22 -14.5 38.5t-35.5 16.5q-29 0 -46 -17.5t-17 -37.5zM747 1040q8 0 12 -1q-19 31 -19 74q0 40 20 69q-36 3 -80.5 4t-101.5 1q-237 0 -237 -54q0 -27 24.5 -42.5t75 -25t126.5 -14.5t180 -11z" />
    <glyph glyph-name="uni0D9F0DCA" horiz-adv-x="1655" 
d="M950 117q32 -8 57 -11.5t43 -3.5q59 0 106 24.5t79.5 66.5t50 99t17.5 122q0 72 -24 132t-63.5 104t-90.5 68.5t-104 24.5q-36 0 -71.5 -16t-67.5 -45.5t-60 -72t-50 -95.5q38 -1 67.5 -18.5t50 -46t31.5 -66t11 -77.5q0 -65 -26.5 -121t-73.5 -97t-113 -64.5t-145 -23.5
q-107 0 -193 32t-147 94.5t-93.5 153.5t-32.5 208q0 93 25 171t68 134t100 87.5t120 31.5q227 0 227 -332q-61 0 -113 -14t-89.5 -39.5t-59 -60.5t-21.5 -76q0 -37 19.5 -68.5t53.5 -54t79.5 -35.5t97.5 -13q34 0 69.5 5.5t64 18t46.5 33.5t18 52q0 45 -14 64.5t-33 19.5
q-40 0 -61 -62l-83 30q79 262 191.5 398.5t268.5 136.5q109 0 198 -65v548h85q20 -16 53.5 -35.5t72.5 -39.5q80 -41 119.5 -92.5t39.5 -119.5q0 -36 -14.5 -67t-39.5 -54t-58.5 -36.5t-72.5 -13.5q-16 0 -38.5 2t-45.5 8v-210q29 -50 43 -114.5t14 -129.5q0 -95 -26.5 -184
t-77 -158.5t-122.5 -111.5t-162 -42q-31 0 -62 5t-63 14zM1381 1057q14 -5 33.5 -8t30.5 -3q32 0 56 20.5t24 50.5q0 46 -37 79t-107 72v-211zM239 353q0 63 21 118.5t60.5 98t96 69.5t127.5 34q-2 22 -5.5 41.5t-8.5 34t-11 23t-12 8.5q-10 0 -29 -36q-39 -72 -96 -72
q-41 0 -64.5 21.5t-26.5 55.5q-42 -44 -62.5 -112.5t-20.5 -154.5q0 -42 9 -87t24 -87q-2 11 -2 22.5v22.5z" />
    <glyph glyph-name="uni0D9F0DD2" horiz-adv-x="1479" 
d="M885 117q32 -8 57 -11.5t43 -3.5q59 0 106 24.5t80 66.5t50.5 99t17.5 122q0 72 -21 132.5t-56 104t-82 68t-98 24.5q-72 0 -129.5 -60.5t-100.5 -168.5q37 -1 67 -17.5t51 -45t32 -66t11 -79.5q0 -52 -24.5 -106t-69 -98.5t-107 -73t-138.5 -28.5q-105 0 -191 32
t-147 94t-94.5 153t-33.5 209q0 93 25.5 170.5t68 134t99.5 87.5t120 31q227 0 227 -332q-61 0 -113 -14t-89.5 -39t-58.5 -60t-21 -76q0 -37 19.5 -68.5t53.5 -54t79.5 -35.5t97.5 -13q33 0 64.5 5.5t57 18t41 33.5t15.5 52q0 45 -14.5 64.5t-33.5 19.5q-39 0 -60 -62
l-84 30q87 287 189 401q-65 12 -115 39t-84 64.5t-51.5 84.5t-17.5 101q0 63 28.5 120t81.5 99.5t129 68t171 25.5q102 0 180 -23.5t131 -65.5t80.5 -99.5t27.5 -124.5q0 -146 -124 -219q72 -56 108.5 -150t36.5 -205q0 -95 -26.5 -184.5t-76.5 -158.5t-122 -111t-163 -42
q-30 0 -61 5t-63 14zM634 1053q0 -75 73 -117.5t201 -48.5q30 13 63.5 20.5t71.5 7.5q14 0 27 -1t27 -4q74 22 109 57.5t35 85.5q0 132 -308 132q-299 0 -299 -132zM239 353q0 63 21 118t60.5 97.5t96 69.5t127.5 34q-2 22 -5.5 41.5t-8.5 34t-11 23t-12 8.5q-9 0 -28 -36
q-39 -72 -97 -72q-41 0 -64 21.5t-27 55.5q-42 -44 -62.5 -112t-20.5 -154q0 -42 9 -87t24 -87q-2 11 -2 22.5v22.5z" />
    <glyph glyph-name="uni0D9F0DD3" horiz-adv-x="1479" 
d="M882 117q32 -8 57 -11.5t43 -3.5q59 0 106 24.5t80 66.5t50.5 99t17.5 122q0 72 -21 132t-56 103t-82 66.5t-98 23.5q-73 0 -133.5 -58.5t-105.5 -166.5q37 -1 66.5 -17.5t50.5 -45t32 -66t11 -79.5q0 -51 -22.5 -105t-64.5 -98.5t-102.5 -73.5t-135.5 -29
q-108 0 -194.5 32t-148 94t-94.5 153t-33 209q0 93 25.5 170.5t68 133.5t99.5 87t120 31q114 0 165.5 -82.5t51.5 -249.5q-61 0 -111 -14t-86 -39t-55.5 -59.5t-19.5 -75.5q0 -37 19.5 -68.5t53.5 -54t79.5 -35.5t97.5 -13q33 0 63 5.5t53.5 18t37.5 33.5t14 52
q0 45 -14.5 64.5t-33.5 19.5q-39 0 -60 -62l-82 30q42 143 91.5 247.5t103.5 164.5q-128 26 -197 95t-69 178q0 63 28.5 119.5t81.5 100t129.5 69t172.5 25.5q102 0 180.5 -25t131.5 -66.5t80 -96t27 -113.5q0 -163 -123 -233q72 -55 107 -144t35 -205q0 -95 -26.5 -184.5
t-76.5 -158.5t-122 -111t-163 -42q-30 0 -61 5t-63 14zM631 1048q0 -37 20.5 -66.5t57.5 -50.5t87.5 -33.5t110.5 -15.5q40 17 92 25q-16 34 -16 72q0 26 6.5 53t18 52t27.5 47.5t35 40.5q-27 4 -62 6t-76 2q-301 0 -301 -132zM1240 1044q0 74 -55 95q-23 -14 -41.5 -32.5
t-31.5 -39t-20.5 -41.5t-7.5 -39q0 -65 57 -65q20 0 38 11.5t31.5 29t21.5 39t8 42.5zM236 353q0 63 21 118t60.5 97t96 69t127.5 34q-2 22 -5.5 41.5t-8.5 34t-11 23t-12 8.5q-9 0 -28 -36q-39 -72 -97 -72q-41 0 -64 21.5t-27 55.5q-42 -44 -62.5 -111.5t-20.5 -153.5
q0 -42 9 -87t24 -87q-2 11 -2 22.5v22.5z" />
    <glyph glyph-name="uni0D9F0DD4" horiz-adv-x="1479" 
d="M972 81q140 16 202 99t62 234q0 72 -21 132t-56 103t-82 67t-98 24q-72 0 -129.5 -59t-100.5 -167q37 -1 67 -17.5t51 -45t32 -66t11 -79.5q0 -51 -24 -105.5t-67.5 -99t-105 -73t-135.5 -28.5q-107 0 -194.5 31.5t-149.5 93.5t-95.5 153t-33.5 210q0 93 25.5 171t68 135
t99.5 88.5t120 31.5q113 0 167.5 -78t54.5 -244q-61 0 -112 -16t-87.5 -43.5t-57 -64.5t-20.5 -78q0 -37 19.5 -68.5t53.5 -54t79.5 -35.5t97.5 -13q33 0 64.5 5.5t57 18t41 33.5t15.5 52q0 45 -14.5 64.5t-33.5 19.5q-39 0 -60 -62l-83 30q42 140 88 240.5t99.5 165t116 95
t136.5 30.5q69 0 129 -30.5t104.5 -85.5t70.5 -131.5t26 -167.5q0 -85 -19.5 -163t-54.5 -142.5t-83 -111.5t-105 -70q-23 -9 -55 -15.5t-70 -12.5q-66 -11 -96 -29.5t-30 -57.5q0 -23 9 -43t30.5 -35t56.5 -24t87 -9q33 0 62 6.5t50.5 18t34 27t12.5 33.5q0 23 -25 72
l88 20q38 -55 38 -108q0 -46 -20 -87.5t-54.5 -73t-81 -50.5t-100.5 -19q-66 0 -119.5 18.5t-91 51.5t-58 77.5t-20.5 96.5q0 51 13 87.5t39.5 62t67.5 41t97 24.5zM236 353q0 63 21 118.5t60.5 98.5t96 70.5t127.5 33.5q-2 22 -5.5 41.5t-8.5 34.5t-11 23.5t-12 8.5
q-9 0 -28 -36q-39 -73 -97 -73q-41 0 -64 22t-27 56q-42 -44 -62.5 -113.5t-20.5 -155.5q0 -42 9 -87t24 -87q-2 11 -2 22.5v22.5z" />
    <glyph glyph-name="uni0D9F0DD6" horiz-adv-x="1479" 
d="M978 173q48 -54 87 -54q33 0 63.5 23t54.5 62.5t38.5 93.5t14.5 116q0 72 -22.5 131.5t-59.5 102t-85 65.5t-100 23q-73 0 -128.5 -57.5t-100.5 -164.5q37 -1 66.5 -17.5t50.5 -45t32 -66t11 -79.5q0 -51 -22.5 -105.5t-64 -99t-101 -73t-134.5 -28.5q-107 0 -194.5 31.5
t-149.5 93.5t-95.5 153t-33.5 210q0 93 25.5 171.5t68 136t99.5 89.5t120 32q114 0 166.5 -81t52.5 -249q-61 0 -111.5 -15t-86.5 -41.5t-56 -62.5t-20 -78q0 -37 21 -68.5t57 -54t83 -35.5t99 -13q32 0 61 5.5t50.5 18t34.5 33.5t13 52q0 45 -14.5 64.5t-33.5 19.5
q-38 0 -61 -62l-82 30q42 140 88 240t99.5 163.5t115.5 93.5t136 30q69 0 130.5 -30t108 -84t74 -130t27.5 -167q0 -79 -18 -154t-49.5 -137.5t-74.5 -108.5t-92 -66q23 -20 36 -30.5t25 -22.5l-31 -65q-29 13 -53 18t-41 5q-16 0 -25.5 -2.5t-14 -6t-5.5 -8t-1 -8.5
q0 -6 2.5 -14t12.5 -18t30.5 -21.5t56.5 -26.5l-34 -78q-33 17 -57.5 24.5t-39.5 7.5q-19 0 -33.5 -7t-14.5 -17q0 -29 31.5 -50.5t95.5 -21.5q83 0 121.5 28t38.5 96l93 6q24 -48 24 -99q0 -44 -21 -83t-56.5 -68t-83 -45.5t-101.5 -16.5q-55 0 -104 18t-85.5 49.5t-58 75
t-21.5 93.5q0 40 30 76.5t81 50.5q-15 24 -15 51q0 34 21.5 59t62.5 36q-24 20 -47 38.5t-43 41.5zM236 353q0 63 21 119t60.5 99.5t96 71.5t127.5 34q-2 22 -5.5 41.5t-8.5 34.5t-11 23.5t-12 8.5q-9 0 -28 -36q-39 -73 -97 -73q-41 0 -63.5 22t-27.5 55
q-42 -45 -62.5 -115t-20.5 -156q0 -42 9 -87t24 -87q-2 11 -2 22.5v22.5z" />
    <glyph glyph-name="uni0D9F.rakar" horiz-adv-x="1479" 
d="M902 117q31 -8 46.5 -11.5t33.5 -3.5q59 0 106 24.5t80 66.5t50.5 99t17.5 122q0 72 -21 132t-56 103t-82 66.5t-98 23.5q-72 0 -124.5 -58.5t-95.5 -166.5q37 -1 67 -17.5t51 -45t32 -66t11 -79.5q0 -51 -25.5 -105.5t-71 -99t-108.5 -73t-137 -28.5q-107 0 -194.5 31.5
t-149.5 93.5t-95.5 153t-33.5 210q0 93 25.5 170.5t68 134t99.5 87.5t120 31q113 0 165 -78t52 -244q-61 0 -111 -15.5t-86 -42.5t-55.5 -63.5t-19.5 -77.5q0 -37 19.5 -69t53.5 -56t79.5 -37.5t97.5 -13.5q33 0 66.5 6.5t60.5 20t44 35t17 52.5q0 45 -14.5 64.5t-33.5 19.5
q-39 0 -60 -62l-83 30q42 140 86.5 240t96 164.5t112.5 95t135 30.5q69 0 129 -30.5t104.5 -85t70.5 -131t26 -167.5q0 -140 -19 -268t-55 -239.5t-89.5 -202.5t-122.5 -155.5t-153.5 -100t-182.5 -35.5q-80 0 -148.5 24t-131 70t-119.5 113.5t-114 155.5l78 64
q41 -52 86 -94t95 -71.5t107.5 -45.5t124.5 -16q70 0 142.5 29t138 81t119 124t85.5 158q-96 -87 -229 -87q-30 0 -51 5t-53 14zM236 353q0 63 21 118t60.5 97.5t96 69.5t127.5 34q-2 22 -5.5 41.5t-8.5 34t-11 23t-12 8.5q-9 0 -28 -36q-39 -72 -97 -72q-41 0 -64 21.5
t-27 55.5q-42 -44 -62.5 -112t-20.5 -154q0 -42 9 -87t24 -87q-2 11 -2 22.5v22.5z" />
    <glyph glyph-name="uni0D9F0DD2.rakar" horiz-adv-x="1479" 
d="M902 117q31 -8 46.5 -11.5t33.5 -3.5q59 0 106 24.5t80 66.5t50.5 99t17.5 122q0 72 -21 132.5t-56 103.5t-82 67t-98 24q-73 0 -128.5 -59.5t-100.5 -167.5q37 -1 66.5 -17.5t50.5 -45t32 -66t11 -79.5q0 -51 -24 -105.5t-67.5 -99t-105 -73t-135.5 -28.5
q-107 0 -194.5 31.5t-149.5 93.5t-95.5 153t-33.5 210q0 93 25.5 171t68 135t99.5 88.5t120 31.5q114 0 165.5 -84t51.5 -250q-61 0 -111 -14.5t-86 -40t-55.5 -60t-19.5 -75.5q0 -37 19.5 -70t53.5 -57.5t79.5 -39t97.5 -14.5q33 0 64.5 7t57 21.5t41 37t15.5 53.5
q0 45 -14.5 64.5t-33.5 19.5q-39 0 -60 -62l-83 30q42 143 88 249t99 166q-131 24 -199 94t-68 178q0 63 28.5 121t81.5 102t129 70.5t171 26.5q102 0 180 -25t131 -68t80.5 -101.5t27.5 -125.5q0 -146 -124 -219q72 -56 108.5 -148.5t36.5 -203.5q0 -135 -18.5 -260.5
t-54.5 -236t-89 -202t-122 -157t-154 -101.5t-184 -36q-80 0 -148.5 22t-131 66t-119.5 110t-114 154l78 64q41 -52 86 -92.5t95 -68t107.5 -42t124.5 -14.5q70 0 142.5 28t137.5 78.5t119 121.5t86 157q-96 -87 -229 -87q-30 0 -51 5t-53 14zM631 1050q0 -75 73 -117.5
t201 -48.5q62 28 135 28q14 0 27 -1t27 -4q74 22 109 57.5t35 85.5q0 66 -76.5 102t-231.5 36q-151 0 -225 -36t-74 -102zM236 353q0 63 21 116.5t60.5 93t96 64.5t127.5 31q-2 23 -5.5 45.5t-8.5 40t-11 28t-12 10.5q-9 0 -28 -36q-39 -73 -97 -73q-41 0 -64 22t-27 56
q-42 -44 -62.5 -113.5t-20.5 -155.5q0 -42 9 -87t24 -87q-2 11 -2 22.5v22.5z" />
    <glyph glyph-name="uni0D9F0DD3.rakar" horiz-adv-x="1479" 
d="M901 116q26 -11 46.5 -12.5t34.5 -1.5q59 0 106 24.5t80 66.5t50.5 99t17.5 122q0 72 -21 132t-56 103t-82 67t-98 24q-72 0 -133 -59t-106 -167q37 -1 66.5 -17.5t50.5 -45t32 -66t11 -79.5q0 -51 -22.5 -105.5t-64.5 -99t-101.5 -73t-133.5 -28.5q-107 0 -194.5 31.5
t-149.5 93.5t-95.5 153t-33.5 210q0 93 25.5 171.5t68 136t99.5 89.5t120 32q113 0 165 -88.5t52 -253.5q-61 0 -111 -13.5t-86 -38t-55.5 -58.5t-19.5 -75q0 -37 19.5 -70t53.5 -57.5t79.5 -39t97.5 -14.5q33 0 63 7t53.5 21.5t37.5 37t14 53.5q0 45 -14.5 64.5t-33.5 19.5
q-39 0 -60 -62l-82 30q42 144 92.5 249t102.5 164q-128 26 -197 95t-69 178q0 63 28.5 119.5t81.5 100t129.5 69t172.5 25.5q102 0 180.5 -25t131.5 -66.5t80 -96t27 -113.5q0 -163 -123 -233q74 -55 108 -144t34 -206q0 -135 -18.5 -261t-54.5 -236.5t-89 -202.5t-122 -158
t-154 -102.5t-184 -36.5q-80 0 -148.5 23t-131 68.5t-119.5 112.5t-114 155l78 64q41 -52 86 -93.5t95 -70.5t107.5 -44.5t124.5 -15.5q70 0 142.5 28.5t137.5 80t119 123t86 157.5q-27 -25 -55.5 -41.5t-60 -26.5t-66 -14.5t-73.5 -4.5q-20 0 -40.5 2t-39.5 11zM631 1049
q0 -37 20.5 -66.5t57.5 -50.5t87.5 -33.5t110.5 -15.5q40 17 92 25q-16 34 -16 72q0 25 7 51.5t19 52t28 48.5t33 41q-29 5 -64 6.5t-74 1.5q-301 0 -301 -132zM1240 1045q0 74 -55 95q-23 -14 -41.5 -32.5t-31.5 -39t-20.5 -41.5t-7.5 -39q0 -65 57 -65q20 0 38 11.5
t31.5 29t21.5 39t8 42.5zM236 353q0 63 21 116.5t60.5 93t96 64.5t127.5 31q-2 24 -5.5 46.5t-8.5 40.5t-11 29t-12 11q-9 0 -28 -36q-39 -73 -97 -73q-41 0 -63.5 22t-27.5 55q-42 -45 -62.5 -115t-20.5 -156q0 -42 9 -87t24 -87q-2 11 -2 22.5v22.5z" />
    <glyph glyph-name="uni0DA00DCA" horiz-adv-x="1237" 
d="M567 0q-109 0 -195 25.5t-146 72.5t-92 113t-32 147q0 60 16.5 104t48.5 82h-89v101h441q-7 60 -34 96t-63 36q-5 0 -9.5 -2.5t-12 -9.5t-18 -19.5t-25.5 -33.5q-35 -47 -83 -47q-89 0 -89 92q0 26 14.5 52.5t40 48.5t60 35.5t74.5 13.5q61 0 107 -25t77.5 -71.5t49 -114
t20.5 -152.5h-203q-103 0 -152.5 -36.5t-49.5 -117.5q0 -52 22 -86.5t66.5 -55.5t112 -30t158.5 -9q107 0 191.5 25t143 72t89.5 116t31 157q0 58 -21 111t-57 98.5t-84.5 82.5t-104 63t-115 40t-117.5 14q-66 0 -143 -17t-168 -50l-44 94q19 8 34.5 14.5t35.5 12.5
q-42 52 -42 83q0 25 27.5 47.5t71.5 39.5t99 26.5t110 9.5q151 0 267 -55t194.5 -148t118.5 -215t40 -255q0 -140 -45.5 -247.5t-123.5 -180t-182 -110t-221 -37.5zM322 1123q0 -3 3.5 -9.5t9.5 -14t13.5 -15.5t14.5 -14q107 19 169 19q116 0 212 -34t180 -96
q-82 102 -183.5 145t-217.5 43q-32 0 -67 -2.5t-65 -6t-49.5 -7.5t-19.5 -8z" />
    <glyph glyph-name="uni0DA00DD2" horiz-adv-x="1237" 
d="M567 0q-109 0 -195 25.5t-146 72.5t-92 113t-32 147q0 59 16 100t48 77h-88v100h441q-3 31 -12 58.5t-22 48.5t-28.5 33t-33.5 12t-32.5 -17.5t-30.5 -38.5t-36.5 -38.5t-49.5 -17.5q-89 0 -89 92q0 26 14.5 53t40 48.5t60 35.5t74.5 14q61 0 107 -28t77.5 -78.5t49 -121
t20.5 -155.5h-203q-51 0 -89 -12t-63 -32t-37.5 -46.5t-12.5 -54.5q0 -52 22 -86.5t66.5 -55.5t112 -30t158.5 -9q104 0 188 23.5t143.5 70.5t91.5 119t32 169q0 64 -22.5 120t-60.5 100.5t-88.5 74t-106.5 40.5q-62 12 -127 16.5t-126.5 9.5t-116.5 14.5t-96 29.5t-65 55.5
t-24 93.5q0 55 27.5 99t79 75.5t126.5 48.5t170 17q90 0 173.5 -19.5t148.5 -55.5t104 -86t39 -111q0 -54 -29.5 -95.5t-81.5 -61.5q43 -30 76.5 -72t56 -92t34 -105.5t11.5 -111.5q0 -140 -45.5 -247.5t-123.5 -180t-182 -110t-221 -37.5zM515 1187q-100 0 -148.5 -12
t-50.5 -44q1 -11 7.5 -22.5t25.5 -22t53 -19t90 -12.5q49 -4 103.5 -8t102.5 -7t85 -5t52 -2q63 0 94.5 17.5t31.5 43.5q0 93 -446 93z" />
    <glyph glyph-name="uni0DA00DD3" horiz-adv-x="1237" 
d="M567 0q-109 0 -195 25.5t-146 72.5t-92 113t-32 147q0 56 18.5 101.5t47.5 84.5h-90v100h441q-3 30 -12 56.5t-22 45.5t-29 30t-34 11q-9 0 -18 -7t-17 -18l-30 -41q-34 -47 -83 -47q-89 0 -89 92q0 26 14.5 53t40 48.5t60 35.5t74.5 14q61 0 107 -26.5t77.5 -75
t49 -117.5t20.5 -154h-203q-103 0 -152.5 -36t-49.5 -118q0 -52 22 -86t66.5 -54.5t112 -28.5t158.5 -8q107 0 191.5 24t143 70.5t89.5 115t31 156.5q0 69 -21.5 128.5t-58.5 105t-86.5 75t-106.5 39.5q-35 8 -88.5 11.5t-124.5 8.5q-107 6 -175 21t-106 39.5t-52 59.5
t-14 82q0 54 28 97.5t80 74t127 47.5t168 17q90 0 173.5 -19.5t148.5 -55.5t104 -86t39 -111q0 -54 -30 -95.5t-81 -62.5q43 -30 76.5 -72.5t56 -93t34 -105.5t11.5 -109q0 -140 -45.5 -247.5t-123.5 -180t-182 -110t-221 -37.5zM580 1049q21 -2 45 -4t50 -4q-18 30 -18 72
q0 41 19 69q-38 3 -78 4t-83 1q-103 0 -151 -12.5t-48 -41.5q0 -23 19 -37.5t53.5 -23.5t83 -14t108.5 -9zM961 1094q0 30 -32 52.5t-92 22.5q-80 0 -80 -56q0 -16 10 -29.5t27.5 -23t40 -15t47.5 -5.5q38 0 58.5 17t20.5 37z" />
    <glyph glyph-name="uni0DA00DD4" horiz-adv-x="1237" 
d="M567 0q-109 0 -195 25.5t-146 72.5t-92 113t-32 147q0 56 18.5 101.5t47.5 84.5h-90v100h441q-3 30 -12 56.5t-22 45.5t-29 30t-34 11q-6 0 -11.5 -2.5t-12 -9.5t-16.5 -20t-25 -34q-36 -47 -83 -47q-89 0 -89 92q0 26 14.5 53t40 48.5t60 35.5t74.5 14q61 0 107 -26.5
t77.5 -75t49 -117.5t20.5 -154h-203q-103 0 -152.5 -36t-49.5 -118q0 -52 22 -86.5t66.5 -55.5t112 -30t158.5 -9q107 0 191.5 25t143 72t89.5 116t31 157q0 113 -35 212.5t-96 173.5t-142 116.5t-172 42.5q-108 0 -207 -47t-175 -153l-85 54q41 64 94 110.5t113 77t125 45
t131 14.5q116 0 216.5 -51.5t175 -140t117 -207t42.5 -251.5v-1045h-812q-47 0 -85 14t-65 39.5t-41.5 62t-14.5 81.5q0 43 16.5 81t44.5 66.5t66 44.5t81 16q78 0 134 -41.5t93 -124.5l-89 -41q-56 105 -128 105q-25 0 -46.5 -8t-37 -21.5t-24 -33t-8.5 -41.5
q0 -48 28 -73.5t76 -25.5h693v563q-38 -45 -89 -80.5t-110.5 -60.5t-124 -38.5t-129.5 -13.5z" />
    <glyph glyph-name="uni0DA00DD6" horiz-adv-x="1237" 
d="M567 0q-109 0 -195 25.5t-146 72.5t-92 113t-32 147q0 56 18.5 101.5t47.5 84.5h-90v100h441q-3 30 -12 56.5t-22 45.5t-29 30t-34 11q-9 0 -18 -7t-17 -18l-30 -41q-34 -47 -83 -47q-89 0 -89 92q0 26 14.5 53t40 48.5t60 35.5t74.5 14q61 0 107 -26.5t77.5 -75
t49 -117.5t20.5 -154h-203q-103 0 -152.5 -36t-49.5 -118q0 -52 22 -86.5t66.5 -55.5t112 -30t158.5 -9q107 0 191.5 25t143 72t89.5 116t31 157q0 113 -35 212.5t-96 173.5t-142 116.5t-172 42.5q-108 0 -207 -47t-175 -153l-85 54q41 64 94 110.5t113 77t125 45t131 14.5
q116 0 216.5 -51.5t175 -140t117 -207t42.5 -251.5v-1057h-85q-48 60 -103 90t-101 30q-66 0 -128 -19.5t-125 -42.5t-128 -42.5t-136 -19.5q-54 0 -97.5 16t-74 44.5t-47 67t-16.5 83.5q0 40 15.5 77.5t43 66.5t65.5 46.5t83 17.5q78 0 134 -41.5t93 -124.5l-88 -42
q-52 106 -131 106q-27 0 -48 -9t-36 -23.5t-22.5 -32.5t-7.5 -37q0 -26 9.5 -47t26 -36t38.5 -23t47 -8q67 0 134.5 22.5t131 49.5t122 49.5t108.5 22.5q48 0 102 -16.5t102 -50.5v501q-38 -45 -89 -80.5t-110.5 -60.5t-124 -38.5t-129.5 -13.5z" />
    <glyph glyph-name="uni0DA0.reph" horiz-adv-x="1237" 
d="M567 0q-109 0 -195 25.5t-146 72.5t-92 113t-32 147q0 59 16 100t48 77h-88v100h441q-3 30 -12 56t-22 45t-29 30t-34 11q-5 0 -10 -2.5t-12 -9t-17.5 -19.5t-25.5 -34q-36 -47 -83 -47q-45 0 -67 25.5t-22 56.5q0 26 14.5 53t40 48.5t60 35.5t74.5 14q61 0 107 -25
t77.5 -71.5t49 -114t20.5 -152.5h-203q-34 0 -70 -7.5t-65 -25t-48 -45t-19 -67.5q0 -52 22 -86.5t66.5 -55.5t112 -30t158.5 -9q107 0 191.5 25t143 72t89.5 116t31 157q0 104 -24.5 197.5t-77.5 166.5q-1 -1 -0.5 -1.5t-0.5 -1.5q-2 -5 -13 -21t-21 -33l-80 50
q12 21 23 40.5t20 39.5q-9 6 -18.5 13.5t-20.5 14.5q-6 -34 -26 -62t-49 -48t-64 -31t-69 -11q-95 0 -158 38.5t-88 131.5q-82 -50 -161 -156l-84 53q103 158 251 222q16 40 44.5 72t66 55t83 35.5t96.5 12.5q70 0 127.5 -21.5t98.5 -57.5t63.5 -82.5t22.5 -96.5
q0 -13 -1 -24t-4 -22q91 -95 128.5 -214.5t37.5 -262.5q0 -140 -45.5 -247.5t-123.5 -180t-182 -110t-221 -37.5zM588 1225q75 0 146.5 -24.5t135.5 -65.5q-9 23 -26 45t-42.5 38.5t-59.5 26.5t-76 10q-35 0 -68 -8.5t-57 -23.5q12 2 24 2h23zM509 1068q0 13 1.5 25t6.5 23
q-15 -3 -28 -6.5t-24 -6.5q1 -14 6 -30.5t14.5 -33t25 -30t38.5 -20.5q-10 8 -17.5 18.5t-12.5 21.5t-7.5 21.5t-2.5 17.5zM670 1114q-59 0 -59 -44q0 -25 17 -36t40 -11q26 0 41.5 12t15.5 35q0 22 -17 33t-38 11z" />
    <glyph glyph-name="uni0DA0.rakar" horiz-adv-x="1237" 
d="M566 0q-108 0 -194.5 25.5t-146.5 72.5t-92 113t-32 147q0 56 18.5 101.5t47.5 84.5h-90v100h441q-3 30 -12 56.5t-22 45.5t-28.5 30t-33.5 11q-11 0 -24 -13t-42 -53q-34 -47 -83 -47q-89 0 -89 92q0 26 14.5 53t40 48.5t60 35.5t74.5 14q61 0 107 -26.5t78 -75
t49 -117.5t20 -154h-203q-103 0 -152.5 -36t-49.5 -118q0 -52 22 -86.5t66.5 -55.5t112 -30t158.5 -9q107 0 191.5 25t143 72t89.5 116t31 157q0 113 -35 212.5t-96 173.5t-142 116.5t-172 42.5q-109 0 -207.5 -56t-173.5 -163l-86 54q41 63 93.5 112.5t112.5 83.5t125.5 52
t131.5 18q116 0 216.5 -52t175 -141.5t117 -209.5t42.5 -256q0 -124 -14 -251t-45 -244.5t-80 -220.5t-118 -179.5t-160.5 -120.5t-206.5 -44q-80 0 -148.5 22t-130.5 66t-119.5 110t-113.5 154l78 64q41 -52 85.5 -92.5t94.5 -68t107.5 -42t125.5 -14.5q92 0 175 38
t150.5 102.5t116 150.5t71.5 181q-39 -41 -89.5 -73.5t-107.5 -55.5t-119 -35.5t-124 -12.5z" />
    <glyph glyph-name="uni0DA00DCA.rakar" horiz-adv-x="1237" 
d="M566 0q-108 0 -194.5 25.5t-146.5 72.5t-92 113t-32 147q0 56 18.5 96.5t48.5 79.5h-91v100h441q-3 30 -12 58t-21.5 49t-29 33.5t-34.5 12.5q-9 0 -18 -7t-17 -18l-30 -41q-34 -47 -83 -47q-89 0 -89 92q0 26 14.5 53t40 48.5t60 35.5t74.5 14q61 0 107 -28t78 -78.5
t49 -121t20 -155.5h-203q-102 0 -152 -31t-50 -113q0 -89 88 -135t271 -46q107 0 191.5 25t143 72t89.5 116t31 157q0 95 -42.5 170.5t-112 128.5t-159.5 81.5t-185 28.5q-66 0 -143 -17t-168 -50l-44 94q20 8 35.5 14.5t35.5 12.5q-42 51 -42 83q0 25 27.5 51t71.5 46
t98.5 33t109.5 13q162 0 279 -57t193 -153.5t112 -223.5t36 -268q0 -235 -38 -430t-114.5 -335t-191.5 -217.5t-270 -77.5q-80 0 -148.5 22t-131 66t-119.5 110t-114 154l79 64q41 -52 85.5 -92.5t94.5 -68t107.5 -42t125.5 -14.5q85 0 167 39.5t150.5 104.5t117 150
t66.5 175q-39 -42 -88.5 -74.5t-106.5 -54.5t-118.5 -33.5t-124.5 -11.5zM322 1123q0 -7 13 -24t27 -29q56 10 97.5 14.5t72.5 4.5q117 0 211.5 -26.5t179.5 -87.5q-83 102 -183 147t-218 45q-31 0 -66 -5.5t-65 -13t-49.5 -14.5t-19.5 -11z" />
    <glyph glyph-name="uni0DA00DD2.rakar" horiz-adv-x="1237" 
d="M566 0q-108 0 -194.5 25.5t-146.5 72.5t-92 113t-32 147q0 59 16.5 100t48.5 77h-89v100h441q-3 32 -12 60t-21.5 48.5t-29 32t-34.5 11.5q-5 0 -10 -2.5t-12 -10t-17.5 -20t-25.5 -33.5q-36 -47 -83 -47q-89 0 -89 92q0 26 14.5 53t40 48.5t60 35.5t74.5 14
q61 0 107 -28t78 -78.5t49 -120.5t20 -155h-203q-51 0 -89 -12t-63 -32t-37.5 -46.5t-12.5 -54.5q0 -52 22 -86.5t66.5 -55.5t112 -30t158.5 -9q104 0 188 23t143.5 70.5t91.5 119t32 169.5q0 113 -42.5 184t-111.5 111.5t-156 55.5t-176 15q-95 0 -161 14.5t-107 40.5
t-60 63t-19 84q0 54 28.5 97.5t81 74.5t127 47.5t166.5 16.5q93 0 177.5 -20t148.5 -57t101.5 -88t37.5 -112q0 -50 -30.5 -90t-79.5 -61q41 -30 73.5 -74.5t55.5 -98t35.5 -112.5t12.5 -116q0 -82 -6 -171.5t-20.5 -179.5t-38 -177.5t-58 -166t-81 -145.5t-107 -116
t-136 -76.5t-167.5 -27.5q-80 0 -148.5 22t-131 66t-119.5 110t-114 154l79 64q41 -52 85.5 -92.5t94.5 -68t107.5 -42t125.5 -14.5q48 0 100 16t102.5 45t98 71t87 93.5t68.5 112.5t43 128q-39 -41 -88.5 -73t-106 -54t-118 -33t-123.5 -11zM514 1197q-100 0 -148.5 -12
t-50.5 -44q1 -11 7.5 -22.5t25.5 -22t53 -19t90 -12.5q49 -4 103.5 -8t102.5 -7t85 -5t52 -2q64 0 95 17.5t31 43.5q0 93 -446 93z" />
    </font>
</defs>
</svg>
